<?xml version="1.0" standalone="no"?>
<!DOCTYPE svg PUBLIC "-//W3C//DTD SVG 1.1//EN" "http://www.w3.org/Graphics/SVG/1.1/DTD/svg11.dtd" >
<svg xmlns="http://www.w3.org/2000/svg" xmlns:xlink="http://www.w3.org/1999/xlink" version="1.1">
<metadata>
Created by FontForge 20170731 at Wed Jan  3 22:19:08 2007
 By Aleksey,,,
Copyright 1993 Greg Thompson. Agenda is a Trademark of Greg Thompson. Produced by The Font Bureau, Inc.
</metadata>
<defs>
<font id="Agenda-Black" horiz-adv-x="500" >
  <font-face 
    font-family="Agenda"
    font-weight="400"
    font-stretch="normal"
    units-per-em="1000"
    panose-1="2 0 6 3 4 0 0 2 0 4"
    ascent="800"
    descent="-200"
    x-height="453"
    cap-height="638"
    bbox="-76 -252 1065 937"
    underline-thickness="18"
    underline-position="-186"
    unicode-range="U+0020-FB02"
  />
<missing-glyph 
 />
    <glyph glyph-name="fi" unicode="fi" horiz-adv-x="605" 
d="M362 0v286h-89v-286h-199v286h-62v167h62v4q0 62 20 111t57 84t88.5 53.5t115.5 18.5q32 0 61.5 -5.5t46.5 -13.5l-5 -169q-17 8 -35.5 12.5t-42.5 4.5q-56 0 -81.5 -22t-25.5 -66v-12h292v-453h-203z" />
    <glyph glyph-name="fl" unicode="fl" horiz-adv-x="683" 
d="M623 -22q-42 0 -78.5 14.5t-64 41t-43.5 64.5t-16 84v361q-22 14 -64 14q-44 0 -64 -26.5t-20 -61.5v-16h79l-5 -167h-74v-286h-199v286h-62v167h62v4q0 60 19.5 109t59 84t99 54.5t139.5 19.5q29 0 61.5 -6t63.5 -16t58.5 -24t45.5 -29v-454q0 -33 13.5 -48t38.5 -22z
" />
    <glyph glyph-name=".notdef" 
 />
    <glyph glyph-name=".null" horiz-adv-x="0" 
 />
    <glyph glyph-name="nonmarkingreturn" horiz-adv-x="220" 
 />
    <glyph glyph-name="space" unicode=" " horiz-adv-x="220" 
 />
    <glyph glyph-name="exclam" unicode="!" horiz-adv-x="269" 
d="M240 87q0 -13 -11.5 -31t-28 -34.5t-34.5 -28t-31 -11.5t-31 11.5t-34.5 28t-28 34.5t-11.5 31q0 12 11.5 30t28 34.5t34.5 28t31 11.5t31 -11.5t34.5 -28t28 -34.5t11.5 -30zM216 222l-164 33l-19 427h203z" />
    <glyph glyph-name="quotedbl" unicode="&#x22;" horiz-adv-x="416" 
d="M153 378h-94l-26 334h146zM357 378h-94l-26 334h146z" />
    <glyph glyph-name="numbersign" unicode="#" horiz-adv-x="472" 
d="M221 353l-15 -68h46l15 68h-46zM373 353l-15 -68h45v-98h-69l-43 -187h-106l43 187h-46l-43 -187h-106l43 187h-43v98h67l15 68h-44v98h67l43 187h106l-43 -187h46l43 187h106l-43 -187h46v-98h-69z" />
    <glyph glyph-name="dollar" unicode="$" horiz-adv-x="513" 
d="M479 192q0 -88 -44.5 -142t-130.5 -66v-81h-96v82q-48 3 -86.5 17.5t-75.5 36.5l5 169q36 -25 81.5 -42t102.5 -17q20 0 32 10.5t12 24.5q0 9 -2.5 15t-10 11.5t-20.5 11.5t-34 14q-91 36 -136 87t-45 132q0 79 46 133t131 64v85h96v-82q39 -5 71.5 -13t58.5 -22l-5 -173
q-13 9 -32 17t-41 14.5t-46 10.5t-47 4q-19 0 -28 -8.5t-9 -21.5q0 -7 2 -12.5t9 -10.5t20.5 -11t37.5 -15q93 -33 138.5 -90.5t45.5 -131.5z" />
    <glyph glyph-name="percent" unicode="%" horiz-adv-x="729" 
d="M219 502q0 19 -11.5 31.5t-26.5 12.5t-26.5 -12.5t-11.5 -31.5q0 -18 11.5 -31t26.5 -13t26.5 13t11.5 31zM586 138q0 19 -11.5 31.5t-26.5 12.5t-26.5 -12.5t-11.5 -31.5q0 -18 11.5 -31t26.5 -13t26.5 13t11.5 31zM341 502q0 -34 -13 -63t-34.5 -49.5t-50.5 -32
t-62 -11.5t-62 11.5t-51 32t-34.5 49.5t-12.5 63t12.5 62.5t34.5 48.5t51 31.5t62 11.5t62 -11.5t50.5 -31.5t34.5 -48.5t13 -62.5zM161 -13l-79 62l487 601l78 -61zM708 138q0 -34 -13 -63t-34.5 -49.5t-50.5 -32t-62 -11.5t-62 11.5t-51 32t-34.5 49.5t-12.5 63t12.5 62.5
t34.5 48.5t51 31.5t62 11.5t62 -11.5t50.5 -31.5t34.5 -48.5t13 -62.5z" />
    <glyph glyph-name="ampersand" unicode="&#x26;" horiz-adv-x="649" 
d="M217 229q-17 -8 -24.5 -22.5t-7.5 -32.5q0 -22 17.5 -34t40.5 -12q26 0 60 16zM299 471q0 17 -12 31t-32 14t-32.5 -12.5t-12.5 -29.5q0 -24 42 -60q23 14 35 29t12 28zM448 0l-31 31q-39 -22 -84.5 -34.5t-97.5 -12.5q-49 0 -89.5 14t-68.5 39t-43.5 58t-15.5 72
t8.5 67.5t21 48.5t28 34t29.5 24q-26 29 -40 59t-14 68q0 43 15.5 77.5t42.5 59t64 38t80 13.5q44 0 82 -13.5t66.5 -38.5t45 -60.5t16.5 -79.5q0 -29 -9.5 -53.5t-24 -45t-31.5 -36t-33 -25.5l60 -60q25 29 46 61t37 67l113 -113q-14 -30 -34.5 -63t-48.5 -65l131 -131
h-221z" />
    <glyph glyph-name="quotesingle" unicode="'" horiz-adv-x="212" 
d="M153 378h-94l-26 334h146z" />
    <glyph glyph-name="parenleft" unicode="(" horiz-adv-x="323" 
d="M328 697q-48 -105 -71 -226t-23 -241q0 -129 22 -245t71 -231l-204 41q-25 60 -43 116t-29.5 111.5t-16.5 113.5t-5 122q0 137 22 253t70 225z" />
    <glyph glyph-name="parenright" unicode=")" horiz-adv-x="323" 
d="M294 226q0 -137 -22 -253t-70 -225l-207 39q48 105 71 226t23 241q0 129 -21.5 245t-71.5 231l204 -41q26 -60 43.5 -116t29 -111.5t16.5 -113.5t5 -122z" />
    <glyph glyph-name="asterisk" unicode="*" horiz-adv-x="468" 
d="M326 472l78 -95l-89 -96l-80 125l-64 -103l-119 56l97 113l-119 32l15 127l133 -56l-7 121l129 29l-7 -147l107 46l68 -113z" />
    <glyph glyph-name="plus" unicode="+" horiz-adv-x="449" 
d="M304 202v-111h-160v111h-119v146h119v111h160v-111h120v-146h-120z" />
    <glyph glyph-name="comma" unicode="," horiz-adv-x="244" 
d="M227 88q0 -27 -13 -60.5t-34.5 -69t-48.5 -69t-56 -58.5l-60 10q29 32 52.5 74t31.5 82q-11 2 -25 12.5t-27 24.5t-21.5 29t-8.5 25q0 14 12 32t28.5 33.5t34.5 26.5t30 11q11 0 28.5 -10.5t34.5 -26.5t29.5 -33.5t12.5 -32.5z" />
    <glyph glyph-name="hyphen" unicode="-" horiz-adv-x="325" 
d="M25 202v146h275v-146h-275z" />
    <glyph glyph-name="hyphen" unicode="&#xad;" horiz-adv-x="325" 
d="M25 202v146h275v-146h-275z" />
    <glyph glyph-name="period" unicode="." horiz-adv-x="244" 
d="M227 87q0 -13 -11.5 -31t-28 -34.5t-34.5 -28t-31 -11.5t-31 11.5t-34.5 28t-28 34.5t-11.5 31q0 12 11.5 30t28 34.5t34.5 28t31 11.5t31 -11.5t34.5 -28t28 -34.5t11.5 -30z" />
    <glyph glyph-name="slash" unicode="/" horiz-adv-x="676" 
d="M148 -26l-113 97l494 609l112 -94z" />
    <glyph glyph-name="zero" unicode="0" horiz-adv-x="564" 
d="M334 319q0 72 -14 118.5t-38 46.5q-12 0 -21.5 -12.5t-16 -34.5t-10 -52.5t-3.5 -65.5q0 -72 13.5 -117.5t37.5 -45.5t38 44.5t14 118.5zM534 319q0 -89 -19.5 -152.5t-54 -104.5t-80 -60.5t-98.5 -19.5q-52 0 -98 19.5t-80.5 60.5t-54 104.5t-19.5 152.5
q0 88 19.5 151.5t54 105t80.5 61t98 19.5q53 0 98.5 -19.5t80 -61t54 -105t19.5 -151.5z" />
    <glyph glyph-name="one" unicode="1" horiz-adv-x="355" 
d="M108 0v455l-95 -8l5 178l288 26v-651h-198z" />
    <glyph glyph-name="two" unicode="2" horiz-adv-x="489" 
d="M24 0v60q36 35 74 81t69 93.5t50.5 91.5t19.5 75q0 34 -20 55.5t-53 21.5q-32 0 -62.5 -9t-58.5 -26l-5 178q28 15 67 25t87 10q54 0 100 -14.5t79 -43t52 -71t19 -99.5q0 -63 -28.5 -132t-78.5 -129h140v-167h-451z" />
    <glyph glyph-name="three" unicode="3" horiz-adv-x="442" 
d="M417 201q0 -114 -73 -166t-199 -52q-25 0 -57 5.5t-54 14.5l-5 168q24 -12 51 -16t56 -4q28 0 47 13.5t19 36.5q0 19 -14.5 31.5t-37.5 12.5q-8 0 -19 -1t-24 -3l-6 151q30 8 47.5 21.5t17.5 34.5q0 15 -12 27t-38 12q-21 0 -37 -2t-32 -7l-5 160q23 9 50.5 13.5
t69.5 4.5q49 0 88 -12.5t66 -35t41.5 -53.5t14.5 -68q0 -45 -19 -77.5t-47 -49.5q21 -7 40.5 -21t35.5 -34.5t25.5 -47t9.5 -56.5z" />
    <glyph glyph-name="four" unicode="4" horiz-adv-x="544" 
d="M282 443q-14 -31 -31 -55l-74 -103h103v105q0 11 1 25t3 27zM461 137v-137h-181v137h-254l-22 159l250 342h207v-353h61v-148h-61z" />
    <glyph glyph-name="five" unicode="5" horiz-adv-x="457" 
d="M432 204q0 -109 -69 -165.5t-195 -56.5q-38 0 -72 6.5t-53 15.5l-5 171q24 -12 48 -17t59 -5q32 0 52 15t20 33q0 22 -21 37.5t-59 15.5q-30 0 -47.5 -3.5t-40.5 -11.5l9 399h323l-5 -167h-125l-3 -72h11q29 0 59.5 -15t56 -41.5t41.5 -62t16 -76.5z" />
    <glyph glyph-name="six" unicode="6" horiz-adv-x="539" 
d="M320 209q0 24 -15 38.5t-38 14.5q-10 0 -20 -2.5t-16 -5.5q-4 -15 -4 -36q0 -29 15.5 -43t35.5 -14q17 0 29.5 14t12.5 34zM514 214q0 -52 -18.5 -95t-51 -73.5t-76.5 -47t-95 -16.5t-95.5 17.5t-77.5 50t-51.5 79t-18.5 104.5q0 65 18.5 127t51 117.5t77 103.5t97.5 84
l207 -52q-24 -11 -53 -32t-57 -46.5t-50.5 -52t-34.5 -49.5h6q30 0 68.5 -13t72.5 -39.5t57.5 -68t23.5 -98.5z" />
    <glyph glyph-name="seven" unicode="7" horiz-adv-x="516" 
d="M274 0h-207l193 471h-238v167h502z" />
    <glyph glyph-name="eight" unicode="8" horiz-adv-x="558" 
d="M333 190q0 23 -20.5 38t-41.5 20q-19 -5 -37.5 -20t-18.5 -38q0 -21 18 -36t41 -15t41 15t18 36zM332 457q0 20 -15 33.5t-38 13.5t-37 -13.5t-14 -33.5q0 -19 14 -33.5t41 -19.5q24 6 36.5 20t12.5 33zM528 192q0 -97 -65.5 -153.5t-183.5 -56.5t-183.5 56.5
t-65.5 153.5q0 26 8.5 49.5t21 42t28.5 32.5t31 20q-15 9 -28 24t-22.5 33t-15.5 38t-6 39q0 41 16 75t46 59t72.5 38.5t94.5 13.5q53 0 95.5 -14t72.5 -39t46 -60.5t16 -78.5q0 -16 -6 -34.5t-15.5 -36t-22.5 -31.5t-27 -22q16 -7 32.5 -21.5t30 -34t22 -43t8.5 -49.5z" />
    <glyph glyph-name="nine" unicode="9" horiz-adv-x="539" 
d="M312 420q0 29 -15.5 43t-35.5 14q-17 0 -29.5 -14t-12.5 -34q0 -24 15 -38.5t38 -14.5q10 0 20 2.5t16 5.5q4 15 4 36zM509 405q0 -65 -18.5 -127t-51 -117.5t-77 -103.5t-97.5 -84l-207 52q24 11 53 32t57 46.5t50.5 52.5t34.5 49h-6q-30 0 -68.5 13t-72.5 39.5
t-57.5 68t-23.5 98.5q0 53 18.5 95.5t51 73t76.5 47t95 16.5t95.5 -17.5t77.5 -50t51.5 -79t18.5 -104.5z" />
    <glyph glyph-name="colon" unicode=":" horiz-adv-x="244" 
d="M227 87q0 -13 -11.5 -31t-28 -34.5t-34.5 -28t-31 -11.5t-31 11.5t-34.5 28t-28 34.5t-11.5 31q0 12 11.5 30t28 34.5t34.5 28t31 11.5t31 -11.5t34.5 -28t28 -34.5t11.5 -30zM227 367q0 -13 -11.5 -31t-28 -34.5t-34.5 -28t-31 -11.5t-31 11.5t-34.5 28t-28 34.5
t-11.5 31q0 12 11.5 30t28 34.5t34.5 28t31 11.5t31 -11.5t34.5 -28t28 -34.5t11.5 -30z" />
    <glyph glyph-name="semicolon" unicode=";" horiz-adv-x="244" 
d="M227 88q0 -27 -13 -60.5t-34.5 -69t-48.5 -69t-56 -58.5l-60 10q29 32 52.5 74t31.5 82q-11 2 -25 12.5t-27 24.5t-21.5 29t-8.5 25q0 14 12 32t28.5 33.5t34.5 26.5t30 11q11 0 28.5 -10.5t34.5 -26.5t29.5 -33.5t12.5 -32.5zM227 367q0 -13 -11.5 -31t-28 -34.5
t-34.5 -28t-31 -11.5t-31 11.5t-34.5 28t-28 34.5t-11.5 31q0 12 11.5 30t28 34.5t34.5 28t31 11.5t31 -11.5t34.5 -28t28 -34.5t11.5 -30z" />
    <glyph glyph-name="semicolon" unicode="&#x37e;" horiz-adv-x="244" 
d="M227 88q0 -27 -13 -60.5t-34.5 -69t-48.5 -69t-56 -58.5l-60 10q29 32 52.5 74t31.5 82q-11 2 -25 12.5t-27 24.5t-21.5 29t-8.5 25q0 14 12 32t28.5 33.5t34.5 26.5t30 11q11 0 28.5 -10.5t34.5 -26.5t29.5 -33.5t12.5 -32.5zM227 367q0 -13 -11.5 -31t-28 -34.5
t-34.5 -28t-31 -11.5t-31 11.5t-34.5 28t-28 34.5t-11.5 31q0 12 11.5 30t28 34.5t34.5 28t31 11.5t31 -11.5t34.5 -28t28 -34.5t11.5 -30z" />
    <glyph glyph-name="less" unicode="&#x3c;" horiz-adv-x="342" 
d="M206 85l-193 192l192 194l108 -109l-85 -85l85 -85z" />
    <glyph glyph-name="equal" unicode="=" horiz-adv-x="449" 
d="M25 91v146h399v-146h-399zM25 314v145h399v-145h-399z" />
    <glyph glyph-name="greater" unicode="&#x3e;" horiz-adv-x="342" 
d="M136 85l-107 107l85 85l-85 85l108 109l192 -192z" />
    <glyph glyph-name="question" unicode="?" horiz-adv-x="419" 
d="M291 87q0 -13 -11.5 -31t-28 -34.5t-34.5 -28t-31 -11.5t-31 11.5t-34.5 28t-28 34.5t-11.5 31q0 12 11.5 30t28 34.5t34.5 28t31 11.5t31 -11.5t34.5 -28t28 -34.5t11.5 -30zM389 509q0 -25 -5 -46.5t-16 -44t-28.5 -46.5t-42.5 -54q-18 -21 -25.5 -41.5t-7.5 -38.5
q0 -5 0.5 -8t1.5 -8l-164 33q-3 11 -5 23t-2 22q0 17 3 32t10.5 31t20.5 34t33 42q12 14 19.5 28.5t7.5 31.5q0 14 -10.5 23.5t-30.5 9.5q-32 0 -63.5 -14t-57.5 -33l-5 171q29 20 67.5 32t81.5 12q52 0 92.5 -15t68.5 -41t42.5 -60.5t14.5 -74.5z" />
    <glyph glyph-name="at" unicode="@" horiz-adv-x="758" 
d="M426 372q-3 3 -6 5t-11 2q-9 0 -20 -7t-20 -20t-15.5 -31t-6.5 -40q0 -15 6.5 -21.5t16.5 -6.5q16 0 27 14.5t15 32.5zM728 383q0 -52 -14.5 -98t-40.5 -79.5t-61 -53t-76 -19.5q-25 0 -47.5 15t-29.5 44q-29 -34 -57.5 -45t-64.5 -11q-22 0 -44 9.5t-39.5 27t-28 42.5
t-10.5 56q0 57 22 100t55.5 71.5t73.5 43t76 14.5q37 0 67.5 -10.5t49.5 -31.5l-24 -167q-1 -7 -1.5 -13t-0.5 -12q0 -18 17 -18q13 0 24 11t19 30t12.5 44.5t4.5 53.5q0 44 -14 74.5t-39 50.5t-59 29t-74 9q-52 0 -102.5 -21.5t-90 -59.5t-63.5 -89.5t-24 -112.5
q0 -44 13.5 -77.5t37.5 -56.5t55.5 -34.5t67.5 -11.5q37 0 66 8t50 22l-5 -105q-20 -14 -51 -22t-63 -8q-67 0 -119.5 21.5t-89.5 59t-56.5 89t-19.5 112.5q0 80 32 151t87 124.5t129 85t158 31.5q63 0 116.5 -19.5t92.5 -55t61 -86t22 -112.5z" />
    <glyph glyph-name="A" unicode="A" horiz-adv-x="639" 
d="M326 358q-4 11 -7.5 24t-5.5 27h-2q-2 -14 -5.5 -27t-6.5 -24l-29 -99h85zM428 0l-30 100h-171l-30 -100h-197l230 638h179l230 -638h-211z" />
    <glyph glyph-name="B" unicode="B" horiz-adv-x="569" 
d="M346 202q0 27 -18.5 40.5t-38.5 13.5h-57v-106h57q20 0 38.5 12.5t18.5 39.5zM306 447q0 24 -13.5 34.5t-28.5 10.5h-33v-90h33q15 0 28.5 10.5t13.5 34.5zM547 203q0 -43 -15.5 -80.5t-45 -64.5t-71.5 -42.5t-95 -15.5h-275v638h251q43 0 78.5 -13t61.5 -36.5
t40.5 -54.5t14.5 -67q0 -22 -12 -52t-35 -47q18 -6 36.5 -23t33.5 -39.5t24 -49t9 -53.5z" />
    <glyph glyph-name="C" unicode="C" horiz-adv-x="585" 
d="M550 433q-26 17 -57.5 27t-85.5 10q-40 0 -70 -13t-50 -34.5t-30 -48.5t-10 -55t10.5 -55t32 -48.5t53.5 -34.5t75 -13q46 0 80 10t57 27l-6 -186q-23 -17 -68.5 -27t-99.5 -10q-65 0 -128 21.5t-112.5 64t-80 105.5t-30.5 146q0 82 30.5 145t80 105.5t112.5 64.5t128 22
q54 0 100 -10t75 -27z" />
    <glyph glyph-name="D" unicode="D" horiz-adv-x="649" 
d="M406 319q0 32 -12 57.5t-32 42.5t-46 26t-55 9h-13v-270h13q29 0 55 9t46 26.5t32 42.5t12 57zM619 319q0 -72 -26.5 -130.5t-72 -100.5t-107.5 -65t-133 -23h-235v638h235q71 0 133 -23t107.5 -65t72 -100.5t26.5 -130.5z" />
    <glyph glyph-name="E" unicode="E" horiz-adv-x="486" 
d="M45 0v638h401v-171h-188v-60h148v-176h-148v-60h208v-171h-421z" />
    <glyph glyph-name="F" unicode="F" horiz-adv-x="470" 
d="M258 467v-60h157v-176h-157v-231h-213v638h410v-171h-197z" />
    <glyph glyph-name="G" unicode="G" horiz-adv-x="665" 
d="M627 45q-35 -28 -95 -45.5t-145 -17.5q-67 0 -131.5 21.5t-114.5 64t-80.5 105.5t-30.5 146q0 82 31 145t81 105.5t114 64.5t131 22t117.5 -15t81.5 -37l-6 -189q-31 26 -74 41t-98 15q-40 0 -71.5 -13t-53 -35t-32.5 -51t-11 -61q0 -27 10 -54t30 -48t49 -34t66 -13
q11 0 20 1t19 4v46h-84v161h277v-329z" />
    <glyph glyph-name="H" unicode="H" horiz-adv-x="680" 
d="M422 0v227h-164v-227h-213v638h213v-227h164v227h213v-638h-213z" />
    <glyph glyph-name="I" unicode="I" horiz-adv-x="313" 
d="M50 0v638h213v-638h-213z" />
    <glyph glyph-name="J" unicode="J" horiz-adv-x="348" 
d="M298 129q0 -80 -19.5 -136.5t-54.5 -94.5t-82 -59.5t-103 -30.5l-71 150q30 6 52 17.5t36.5 33t21.5 55t7 82.5v492h213v-509z" />
    <glyph glyph-name="K" unicode="K" horiz-adv-x="627" 
d="M390 0l-132 227v-227h-213v638h213v-247l139 247h228l-181 -320l189 -318h-243z" />
    <glyph glyph-name="L" unicode="L" horiz-adv-x="502" 
d="M45 0v638h213v-454h231v-184h-444z" />
    <glyph glyph-name="M" unicode="M" horiz-adv-x="877" 
d="M631 0l-15 182q-2 20 -3 42.5t1 48.5h-2q-8 -27 -16 -48.5t-20 -44.5l-93 -180h-88l-93 180q-22 43 -37 93h-2q2 -26 1.5 -47t-2.5 -44l-15 -182h-212l55 638h192l108 -209q11 -22 24.5 -51.5t23.5 -55.5h1q9 26 21.5 55t24.5 52l107 209h194l56 -638h-211z" />
    <glyph glyph-name="N" unicode="N" horiz-adv-x="716" 
d="M543 0l-195 217q-26 28 -49.5 57.5t-42.5 54.5l-2 -1q2 -24 3 -54t1 -55v-219h-213v638h184l157 -176q18 -20 39 -45.5t35 -45.5l2 1q-2 21 -3 42t-1 46v178h213v-638h-128z" />
    <glyph glyph-name="O" unicode="O" horiz-adv-x="758" 
d="M511 319q0 30 -10 57t-28 47t-42 32t-52 12t-52 -12t-42 -32t-28 -47t-10 -57t10 -56.5t28 -46.5t42 -31.5t52 -11.5t52 11.5t42 31.5t28 46.5t10 56.5zM728 319q0 -76 -29 -138.5t-77 -106.5t-111 -68t-132 -24t-132 24t-111 68t-77 106.5t-29 138.5q0 77 29 139t77 106
t111 68t132 24t132 -24t111 -68t77 -106t29 -139z" />
    <glyph glyph-name="P" unicode="P" horiz-adv-x="556" 
d="M343 430q0 23 -16 34.5t-33 11.5h-46v-92h46q17 0 33 11.5t16 34.5zM542 430q0 -45 -16 -83t-45.5 -65.5t-70 -43.5t-88.5 -16h-74v-222h-203v638h277q48 0 88.5 -16t70 -43.5t45.5 -65.5t16 -83z" />
    <glyph glyph-name="Q" unicode="Q" horiz-adv-x="758" 
d="M511 319q0 30 -10 57t-28 47t-42 32t-52 12t-52 -12t-42 -32t-28 -47t-10 -57t10 -56.5t28 -46.5t42 -31.5t52 -11.5t52 11.5t42 31.5t28 46.5t10 56.5zM670 -167q-5 -1 -9.5 -1h-9.5q-46 0 -91 14t-89 44q-39 26 -79 52.5t-69 43.5q-57 9 -110 36t-93.5 69.5t-65 100
t-24.5 127.5q0 77 29 139t77 106t111 68t132 24t132 -24t111 -68t77 -106t29 -139q0 -50 -15.5 -96t-41 -83t-57.5 -63.5t-65 -38.5v-2q8 -2 14.5 -4t14.5 -5.5t19 -9t27 -14.5q20 -11 43.5 -17t40.5 -6q20 0 33.5 2t27.5 7z" />
    <glyph glyph-name="R" unicode="R" horiz-adv-x="612" 
d="M340 430q0 23 -16 34.5t-33 11.5h-43v-92h43q17 0 33 11.5t16 34.5zM409 0l-141 222h-20v-222h-203v638h274q48 0 88.5 -16t70 -43.5t45.5 -65.5t16 -83q0 -24 -6.5 -48t-17.5 -44.5t-26.5 -37t-32.5 -25.5l188 -275h-235z" />
    <glyph glyph-name="S" unicode="S" horiz-adv-x="526" 
d="M510 204q0 -103 -64 -162.5t-192 -59.5q-67 0 -122 15t-98 49l-6 192q47 -42 99 -61t108 -19q32 0 46 6t14 19q0 8 -2.5 13t-12 10t-27.5 12t-48 18q-82 31 -124 86t-42 121q0 47 17 86.5t48 67.5t75 43.5t98 15.5q36 0 63 -3.5t47.5 -8.5t36 -12t27.5 -15l-6 -178
q-28 18 -65.5 30t-74.5 12q-34 0 -45 -5.5t-11 -17.5q0 -6 2.5 -10.5t12 -9.5t28 -11.5t49.5 -17.5q35 -12 66 -32.5t54 -47.5t36 -59t13 -66z" />
    <glyph glyph-name="T" unicode="T" horiz-adv-x="602" 
d="M408 473v-473h-213v474h-180v164h572v-165h-179z" />
    <glyph glyph-name="U" unicode="U" horiz-adv-x="676" 
d="M631 232q0 -59 -24 -105.5t-64 -78t-93 -48t-112 -16.5q-58 0 -111.5 16.5t-93.5 48t-64 78t-24 105.5v406h213v-388q0 -21 8 -36t20 -24.5t26.5 -14t27.5 -4.5q14 0 28.5 4.5t26.5 13.5t19.5 24t7.5 36v389h209v-406z" />
    <glyph glyph-name="V" unicode="V" horiz-adv-x="624" 
d="M419 0h-223l-211 638h215l82 -259q10 -30 18 -64.5t13 -66.5h2q5 32 13 66.5t18 64.5l82 259h201z" />
    <glyph glyph-name="W" unicode="W" horiz-adv-x="907" 
d="M713 0h-165l-67 224q-16 52 -29 113h-2q-7 -32 -14 -59.5t-15 -53.5l-67 -224h-165l-199 638h199l63 -222q8 -27 12.5 -52.5t9.5 -58.5h2q4 33 9 58.5t13 52.5l67 222h183l63 -221q7 -23 12.5 -52t10.5 -60h2q6 64 21 111l67 222h188z" />
    <glyph glyph-name="X" unicode="X" horiz-adv-x="647" 
d="M414 0l-67 109q-6 11 -14 26t-15 30h-2q-7 -15 -14.5 -28.5t-15.5 -27.5l-69 -109h-217l205 324l-194 314h228l61 -98q15 -23 25 -49h2q5 12 11.5 25t14.5 24l61 98h217l-194 -311l205 -327h-228z" />
    <glyph glyph-name="Y" unicode="Y" horiz-adv-x="643" 
d="M423 276v-276h-205v269l-233 369h226l82 -127q8 -12 16.5 -29t15.5 -34h2q7 17 16 34.5t17 28.5l82 127h211z" />
    <glyph glyph-name="Z" unicode="Z" horiz-adv-x="539" 
d="M14 0v52l139 269q8 15 17 32t19 34.5t20 34.5t19 31l-1 1h-197v184h483v-52l-139 -271q-17 -32 -37.5 -68t-37.5 -62l1 -1h224v-184h-510z" />
    <glyph glyph-name="bracketleft" unicode="[" horiz-adv-x="389" 
d="M38 -231v943h331v-167h-132v-609h132v-167h-331z" />
    <glyph glyph-name="backslash" unicode="\" horiz-adv-x="686" 
d="M533 -26l-493 612l112 94l494 -609z" />
    <glyph glyph-name="bracketright" unicode="]" horiz-adv-x="389" 
d="M20 -231v167h132v609h-132v167h331v-943h-331z" />
    <glyph glyph-name="asciicircum" unicode="^" horiz-adv-x="430" 
d="M321 500q-29 14 -54.5 30.5t-51.5 42.5q-26 -26 -51.5 -42.5t-54.5 -30.5l-90 91q47 22 101 65t95 106q41 -63 95 -106t101 -65z" />
    <glyph glyph-name="underscore" unicode="_" horiz-adv-x="600" 
d="M0 -231v146h602v-146h-602z" />
    <glyph glyph-name="grave" unicode="`" 
d="M329 485q-57 14 -103 32.5t-97 54.5l30 129q26 -25 57 -46t64 -38t66.5 -30t63.5 -21z" />
    <glyph glyph-name="a" unicode="a" horiz-adv-x="506" 
d="M267 189l-38 -3q-24 -2 -34 -16.5t-10 -31.5q0 -14 9.5 -23t26.5 -9q20 0 33 12t13 29v42zM450 -18q-41 0 -70.5 10t-49.5 35q-23 -21 -57 -33t-71 -12q-35 0 -67 9.5t-56.5 29t-39 49.5t-14.5 71q0 60 41.5 100.5t115.5 48.5l77 8v5q0 14 -13.5 20t-43.5 6q-44 0 -82 -8
t-58 -19l-5 143q11 5 28.5 9.5t38.5 8.5t44 6t45 2q110 0 170 -52t60 -147v-86q0 -60 53 -66z" />
    <glyph glyph-name="b" unicode="b" horiz-adv-x="539" 
d="M323 227q0 29 -17 49.5t-43 20.5q-5 0 -14.5 -1t-14.5 -4v-129q6 -3 15.5 -4t13.5 -1q26 0 43 20t17 49zM514 238q0 -61 -20.5 -108.5t-56.5 -80.5t-86 -50t-109 -17q-63 0 -116 16.5t-86 39.5v674h194v-244q17 3 30 3q51 0 96 -17t79.5 -48t54.5 -74t20 -94z" />
    <glyph glyph-name="c" unicode="c" horiz-adv-x="458" 
d="M416 265q-21 11 -47 18t-55 7q-40 0 -62 -17.5t-22 -47.5q0 -29 26 -47t69 -18q29 0 52 6t43 17l-5 -173q-20 -12 -54.5 -20t-78.5 -8q-53 0 -100 17t-82 49t-55 77t-20 101q0 57 20 102.5t54.5 77t80.5 48.5t98 17q45 0 82 -8t61 -22z" />
    <glyph glyph-name="d" unicode="d" horiz-adv-x="565" 
d="M331 283q-18 15 -50 15q-29 0 -47 -20t-18 -48t18 -48t47 -20q28 0 50 15v106zM372 0l-4 29q-14 -22 -43.5 -32.5t-64.5 -10.5q-45 0 -87.5 16.5t-75 47t-52.5 72.5t-20 93q0 59 19 106.5t52.5 80.5t79 51t99.5 18q20 0 33 -2t23 -7v250h194v-712h-153z" />
    <glyph glyph-name="e" unicode="e" horiz-adv-x="502" 
d="M310 286q0 22 -12.5 34.5t-32.5 12.5q-26 0 -40 -15.5t-21 -39.5h105q0 2 0.5 4t0.5 4zM477 283q0 -12 -1.5 -26t-4.5 -25l-65 -65h-188q13 -20 39.5 -33.5t71.5 -13.5q35 0 63.5 6.5t55.5 18.5l-5 -140q-23 -10 -57 -16.5t-79 -6.5q-61 0 -113 17.5t-89.5 49.5
t-58.5 78.5t-21 103.5q0 53 17.5 97t50 76t77.5 49.5t99 17.5q48 0 86.5 -15t65.5 -41t41.5 -60t14.5 -72z" />
    <glyph glyph-name="f" unicode="f" horiz-adv-x="399" 
d="M427 545q-19 8 -53 8q-48 0 -74.5 -20.5t-26.5 -68.5v-11h101l-5 -167h-96v-286h-199v286h-62v167h62v3q0 69 23 119.5t61.5 83.5t88.5 49t105 16q50 0 80 -11z" />
    <glyph glyph-name="g" unicode="g" horiz-adv-x="505" 
d="M310 -74q0 11 -9 23t-24 16l-45 11q-18 -2 -32 -13.5t-14 -31.5t16.5 -31.5t45.5 -11.5t45.5 10.5t16.5 27.5zM286 300q0 20 -13 33t-33 13q-19 0 -32.5 -13t-13.5 -33q0 -19 13.5 -32.5t32.5 -13.5q20 0 33 13.5t13 32.5zM481 -70q0 -38 -16 -70t-46 -55t-72 -36.5
t-95 -13.5q-52 0 -94.5 14t-72.5 38.5t-46.5 57t-16.5 68.5q0 48 22 80t60 43l-56 56q5 20 20.5 37t32.5 27q-22 14 -41.5 43.5t-19.5 70.5q0 39 12.5 72t38 57.5t63 38t86.5 13.5q22 0 40 -2.5t35 -7.5q18 -5 35 -7.5t37 -2.5q28 0 49.5 4.5t38.5 12.5l5 -146
q-6 -5 -18.5 -8t-24.5 -2q1 -3 1 -13q0 -34 -10.5 -62t-29 -49t-42.5 -34.5t-51 -19.5q-10 -2 -10 -12q0 -9 10 -12l32 -11q72 -25 108 -65t36 -104z" />
    <glyph glyph-name="h" unicode="h" horiz-adv-x="549" 
d="M311 0v249q0 14 -10.5 22t-22.5 8t-25.5 -7.5t-13.5 -27.5v-244h-199v712h199v-281q20 16 49.5 26t62.5 10q75 0 119 -44t44 -119v-304h-203z" />
    <glyph glyph-name="i" unicode="i" horiz-adv-x="285" 
d="M40 0v453h205v-453h-205zM238 609q0 -12 -10.5 -28.5t-25.5 -31.5t-31.5 -25.5t-28.5 -10.5t-28.5 10.5t-31.5 25.5t-25.5 31.5t-10.5 28.5t10.5 28.5t25.5 31.5t31.5 25.5t28.5 10.5t28.5 -10.5t31.5 -25.5t25.5 -31.5t10.5 -28.5z" />
    <glyph glyph-name="j" unicode="j" horiz-adv-x="283" 
d="M243 -4q0 -106 -56 -168t-153 -73l-68 143q42 7 58 33.5t16 77.5v444h203v-457zM237 609q0 -12 -10.5 -28.5t-25.5 -31.5t-31.5 -25.5t-28.5 -10.5t-28.5 10.5t-31.5 25.5t-25.5 31.5t-10.5 28.5t10.5 28.5t25.5 31.5t31.5 25.5t28.5 10.5t28.5 -10.5t31.5 -25.5
t25.5 -31.5t10.5 -28.5z" />
    <glyph glyph-name="k" unicode="k" horiz-adv-x="545" 
d="M320 0l-81 152v-152h-199v712h199v-412l80 153h204l-115 -210l137 -243h-225z" />
    <glyph glyph-name="l" unicode="l" horiz-adv-x="307" 
d="M227 -22q-35 0 -67.5 14.5t-58 41t-41 64.5t-15.5 84v530h199v-521q0 -33 13.5 -48t38.5 -22z" />
    <glyph glyph-name="m" unicode="m" horiz-adv-x="822" 
d="M584 0v248q0 14 -10 22t-21 8q-13 0 -26.5 -7.5t-13.5 -27.5v-243h-203v248q0 14 -10 22t-23 8t-26 -7.5t-13 -27.5v-243h-203v453h178l4 -45q4 9 16.5 19t29.5 19t38 15t43 6q49 0 80 -14.5t51 -37.5q8 11 24 20.5t35 16.5t40 11t40 4q45 0 77.5 -12.5t53.5 -34.5
t31.5 -53t10.5 -68v-299h-203z" />
    <glyph glyph-name="n" unicode="n" horiz-adv-x="548" 
d="M310 0v249q0 14 -10.5 22t-22.5 8t-25.5 -7.5t-13.5 -27.5v-244h-203v453h178l4 -45q6 12 19.5 22.5t31.5 18.5t39 13t43 5q75 0 119 -44t44 -119v-304h-203z" />
    <glyph glyph-name="o" unicode="o" horiz-adv-x="556" 
d="M339 227q0 30 -18 52t-43 22t-43 -22t-18 -52t18 -52t43 -22t43 22t18 52zM531 227q0 -54 -20.5 -99t-55 -77.5t-80.5 -50.5t-97 -18q-52 0 -98 18t-80.5 50.5t-54.5 77.5t-20 99t20 98.5t54.5 77t80.5 50.5t98 18q51 0 97 -18t80.5 -50.5t55 -77t20.5 -98.5z" />
    <glyph glyph-name="p" unicode="p" horiz-adv-x="565" 
d="M349 223q0 28 -18 48t-47 20q-27 0 -50 -15v-106q18 -15 50 -15q29 0 47 20t18 48zM540 238q0 -59 -19 -106.5t-52.5 -80.5t-79 -51t-99.5 -18q-20 0 -33 2t-23 7v-222h-194v684h153l4 -29q14 22 43.5 32.5t64.5 10.5q45 0 87.5 -16.5t75 -47t52.5 -72.5t20 -93z" />
    <glyph glyph-name="q" unicode="q" horiz-adv-x="539" 
d="M305 290q-6 3 -15.5 4t-13.5 1q-26 0 -43 -20t-17 -49t17 -49.5t43 -20.5q5 0 14.5 1t14.5 4v129zM305 -231v216q-16 -3 -30 -3q-55 0 -101 18.5t-79 51t-51.5 77.5t-18.5 99t20 99t54 77t80 49.5t98 17.5q35 0 65 -6.5t52 -17.5l40 24h65v-702h-194z" />
    <glyph glyph-name="r" unicode="r" horiz-adv-x="416" 
d="M397 285q-1 1 -4 1h-11q-63 0 -101 -38t-38 -105v-143h-203v453h185l4 -71q24 45 63 63.5t100 18.5z" />
    <glyph glyph-name="s" unicode="s" horiz-adv-x="412" 
d="M389 139q0 -31 -11 -59.5t-34.5 -50t-60 -34.5t-87.5 -13q-54 0 -98 13.5t-68 31.5l-5 156q30 -26 70.5 -41.5t85.5 -15.5q23 0 23 12q0 8 -8.5 11.5t-30.5 11.5q-57 20 -92.5 60.5t-35.5 91.5q0 35 13.5 64t37.5 50t58 32.5t74 11.5q45 0 78.5 -9.5t51.5 -20.5l-5 -146
q-20 14 -48 23t-57 9q-22 0 -22 -13q0 -7 8.5 -11t34.5 -11q64 -17 96 -59t32 -94z" />
    <glyph glyph-name="t" unicode="t" horiz-adv-x="418" 
d="M391 286h-114v-75q0 -23 11 -36.5t34 -13.5q26 0 44 7l-5 -158q-14 -8 -40 -13.5t-56 -5.5q-45 0 -80 14.5t-59 38.5t-37 56t-13 66v120h-64v167h69v84l191 60v-144h124z" />
    <glyph glyph-name="u" unicode="u" horiz-adv-x="548" 
d="M335 0l-4 45q-6 -12 -19.5 -22.5t-31.5 -18.5t-39 -13t-43 -5q-75 0 -119 44t-44 119v304h203v-249q0 -14 10.5 -22t22.5 -8t25.5 7.5t13.5 27.5v244h203v-453h-178z" />
    <glyph glyph-name="v" unicode="v" horiz-adv-x="511" 
d="M347 0h-183l-159 453h192l44 -145q5 -15 9 -34t6 -38h2q6 40 16 72l46 145h186z" />
    <glyph glyph-name="w" unicode="w" horiz-adv-x="755" 
d="M599 0h-166l-39 140q-5 17 -8.5 34t-7.5 38h-2q-2 -21 -5.5 -38.5t-8.5 -33.5l-39 -140h-167l-146 453h182l40 -150q5 -17 8.5 -36.5t5.5 -39.5h2q5 42 14 76l42 150h155l41 -149q5 -18 8 -39t5 -38h2q2 18 5.5 38.5t8.5 38.5l42 149h174z" />
    <glyph glyph-name="x" unicode="x" horiz-adv-x="476" 
d="M285 0l-39 71q-5 8 -9 18t-6 19h-2q-2 -10 -6 -19.5t-9 -17.5l-39 -71h-175l129 224l-125 229h191l35 -62q5 -8 8 -14.5t6 -15.5h2q4 9 7 15.5t8 14.5l35 62h176l-124 -216l128 -237h-191z" />
    <glyph glyph-name="y" unicode="y" horiz-adv-x="532" 
d="M376 33q-20 -56 -45 -104.5t-56 -85.5t-70 -60t-87 -28l-64 136q21 6 38 13.5t31 20.5t26 32.5t24 48.5l-168 447h196l50 -147q6 -17 10 -35t7 -39h2q4 21 7.5 38.5t9.5 35.5l50 147h190z" />
    <glyph glyph-name="z" unicode="z" horiz-adv-x="455" 
d="M27 0v38l83 165q22 45 47 81l-1 2h-108v167h363v-38l-84 -167q-21 -44 -47 -79l1 -2h142v-167h-396z" />
    <glyph glyph-name="braceleft" unicode="{" horiz-adv-x="403" 
d="M370 -231q-63 0 -115.5 18t-90 53.5t-58 89t-20.5 124.5q0 66 -18 110.5t-65 75.5q47 31 65 75.5t18 110.5q0 71 20.5 124.5t58 89.5t90 54t115.5 18l20 -166q-28 0 -48 -8.5t-33 -22t-18.5 -29.5t-5.5 -30q0 -89 -19.5 -140t-57.5 -76q38 -25 57.5 -76t19.5 -140
q0 -14 5.5 -30t18.5 -29t33 -21.5t48 -8.5z" />
    <glyph glyph-name="bar" unicode="|" horiz-adv-x="236" 
d="M45 -231v943h146v-943h-146z" />
    <glyph glyph-name="braceright" unicode="}" horiz-adv-x="403" 
d="M400 240q-47 -31 -65 -75.5t-18 -110.5q0 -71 -20.5 -124.5t-58 -89t-90 -53.5t-115.5 -18l-20 166q29 0 48.5 8.5t32.5 21.5t18.5 29t5.5 30q0 89 19.5 140t57.5 76q-38 25 -57.5 76t-19.5 140q0 14 -5.5 30t-18.5 29.5t-32.5 22t-48.5 8.5l20 166q63 0 115.5 -18
t90 -54t58 -89.5t20.5 -124.5q0 -66 18 -110.5t65 -75.5z" />
    <glyph glyph-name="asciitilde" unicode="~" horiz-adv-x="412" 
d="M359 228q-43 -28 -83 -42t-93 -19l-8 76q-37 -6 -76.5 -21t-76.5 -38l31 127q43 28 83 42.5t93 18.5l8 -76q38 7 77.5 22.5t75.5 36.5z" />
    <glyph glyph-name="nonbreakingspace" unicode="&#xa0;" horiz-adv-x="110" 
 />
    <glyph glyph-name="exclamdown" unicode="&#xa1;" horiz-adv-x="269" 
d="M33 -44l20 460l164 -33l19 -427h-203zM239 551q0 -12 -11.5 -30t-28 -34.5t-34.5 -28t-31 -11.5t-31 11.5t-34.5 28t-28 34.5t-11.5 30q0 13 11.5 31t28 34.5t34.5 28t31 11.5t31 -11.5t34.5 -28t28 -34.5t11.5 -31z" />
    <glyph glyph-name="cent" unicode="&#xa2;" horiz-adv-x="458" 
d="M416 450q-21 11 -47 18t-55 7q-40 0 -62 -17.5t-22 -47.5q0 -29 26 -47t69 -18q29 0 52 6t43 17l-5 -173q-25 -16 -77 -24v-89h-96v88q-46 6 -85.5 25.5t-69 50.5t-46 72.5t-16.5 92.5q0 52 17 94.5t46 73.5t69 50t85 25v83h96v-85q50 -7 83 -26z" />
    <glyph glyph-name="sterling" unicode="&#xa3;" horiz-adv-x="461" 
d="M428 -11q-18 8 -55 14t-75 6q-40 0 -75 -5.5t-55 -14.5l-141 74q20 35 31 79t11 98v20h-62v105h62v23q0 69 22.5 119.5t60.5 83.5t88 49t105 16q22 0 41.5 -4.5t30.5 -10.5l-5 -165q-11 5 -25 7t-34 2q-34 0 -58.5 -21.5t-24.5 -56.5v-42h110l-7 -105h-103v-20
q0 -15 -3.5 -34.5t-11.5 -38.5q12 3 27.5 4t34.5 1q35 0 65.5 -5t50.5 -12z" />
    <glyph glyph-name="currency" unicode="&#xa4;" horiz-adv-x="492" 
d="M305 277q0 24 -17 41t-42 17q-24 0 -41 -17t-17 -41q0 -25 17 -42t41 -17q25 0 42 17t17 42zM370 62l-59 58q-32 -13 -65 -13q-34 0 -67 14l-61 -58l-88 89l60 57q-14 33 -14 68q0 33 13 65l-59 60l89 88l58 -58q32 15 69 15q36 0 67 -14l59 58l87 -89l-57 -58
q14 -29 14 -67q0 -37 -15 -69l58 -57z" />
    <glyph glyph-name="yen" unicode="&#xa5;" horiz-adv-x="631" 
d="M515 439h59v-105h-126l-37 -58v-9h163v-105h-163v-162h-193v162h-164v105h164v2l-41 65h-123v105h57l-126 199h220l82 -127q8 -12 16.5 -29t15.5 -34h2q7 17 16 34.5t17 28.5l82 127h205z" />
    <glyph glyph-name="brokenbar" unicode="&#xa6;" horiz-adv-x="236" 
d="M45 -231v412h146v-412h-146zM45 300v412h146v-412h-146z" />
    <glyph glyph-name="section" unicode="&#xa7;" horiz-adv-x="483" 
d="M152 317l-1 -53l180 -163l1 54zM462 -27q0 -47 -17 -86.5t-48 -67.5t-75 -43.5t-98 -15.5q-36 0 -63 3.5t-47.5 8.5t-36 12t-27.5 15l6 178q28 -18 65.5 -30t74.5 -12q34 0 45 6t11 17q0 10 -10 19l-184 163l6 183q-10 15 -17.5 28t-13 26.5t-8.5 29t-3 36.5
q0 47 17 86.5t48 67.5t75 43.5t98 15.5q36 0 63 -3.5t47.5 -8.5t36 -12t27.5 -15l-6 -178q-28 18 -65.5 30t-74.5 12q-34 0 -45 -6t-11 -17q0 -10 10 -19l184 -163l-6 -183q10 -15 17.5 -28t13 -26.5t8.5 -29t3 -36.5z" />
    <glyph glyph-name="dieresis" unicode="&#xa8;" 
d="M228 566q0 -9 -9 -23t-22 -27t-27 -22t-23 -9t-23 9t-27 22t-22 27t-9 23t9 23t22 27t27 22t23 9t23 -9t27 -22t22 -27t9 -23zM434 566q0 -9 -9 -23t-22 -27t-27 -22t-23 -9t-23 9t-27 22t-22 27t-9 23t9 23t22 27t27 22t23 9t23 -9t27 -22t22 -27t9 -23z" />
    <glyph glyph-name="copyright" unicode="&#xa9;" horiz-adv-x="591" 
d="M388 268q-23 18 -55 18q-18 0 -30 -11t-12 -26t13 -26t36 -11q15 0 26 2.5t22 10.5l-2 -101q-11 -7 -28 -10.5t-36 -3.5q-33 0 -61 10.5t-48 29t-31.5 44.5t-11.5 57q0 32 11.5 58t31.5 45t47.5 29t59.5 10q22 0 40.5 -5.5t29.5 -13.5zM480 250q0 40 -13.5 74.5t-37.5 60
t-58 40t-75 14.5q-42 0 -76 -14.5t-58 -40t-37.5 -60t-13.5 -74.5t13.5 -74.5t37.5 -60t58 -40t76 -14.5q41 0 75 14.5t58 40t37.5 60t13.5 74.5zM566 250q0 -59 -21 -108t-57.5 -84.5t-85.5 -55.5t-106 -20t-106.5 20t-86 55.5t-57.5 84.5t-21 108q0 60 21 109.5t57.5 85
t86 55t106.5 19.5t106 -19.5t85.5 -55t57.5 -85t21 -109.5z" />
    <glyph glyph-name="ordfeminine" unicode="&#xaa;" horiz-adv-x="416" 
d="M219 431l-31 -2q-19 -2 -27 -13.5t-8 -25.5q0 -11 7.5 -18t21.5 -7q16 0 26.5 9.5t10.5 23.5v33zM288 137q0 -9 -9 -23t-22 -27t-27 -22t-23 -9t-23 9t-27 22t-22 27t-9 23t9 23t22 27t27 22t23 9t23 -9t27 -22t22 -27t9 -23zM365 266q-32 0 -56 8t-40 28
q-18 -17 -45.5 -26.5t-56.5 -9.5q-28 0 -54 7.5t-45.5 23.5t-31 39.5t-11.5 56.5q0 48 33 80.5t93 38.5l61 6v4q0 11 -10.5 16t-34.5 5q-35 0 -66 -6.5t-46 -14.5l-4 114q17 8 53 14.5t71 6.5q88 0 136 -42t48 -117v-69q0 -48 43 -53z" />
    <glyph glyph-name="guillemotleft" unicode="&#xab;" horiz-adv-x="545" 
d="M175 78q-35 59 -83.5 110t-106.5 89q58 38 106.5 89t83.5 110l94 -94q-13 -29 -35 -58.5t-40 -46.5q18 -17 40 -46.5t35 -58.5zM430 78q-36 59 -84 110t-107 89q59 38 107 89t84 110l94 -94q-13 -29 -35.5 -58.5t-39.5 -46.5q17 -17 39.5 -46.5t35.5 -58.5z" />
    <glyph glyph-name="logicalnot" unicode="&#xac;" horiz-adv-x="570" 
d="M371 97v105h-346v146h500v-251h-154z" />
    <glyph glyph-name="registered" unicode="&#xae;" horiz-adv-x="459" 
d="M253 490q0 13 -7.5 18t-14.5 5h-10v-44h10q7 0 14.5 4.5t7.5 16.5zM281 339l-54 79h-6v-76h-61v222h75q15 0 30 -5t27 -14t19.5 -23t7.5 -32q0 -17 -9.5 -32t-23.5 -24l50 -65zM384 453q0 33 -11.5 61.5t-32.5 49.5t-49 32.5t-61 11.5t-61.5 -11.5t-49 -32.5t-32.5 -49.5
t-12 -61.5t12 -61t32.5 -49t49 -32.5t61.5 -11.5t61 12t49 32.5t32.5 48.5t11.5 61zM434 453q0 -43 -15.5 -80t-43 -64.5t-65 -43t-80.5 -15.5t-80.5 15.5t-65.5 43t-43.5 64.5t-15.5 80q0 44 15.5 81t43.5 64t65.5 42.5t80.5 15.5t80.5 -15.5t65 -42.5t43 -64t15.5 -81z
" />
    <glyph glyph-name="macron" unicode="&#xaf;" 
d="M138 503v96h234v-96h-234z" />
    <glyph glyph-name="macron" unicode="&#x2c9;" 
d="M138 503v96h234v-96h-234z" />
    <glyph glyph-name="degree" unicode="&#xb0;" horiz-adv-x="292" 
d="M204 534q0 25 -16.5 41.5t-41.5 16.5t-41.5 -16.5t-16.5 -41.5t16.5 -41.5t41.5 -16.5t41.5 16.5t16.5 41.5zM269 534q0 -25 -10 -47.5t-26.5 -39t-39 -26t-47.5 -9.5t-47.5 9.5t-39 26t-26.5 39t-10 47.5t10 47.5t26.5 39t39 26t47.5 9.5t47.5 -9.5t39 -26t26.5 -39
t10 -47.5z" />
    <glyph glyph-name="plusminus" unicode="&#xb1;" horiz-adv-x="1012" 
d="M952 -22q-42 0 -78.5 14.5t-64 41t-43.5 64.5t-16 84v361q-22 14 -64 14q-44 0 -64 -26.5t-20 -61.5v-16h79l-5 -167h-74v-286h-199v286h-130v-286h-199v286h-62v167h62v12q0 52 16.5 96.5t47 77t75 51t100.5 18.5q26 0 42 -1.5t30 -6.5l-5 -169q-15 6 -42 6
q-11 0 -22.5 -4.5t-21 -13t-15.5 -20t-6 -26.5v-20h130v4q0 60 19.5 109t59 84t99 54.5t139.5 19.5q29 0 61.5 -6t63.5 -16t58.5 -24t45.5 -29v-454q0 -33 13.5 -48t38.5 -22z" />
    <glyph glyph-name="twosuperior" unicode="&#xb2;" horiz-adv-x="336" 
d="M6 241v37q24 21 50.5 50t48.5 58t36.5 56t14.5 44q0 19 -12 31t-32 12q-19 0 -39 -4.5t-35 -12.5l-5 113q22 9 49 15t53 6q36 0 66.5 -9.5t53 -29t35 -48t12.5 -67.5q0 -18 -7 -38t-18 -39.5t-24.5 -36.5t-27.5 -30h93v-107h-312z" />
    <glyph glyph-name="threesuperior" unicode="&#xb3;" horiz-adv-x="290" 
d="M278 377q0 -40 -14 -67.5t-38 -44.5t-55.5 -24t-66.5 -7q-8 0 -18.5 1t-21 2.5t-20 3.5t-15.5 5l-4 107q14 -8 28 -9.5t37 -1.5q16 0 30 6.5t14 20.5q0 24 -31 24q-5 0 -12 -1t-16 -3l-1 96q13 5 21 11.5t8 15.5q0 8 -5.5 13t-19.5 5q-11 0 -22.5 -3t-19.5 -8l-6 116
q16 5 34 8t46 3q29 0 53.5 -7.5t43 -21t29 -32t10.5 -40.5q0 -26 -12 -46t-30 -30q14 -3 27 -12t23.5 -21.5t17 -27.5t6.5 -31z" />
    <glyph glyph-name="acute" unicode="&#xb4;" 
d="M368 572q-51 -36 -97.5 -54.5t-102.5 -32.5l-81 81q30 8 63.5 21t66.5 30t64 38t57 46z" />
    <glyph glyph-name="mu" unicode="&#xb5;" horiz-adv-x="550" 
d="M257 29q-25 11 -38 27t-22 34l-129 271v-332h189zM482 384h-384l241 -170q-44 -17 -67.5 -46.5t-23.5 -55.5q0 -32 14.5 -51t37.5 -32h182v355zM39 0v453h472v-453h-472z" />
    <glyph glyph-name="mu" unicode="&#x3bc;" horiz-adv-x="550" 
d="M257 29q-25 11 -38 27t-22 34l-129 271v-332h189zM482 384h-384l241 -170q-44 -17 -67.5 -46.5t-23.5 -55.5q0 -32 14.5 -51t37.5 -32h182v355zM39 0v453h472v-453h-472z" />
    <glyph glyph-name="paragraph" unicode="&#xb6;" horiz-adv-x="567" 
d="M465 472v-476q0 -106 -56 -168t-153 -73l-68 143q42 7 58 33.5t16 77.5v197h-7q-44 0 -86 16t-74.5 45t-52 69t-19.5 88t19.5 88t52 69.5t74.5 45.5t86 16h294v-171h-84z" />
    <glyph glyph-name="periodcentered" unicode="&#xb7;" horiz-adv-x="244" 
d="M227 271q0 -13 -11.5 -31t-28 -34.5t-34.5 -28t-31 -11.5t-31 11.5t-34.5 28t-28 34.5t-11.5 31q0 12 11.5 30t28 34.5t34.5 28t31 11.5t31 -11.5t34.5 -28t28 -34.5t11.5 -30z" />
    <glyph glyph-name="periodcentered" unicode="&#x2219;" horiz-adv-x="244" 
d="M227 271q0 -13 -11.5 -31t-28 -34.5t-34.5 -28t-31 -11.5t-31 11.5t-34.5 28t-28 34.5t-11.5 31q0 12 11.5 30t28 34.5t34.5 28t31 11.5t31 -11.5t34.5 -28t28 -34.5t11.5 -30z" />
    <glyph glyph-name="cedilla" unicode="&#xb8;" 
d="M313 -134q0 -28 -10 -48.5t-27 -34.5t-39 -21t-46 -7q-29 0 -46.5 4.5t-31.5 13.5l9 80q14 -11 29 -14.5t31 -3.5q19 0 27.5 8.5t8.5 22.5q0 30 -37 30q-8 0 -16 -0.5t-21 -2.5l13 107h64l-3 -26q19 -2 36.5 -10.5t30.5 -22.5t20.5 -33.5t7.5 -41.5z" />
    <glyph glyph-name="onesuperior" unicode="&#xb9;" horiz-adv-x="226" 
d="M60 241v283l-52 -4l5 111l181 15v-405h-134z" />
    <glyph glyph-name="ordmasculine" unicode="&#xba;" horiz-adv-x="455" 
d="M277 462q0 24 -14.5 41.5t-34.5 17.5t-34 -17.5t-14 -41.5t14 -42t34 -18t34.5 18t14.5 42zM309 137q0 -9 -9 -23t-22 -27t-27 -22t-23 -9t-22.5 9t-25.5 22t-20.5 27t-8.5 23t8.5 23t20.5 27t25.5 22t22.5 9t23 -9t27 -22t22 -27t9 -23zM431 462q0 -43 -16 -79.5
t-44 -62t-65 -40t-78 -14.5q-42 0 -78.5 14.5t-64 40t-43.5 62t-16 79.5t16 78.5t43.5 61.5t64 40.5t78.5 14.5q41 0 78 -14.5t65 -40.5t44 -61.5t16 -78.5z" />
    <glyph glyph-name="guillemotright" unicode="&#xbb;" horiz-adv-x="545" 
d="M306 277q-59 -38 -107 -89t-84 -110l-94 94q13 29 35.5 58.5t39.5 46.5q-17 17 -39.5 46.5t-35.5 58.5l94 94q36 -59 84 -110t107 -89zM560 277q-58 -38 -106.5 -89t-84.5 -110l-93 94q13 29 35 58.5t40 46.5q-18 17 -40 46.5t-35 58.5l93 94q36 -59 84.5 -110t106.5 -89
z" />
    <glyph glyph-name="onequarter" unicode="&#xbc;" horiz-adv-x="724" 
d="M558 278q-4 -10 -8.5 -19t-8.5 -14l-44 -59h59v61q0 12 5 30zM60 241v283l-52 -4l5 111l181 15v-405h-134zM149 -12l-79 62l487 601l78 -61zM681 94v-94h-125v94h-162l-14 87l167 216h134v-211h41v-92h-41z" />
    <glyph glyph-name="onehalf" unicode="&#xbd;" horiz-adv-x="792" 
d="M60 241v283l-52 -4l5 111l181 15v-405h-134zM149 -12l-79 62l487 601l78 -61zM480 0v37q24 21 50.5 50t48.5 58t36.5 56t14.5 44q0 19 -12 31t-32 12q-19 0 -39 -4.5t-35 -12.5l-5 113q22 9 49 15t53 6q36 0 66.5 -9.5t53 -29t35 -48t12.5 -67.5q0 -18 -7 -38t-18 -39.5
t-24.5 -36.5t-27.5 -30h93v-107h-312z" />
    <glyph glyph-name="threequarters" unicode="&#xbe;" horiz-adv-x="753" 
d="M587 278q-4 -10 -8.5 -19t-8.5 -14l-44 -59h59v61q0 12 5 30zM278 377q0 -40 -14 -67.5t-38 -44.5t-55.5 -24t-66.5 -7q-8 0 -18.5 1t-21 2.5t-20 3.5t-15.5 5l-4 107q14 -8 28 -9.5t37 -1.5q16 0 30 6.5t14 20.5q0 24 -31 24q-5 0 -12 -1t-16 -3l-1 96q13 5 21 11.5
t8 15.5q0 8 -5.5 13t-19.5 5q-11 0 -22.5 -3t-19.5 -8l-6 116q16 5 34 8t46 3q29 0 53.5 -7.5t43 -21t29 -32t10.5 -40.5q0 -26 -12 -46t-30 -30q14 -3 27 -12t23.5 -21.5t17 -27.5t6.5 -31zM178 -12l-79 62l487 601l78 -61zM710 94v-94h-125v94h-162l-14 87l167 216h134
v-211h41v-92h-41z" />
    <glyph glyph-name="questiondown" unicode="&#xbf;" horiz-adv-x="419" 
d="M397 -18q-29 -20 -67.5 -32t-81.5 -12q-52 0 -92.5 15t-68.5 41t-42.5 60.5t-14.5 74.5q0 25 5 46.5t16 44t28.5 46.5t42.5 54q18 21 25.5 41.5t7.5 38.5q0 5 -0.5 8t-1.5 8l164 -33q3 -11 5 -23t2 -22q0 -17 -3 -32t-10.5 -31t-20.5 -34t-33 -42q-12 -14 -19.5 -28.5
t-7.5 -31.5q0 -14 10.5 -23.5t30.5 -9.5q32 0 63.5 14t57.5 33zM338 551q0 -12 -11.5 -30t-28 -34.5t-34.5 -28t-31 -11.5t-31 11.5t-34.5 28t-28 34.5t-11.5 30q0 13 11.5 31t28 34.5t34.5 28t31 11.5t31 -11.5t34.5 -28t28 -34.5t11.5 -31z" />
    <glyph glyph-name="Agrave" unicode="&#xc0;" horiz-adv-x="639" 
d="M326 358q-4 11 -7.5 24t-5.5 27h-2q-2 -14 -5.5 -27t-6.5 -24l-29 -99h85zM428 0l-30 100h-171l-30 -100h-197l230 638h179l230 -638h-211zM346 685q-57 14 -103 32.5t-97 54.5l30 129q26 -25 57 -46t64 -38t66.5 -30t63.5 -21z" />
    <glyph glyph-name="Aacute" unicode="&#xc1;" horiz-adv-x="639" 
d="M326 358q-4 11 -7.5 24t-5.5 27h-2q-2 -14 -5.5 -27t-6.5 -24l-29 -99h85zM428 0l-30 100h-171l-30 -100h-197l230 638h179l230 -638h-211zM493 772q-51 -36 -97.5 -54.5t-102.5 -32.5l-81 81q30 8 63.5 21t66.5 30t64 38t57 46z" />
    <glyph glyph-name="Acircumflex" unicode="&#xc2;" horiz-adv-x="639" 
d="M326 358q-4 11 -7.5 24t-5.5 27h-2q-2 -14 -5.5 -27t-6.5 -24l-29 -99h85zM428 0l-30 100h-171l-30 -100h-197l230 638h179l230 -638h-211zM406 685q-24 11 -45.5 25t-44.5 37q-22 -22 -44 -36.5t-46 -25.5l-77 77q40 19 86 55.5t81 90.5q35 -54 81 -90.5t86 -55.5z" />
    <glyph glyph-name="Atilde" unicode="&#xc3;" horiz-adv-x="639" 
d="M326 358q-4 11 -7.5 24t-5.5 27h-2q-2 -14 -5.5 -27t-6.5 -24l-29 -99h85zM428 0l-30 100h-171l-30 -100h-197l230 638h179l230 -638h-211zM478 746q-43 -28 -83 -42t-93 -19l-8 76q-37 -6 -76.5 -21t-76.5 -38l31 127q43 28 83 42.5t93 18.5l8 -76q38 7 77.5 22.5
t75.5 36.5z" />
    <glyph glyph-name="Adieresis" unicode="&#xc4;" horiz-adv-x="639" 
d="M326 358q-4 11 -7.5 24t-5.5 27h-2q-2 -14 -5.5 -27t-6.5 -24l-29 -99h85zM428 0l-30 100h-171l-30 -100h-197l230 638h179l230 -638h-211zM297 766q0 -9 -9 -23t-22 -27t-27 -22t-23 -9t-23 9t-27 22t-22 27t-9 23t9 23t22 27t27 22t23 9t23 -9t27 -22t22 -27t9 -23z
M503 766q0 -9 -9 -23t-22 -27t-27 -22t-23 -9t-23 9t-27 22t-22 27t-9 23t9 23t22 27t27 22t23 9t23 -9t27 -22t22 -27t9 -23z" />
    <glyph glyph-name="Aring" unicode="&#xc5;" horiz-adv-x="639" 
d="M326 358q-4 11 -7.5 24t-5.5 27h-2q-2 -14 -5.5 -27t-6.5 -24l-29 -99h85zM428 0l-30 100h-171l-30 -100h-197l230 638h179l230 -638h-211zM384 801q0 28 -18 46t-46 18t-46 -18t-18 -46t18 -46t46 -18t46 18t18 46zM457 801q0 -28 -11 -53t-29.5 -43.5t-43.5 -29
t-53 -10.5t-53 10.5t-43.5 29t-29.5 43.5t-11 53t11 53t29.5 43.5t43.5 29t53 10.5t53 -10.5t43.5 -29t29.5 -43.5t11 -53z" />
    <glyph glyph-name="AE" unicode="&#xc6;" horiz-adv-x="846" 
d="M431 457q-5 -19 -11 -34.5t-14 -31.5l-61 -128h83v129q0 14 1.5 31.5t3.5 33.5h-2zM428 0v100h-163l-56 -100h-209l370 638h436v-171h-188v-60h148v-176h-148v-60h208v-171h-398z" />
    <glyph glyph-name="Ccedilla" unicode="&#xc7;" horiz-adv-x="585" 
d="M550 433q-26 17 -57.5 27t-85.5 10q-40 0 -70 -13t-50 -34.5t-30 -48.5t-10 -55t10.5 -55t32 -48.5t53.5 -34.5t75 -13q46 0 80 10t57 27l-6 -186q-23 -16 -66 -26t-95 -11l-1 -9q19 -2 36.5 -10t30.5 -22.5t20.5 -33.5t7.5 -41q0 -28 -10 -48.5t-27 -34.5t-39 -21
t-46 -7q-29 0 -46.5 4.5t-31.5 13.5l9 80q14 -11 29 -14.5t31 -3.5q19 0 27.5 8.5t8.5 22.5q0 30 -37 30q-8 0 -16 -0.5t-21 -2.5l12 93q-58 8 -111 33.5t-94 67.5t-65.5 100t-24.5 132q0 82 30.5 145t80 105.5t112.5 64.5t128 22q54 0 100 -10t75 -27z" />
    <glyph glyph-name="Egrave" unicode="&#xc8;" horiz-adv-x="486" 
d="M45 0v638h401v-171h-188v-60h148v-176h-148v-60h208v-171h-421zM277 685q-57 14 -103 32.5t-97 54.5l30 129q26 -25 57 -46t64 -38t66.5 -30t63.5 -21z" />
    <glyph glyph-name="Eacute" unicode="&#xc9;" horiz-adv-x="486" 
d="M45 0v638h401v-171h-188v-60h148v-176h-148v-60h208v-171h-421zM423 772q-51 -36 -97.5 -54.5t-102.5 -32.5l-81 81q30 8 63.5 21t66.5 30t64 38t57 46z" />
    <glyph glyph-name="Ecircumflex" unicode="&#xca;" horiz-adv-x="486" 
d="M45 0v638h401v-171h-188v-60h148v-176h-148v-60h208v-171h-421zM344 685q-24 11 -45.5 25t-44.5 37q-22 -22 -44 -36.5t-46 -25.5l-77 77q40 19 86 55.5t81 90.5q35 -54 81 -90.5t86 -55.5z" />
    <glyph glyph-name="Edieresis" unicode="&#xcb;" horiz-adv-x="486" 
d="M45 0v638h401v-171h-188v-60h148v-176h-148v-60h208v-171h-421zM230 766q0 -9 -9 -23t-22 -27t-27 -22t-23 -9t-23 9t-27 22t-22 27t-9 23t9 23t22 27t27 22t23 9t23 -9t27 -22t22 -27t9 -23zM436 766q0 -9 -9 -23t-22 -27t-27 -22t-23 -9t-23 9t-27 22t-22 27t-9 23
t9 23t22 27t27 22t23 9t23 -9t27 -22t22 -27t9 -23z" />
    <glyph glyph-name="Igrave" unicode="&#xcc;" horiz-adv-x="313" 
d="M50 0v638h213v-638h-213zM202 685q-57 14 -103 32.5t-97 54.5l30 129q26 -25 57 -46t64 -38t66.5 -30t63.5 -21z" />
    <glyph glyph-name="Iacute" unicode="&#xcd;" horiz-adv-x="313" 
d="M50 0v638h213v-638h-213zM313 772q-51 -36 -97.5 -54.5t-102.5 -32.5l-81 81q30 8 63.5 21t66.5 30t64 38t57 46z" />
    <glyph glyph-name="Icircumflex" unicode="&#xce;" horiz-adv-x="313" 
d="M50 0v638h213v-638h-213zM247 685q-24 11 -45.5 25t-44.5 37q-22 -22 -44 -36.5t-46 -25.5l-77 77q40 19 86 55.5t81 90.5q35 -54 81 -90.5t86 -55.5z" />
    <glyph glyph-name="Idieresis" unicode="&#xcf;" horiz-adv-x="313" 
d="M50 0v638h213v-638h-213zM135 766q0 -9 -9 -23t-22 -27t-27 -22t-23 -9t-23 9t-27 22t-22 27t-9 23t9 23t22 27t27 22t23 9t23 -9t27 -22t22 -27t9 -23zM341 766q0 -9 -9 -23t-22 -27t-27 -22t-23 -9t-23 9t-27 22t-22 27t-9 23t9 23t22 27t27 22t23 9t23 -9t27 -22
t22 -27t9 -23z" />
    <glyph glyph-name="Eth" unicode="&#xd0;" horiz-adv-x="681" 
d="M438 319q0 32 -12 57.5t-32 42.5t-46 26t-55 9h-13v-65h76l-20 -146h-56v-59h13q29 0 55 9t46 26.5t32 42.5t12 57zM651 319q0 -72 -26.5 -130.5t-72 -100.5t-107.5 -65t-133 -23h-235v243h-70v146h70v249h235q71 0 133 -23t107.5 -65t72 -100.5t26.5 -130.5z" />
    <glyph glyph-name="Ntilde" unicode="&#xd1;" horiz-adv-x="716" 
d="M543 0l-195 217q-26 28 -49.5 57.5t-42.5 54.5l-2 -1q2 -24 3 -54t1 -55v-219h-213v638h184l157 -176q18 -20 39 -45.5t35 -45.5l2 1q-2 21 -3 42t-1 46v178h213v-638h-128zM505 746q-43 -28 -83 -42t-93 -19l-8 76q-37 -6 -76.5 -21t-76.5 -38l31 127q43 28 83 42.5
t93 18.5l8 -76q38 7 77.5 22.5t75.5 36.5z" />
    <glyph glyph-name="Ograve" unicode="&#xd2;" horiz-adv-x="758" 
d="M511 319q0 30 -10 57t-28 47t-42 32t-52 12t-52 -12t-42 -32t-28 -47t-10 -57t10 -56.5t28 -46.5t42 -31.5t52 -11.5t52 11.5t42 31.5t28 46.5t10 56.5zM728 319q0 -76 -29 -138.5t-77 -106.5t-111 -68t-132 -24t-132 24t-111 68t-77 106.5t-29 138.5q0 77 29 139t77 106
t111 68t132 24t132 -24t111 -68t77 -106t29 -139zM402 685q-57 14 -103 32.5t-97 54.5l30 129q26 -25 57 -46t64 -38t66.5 -30t63.5 -21z" />
    <glyph glyph-name="Oacute" unicode="&#xd3;" horiz-adv-x="758" 
d="M511 319q0 30 -10 57t-28 47t-42 32t-52 12t-52 -12t-42 -32t-28 -47t-10 -57t10 -56.5t28 -46.5t42 -31.5t52 -11.5t52 11.5t42 31.5t28 46.5t10 56.5zM728 319q0 -76 -29 -138.5t-77 -106.5t-111 -68t-132 -24t-132 24t-111 68t-77 106.5t-29 138.5q0 77 29 139t77 106
t111 68t132 24t132 -24t111 -68t77 -106t29 -139zM548 772q-51 -36 -97.5 -54.5t-102.5 -32.5l-81 81q30 8 63.5 21t66.5 30t64 38t57 46z" />
    <glyph glyph-name="Ocircumflex" unicode="&#xd4;" horiz-adv-x="758" 
d="M511 319q0 30 -10 57t-28 47t-42 32t-52 12t-52 -12t-42 -32t-28 -47t-10 -57t10 -56.5t28 -46.5t42 -31.5t52 -11.5t52 11.5t42 31.5t28 46.5t10 56.5zM728 319q0 -76 -29 -138.5t-77 -106.5t-111 -68t-132 -24t-132 24t-111 68t-77 106.5t-29 138.5q0 77 29 139t77 106
t111 68t132 24t132 -24t111 -68t77 -106t29 -139zM470 685q-24 11 -45.5 25t-44.5 37q-22 -22 -44 -36.5t-46 -25.5l-77 77q40 19 86 55.5t81 90.5q35 -54 81 -90.5t86 -55.5z" />
    <glyph glyph-name="Otilde" unicode="&#xd5;" horiz-adv-x="758" 
d="M511 319q0 30 -10 57t-28 47t-42 32t-52 12t-52 -12t-42 -32t-28 -47t-10 -57t10 -56.5t28 -46.5t42 -31.5t52 -11.5t52 11.5t42 31.5t28 46.5t10 56.5zM728 319q0 -76 -29 -138.5t-77 -106.5t-111 -68t-132 -24t-132 24t-111 68t-77 106.5t-29 138.5q0 77 29 139t77 106
t111 68t132 24t132 -24t111 -68t77 -106t29 -139zM520 746q-43 -28 -83 -42t-93 -19l-8 76q-37 -6 -76.5 -21t-76.5 -38l31 127q43 28 83 42.5t93 18.5l8 -76q38 7 77.5 22.5t75.5 36.5z" />
    <glyph glyph-name="Odieresis" unicode="&#xd6;" horiz-adv-x="758" 
d="M511 319q0 30 -10 57t-28 47t-42 32t-52 12t-52 -12t-42 -32t-28 -47t-10 -57t10 -56.5t28 -46.5t42 -31.5t52 -11.5t52 11.5t42 31.5t28 46.5t10 56.5zM728 319q0 -76 -29 -138.5t-77 -106.5t-111 -68t-132 -24t-132 24t-111 68t-77 106.5t-29 138.5q0 77 29 139t77 106
t111 68t132 24t132 -24t111 -68t77 -106t29 -139zM355 766q0 -9 -9 -23t-22 -27t-27 -22t-23 -9t-23 9t-27 22t-22 27t-9 23t9 23t22 27t27 22t23 9t23 -9t27 -22t22 -27t9 -23zM561 766q0 -9 -9 -23t-22 -27t-27 -22t-23 -9t-23 9t-27 22t-22 27t-9 23t9 23t22 27t27 22
t23 9t23 -9t27 -22t22 -27t9 -23z" />
    <glyph glyph-name="multiply" unicode="&#xd7;" horiz-adv-x="410" 
d="M287 83l-82 82l-82 -82l-110 110l82 82l-82 82l110 110l82 -82l82 82l110 -110l-82 -82l82 -82z" />
    <glyph glyph-name="Oslash" unicode="&#xd8;" horiz-adv-x="758" 
d="M437 467q-27 12 -58 12q-32 0 -60.5 -13t-50 -35t-34 -51t-12.5 -61q0 -48 26 -86zM536 319q0 24 -7 45.5t-19 41.5l-188 -233q28 -11 57 -11q32 0 60.5 12.5t50 34t34 50t12.5 60.5zM728 319q0 -76 -29 -138.5t-77 -106.5t-111 -68t-132 -24q-47 0 -91.5 11t-83.5 33
l-48 -59l-74 62l44 54q-45 45 -70.5 104.5t-25.5 131.5q0 77 29 139t77 106t111 68t132 24q47 0 91.5 -11t83.5 -33l48 59l73 -61l-44 -54q45 -45 71 -104t26 -133z" />
    <glyph glyph-name="Ugrave" unicode="&#xd9;" horiz-adv-x="676" 
d="M631 232q0 -59 -24 -105.5t-64 -78t-93 -48t-112 -16.5q-58 0 -111.5 16.5t-93.5 48t-64 78t-24 105.5v406h213v-388q0 -21 8 -36t20 -24.5t26.5 -14t27.5 -4.5q14 0 28.5 4.5t26.5 13.5t19.5 24t7.5 36v389h209v-406zM351 685q-57 14 -103 32.5t-97 54.5l30 129
q26 -25 57 -46t64 -38t66.5 -30t63.5 -21z" />
    <glyph glyph-name="Uacute" unicode="&#xda;" horiz-adv-x="676" 
d="M631 232q0 -59 -24 -105.5t-64 -78t-93 -48t-112 -16.5q-58 0 -111.5 16.5t-93.5 48t-64 78t-24 105.5v406h213v-388q0 -21 8 -36t20 -24.5t26.5 -14t27.5 -4.5q14 0 28.5 4.5t26.5 13.5t19.5 24t7.5 36v389h209v-406zM530 772q-51 -36 -97.5 -54.5t-102.5 -32.5l-81 81
q30 8 63.5 21t66.5 30t64 38t57 46z" />
    <glyph glyph-name="Ucircumflex" unicode="&#xdb;" horiz-adv-x="676" 
d="M631 232q0 -59 -24 -105.5t-64 -78t-93 -48t-112 -16.5q-58 0 -111.5 16.5t-93.5 48t-64 78t-24 105.5v406h213v-388q0 -21 8 -36t20 -24.5t26.5 -14t27.5 -4.5q14 0 28.5 4.5t26.5 13.5t19.5 24t7.5 36v389h209v-406zM429 685q-24 11 -45.5 25t-44.5 37
q-22 -22 -44 -36.5t-46 -25.5l-77 77q40 19 86 55.5t81 90.5q35 -54 81 -90.5t86 -55.5z" />
    <glyph glyph-name="Udieresis" unicode="&#xdc;" horiz-adv-x="676" 
d="M631 232q0 -59 -24 -105.5t-64 -78t-93 -48t-112 -16.5q-58 0 -111.5 16.5t-93.5 48t-64 78t-24 105.5v406h213v-388q0 -21 8 -36t20 -24.5t26.5 -14t27.5 -4.5q14 0 28.5 4.5t26.5 13.5t19.5 24t7.5 36v389h209v-406zM318 766q0 -9 -9 -23t-22 -27t-27 -22t-23 -9t-23 9
t-27 22t-22 27t-9 23t9 23t22 27t27 22t23 9t23 -9t27 -22t22 -27t9 -23zM524 766q0 -9 -9 -23t-22 -27t-27 -22t-23 -9t-23 9t-27 22t-22 27t-9 23t9 23t22 27t27 22t23 9t23 -9t27 -22t22 -27t9 -23z" />
    <glyph glyph-name="Yacute" unicode="&#xdd;" horiz-adv-x="643" 
d="M423 276v-276h-205v269l-233 369h226l82 -127q8 -12 16.5 -29t15.5 -34h2q7 17 16 34.5t17 28.5l82 127h211zM509 772q-51 -36 -97.5 -54.5t-102.5 -32.5l-81 81q30 8 63.5 21t66.5 30t64 38t57 46z" />
    <glyph glyph-name="Thorn" unicode="&#xde;" horiz-adv-x="556" 
d="M343 356q0 23 -16 34.5t-33 11.5h-46v-92h46q17 0 33 11.5t16 34.5zM542 356q0 -45 -16 -83t-45.5 -65.5t-70 -43.5t-88.5 -16h-74v-148h-203v638h203v-74h74q48 0 88.5 -16t70 -43.5t45.5 -65.5t16 -83z" />
    <glyph glyph-name="germandbls" unicode="&#xdf;" horiz-adv-x="646" 
d="M623 139q0 -31 -11 -59.5t-34.5 -50t-60 -34.5t-87.5 -13q-54 0 -93.5 11.5t-57.5 24.5v152q20 -17 55.5 -30.5t80.5 -13.5q23 0 23 12q0 8 -8.5 11.5t-30.5 11.5q-57 20 -92.5 60.5t-35.5 91.5q0 33 10 57t24.5 41t31.5 27.5t32 16.5q4 10 5 18.5t1 22.5q0 25 -19 43
t-45 18q-33 0 -53.5 -24.5t-20.5 -74.5v-458h-192v442q0 58 15.5 109.5t48 89.5t83.5 60.5t122 22.5q69 0 117.5 -22t79 -56t44.5 -75t14 -79q0 -48 -6 -79.5t-14 -54.5q-18 0 -35 -4t-31 -10t-22.5 -14t-8.5 -16q0 -7 8.5 -11t34.5 -11q64 -17 96 -59t32 -94z" />
    <glyph glyph-name="agrave" unicode="&#xe0;" horiz-adv-x="506" 
d="M236 504q-24 6 -45.5 12.5t-42 15t-40.5 20t-42 26.5l25 110q22 -21 48.5 -39t55 -32.5t57 -25.5t53.5 -18zM267 189l-38 -3q-24 -2 -34 -16.5t-10 -31.5q0 -14 9.5 -23t26.5 -9q20 0 33 12t13 29v42zM450 -18q-41 0 -70.5 10t-49.5 35q-23 -21 -57 -33t-71 -12
q-35 0 -67 9.5t-56.5 29t-39 49.5t-14.5 71q0 60 41.5 100.5t115.5 48.5l77 8v5q0 14 -13.5 20t-43.5 6q-44 0 -82 -8t-58 -19l-5 143q11 5 28.5 9.5t38.5 8.5t44 6t45 2q110 0 170 -52t60 -147v-86q0 -60 53 -66z" />
    <glyph glyph-name="aacute" unicode="&#xe1;" horiz-adv-x="506" 
d="M357 578q-43 -31 -82.5 -46.5t-87.5 -27.5l-69 69q26 7 54 18t56 25.5t54.5 32.5t48.5 39zM267 189l-38 -3q-24 -2 -34 -16.5t-10 -31.5q0 -14 9.5 -23t26.5 -9q20 0 33 12t13 29v42zM450 -18q-41 0 -70.5 10t-49.5 35q-23 -21 -57 -33t-71 -12q-35 0 -67 9.5t-56.5 29
t-39 49.5t-14.5 71q0 60 41.5 100.5t115.5 48.5l77 8v5q0 14 -13.5 20t-43.5 6q-44 0 -82 -8t-58 -19l-5 143q11 5 28.5 9.5t38.5 8.5t44 6t45 2q110 0 170 -52t60 -147v-86q0 -60 53 -66z" />
    <glyph glyph-name="acircumflex" unicode="&#xe2;" horiz-adv-x="506" 
d="M312 504q-20 10 -38.5 21.5t-37.5 31.5q-19 -19 -37.5 -31t-39.5 -22l-65 66q34 16 73.5 47t68.5 77q29 -46 68.5 -77t73.5 -47zM267 189l-38 -3q-24 -2 -34 -16.5t-10 -31.5q0 -14 9.5 -23t26.5 -9q20 0 33 12t13 29v42zM450 -18q-41 0 -70.5 10t-49.5 35
q-23 -21 -57 -33t-71 -12q-35 0 -67 9.5t-56.5 29t-39 49.5t-14.5 71q0 60 41.5 100.5t115.5 48.5l77 8v5q0 14 -13.5 20t-43.5 6q-44 0 -82 -8t-58 -19l-5 143q11 5 28.5 9.5t38.5 8.5t44 6t45 2q110 0 170 -52t60 -147v-86q0 -60 53 -66z" />
    <glyph glyph-name="atilde" unicode="&#xe3;" horiz-adv-x="506" 
d="M376 556q-36 -23 -70 -35.5t-79 -16.5l-7 65q-32 -5 -65.5 -17.5t-64.5 -32.5l26 108q37 23 70.5 35t79.5 16l7 -64q32 6 65.5 19t64.5 31zM267 189l-38 -3q-24 -2 -34 -16.5t-10 -31.5q0 -14 9.5 -23t26.5 -9q20 0 33 12t13 29v42zM450 -18q-41 0 -70.5 10t-49.5 35
q-23 -21 -57 -33t-71 -12q-35 0 -67 9.5t-56.5 29t-39 49.5t-14.5 71q0 60 41.5 100.5t115.5 48.5l77 8v5q0 14 -13.5 20t-43.5 6q-44 0 -82 -8t-58 -19l-5 143q11 5 28.5 9.5t38.5 8.5t44 6t45 2q110 0 170 -52t60 -147v-86q0 -60 53 -66z" />
    <glyph glyph-name="adieresis" unicode="&#xe4;" horiz-adv-x="506" 
d="M217 573q0 -8 -8 -19.5t-19 -22.5t-22.5 -19t-19.5 -8t-19.5 8t-22.5 19t-19 22.5t-8 19.5t8 19.5t19 22.5t22.5 19t19.5 8t19.5 -8t22.5 -19t19 -22.5t8 -19.5zM392 573q0 -8 -8 -19.5t-19 -22.5t-22.5 -19t-19.5 -8t-19.5 8t-22.5 19t-19 22.5t-8 19.5t8 19.5t19 22.5
t22.5 19t19.5 8t19.5 -8t22.5 -19t19 -22.5t8 -19.5zM267 189l-38 -3q-24 -2 -34 -16.5t-10 -31.5q0 -14 9.5 -23t26.5 -9q20 0 33 12t13 29v42zM450 -18q-41 0 -70.5 10t-49.5 35q-23 -21 -57 -33t-71 -12q-35 0 -67 9.5t-56.5 29t-39 49.5t-14.5 71q0 60 41.5 100.5
t115.5 48.5l77 8v5q0 14 -13.5 20t-43.5 6q-44 0 -82 -8t-58 -19l-5 143q11 5 28.5 9.5t38.5 8.5t44 6t45 2q110 0 170 -52t60 -147v-86q0 -60 53 -66z" />
    <glyph glyph-name="aring" unicode="&#xe5;" horiz-adv-x="506" 
d="M284 603q0 23 -15.5 38.5t-39.5 15.5q-23 0 -38.5 -15.5t-15.5 -38.5q0 -24 15.5 -39.5t38.5 -15.5q24 0 39.5 15.5t15.5 39.5zM346 603q0 -24 -9.5 -45t-25 -37t-37 -25t-45.5 -9t-45 9t-36.5 25t-25 37t-9.5 45t9.5 45t25 36.5t36.5 24.5t45 9t45.5 -9t37 -24.5
t25 -36.5t9.5 -45zM267 189l-38 -3q-24 -2 -34 -16.5t-10 -31.5q0 -14 9.5 -23t26.5 -9q20 0 33 12t13 29v42zM450 -18q-41 0 -70.5 10t-49.5 35q-23 -21 -57 -33t-71 -12q-35 0 -67 9.5t-56.5 29t-39 49.5t-14.5 71q0 60 41.5 100.5t115.5 48.5l77 8v5q0 14 -13.5 20
t-43.5 6q-44 0 -82 -8t-58 -19l-5 143q11 5 28.5 9.5t38.5 8.5t44 6t45 2q110 0 170 -52t60 -147v-86q0 -60 53 -66z" />
    <glyph glyph-name="ae" unicode="&#xe6;" horiz-adv-x="744" 
d="M267 189l-38 -3q-24 -2 -34 -16.5t-10 -31.5q0 -14 9.5 -23t26.5 -9q20 0 33 12t13 29v42zM552 286q0 22 -12.5 34.5t-32.5 12.5q-26 0 -40 -15.5t-21 -39.5h105q0 2 0.5 4t0.5 4zM719 283q0 -12 -1.5 -26t-4.5 -25l-65 -65h-188q13 -20 39.5 -31.5t74.5 -11.5q35 0 62 5
t54 16l-5 -140q-23 -10 -57 -16.5t-79 -6.5q-110 0 -185 49q-30 -27 -71.5 -38t-86.5 -11q-35 0 -67.5 9.5t-58 29t-40.5 49.5t-15 71q0 60 41.5 100.5t115.5 48.5l77 8v5q0 14 -13.5 20t-43.5 6q-44 0 -82 -8t-58 -19l-5 143q11 5 28.5 9.5t38.5 8.5t44 6t45 2
q47 0 86.5 -10t68.5 -30q60 40 143 40q47 0 85.5 -15t65.5 -41t42 -60t15 -72z" />
    <glyph glyph-name="ccedilla" unicode="&#xe7;" horiz-adv-x="458" 
d="M416 265q-21 11 -47 18t-55 7q-40 0 -62 -17.5t-22 -47.5q0 -29 26 -47t69 -18q29 0 52 6t43 17l-5 -173q-18 -11 -49.5 -18.5t-71.5 -9.5l-1 -9q33 -2 57 -28t24 -64q0 -24 -8.5 -41.5t-23 -29t-33.5 -17.5t-39 -6q-25 0 -40 3.5t-26 11.5l8 68q12 -9 24.5 -12t26.5 -3
q16 0 23 7.5t7 18.5q0 26 -31 26q-7 0 -14 -0.5t-18 -2.5l10 81q-46 6 -85 26t-68 51t-45.5 72.5t-16.5 91.5q0 57 20 102.5t54.5 77t80.5 48.5t98 17q45 0 82 -8t61 -22z" />
    <glyph glyph-name="egrave" unicode="&#xe8;" horiz-adv-x="502" 
d="M285 504q-49 12 -88 27.5t-82 46.5l25 110q22 -21 48.5 -39t54.5 -32.5t56.5 -25.5t53.5 -18zM310 286q0 22 -12.5 34.5t-32.5 12.5q-26 0 -40 -15.5t-21 -39.5h105q0 2 0.5 4t0.5 4zM477 283q0 -12 -1.5 -26t-4.5 -25l-65 -65h-188q13 -20 39.5 -33.5t71.5 -13.5
q35 0 63.5 6.5t55.5 18.5l-5 -140q-23 -10 -57 -16.5t-79 -6.5q-61 0 -113 17.5t-89.5 49.5t-58.5 78.5t-21 103.5q0 53 17.5 97t50 76t77.5 49.5t99 17.5q48 0 86.5 -15t65.5 -41t41.5 -60t14.5 -72z" />
    <glyph glyph-name="eacute" unicode="&#xe9;" horiz-adv-x="502" 
d="M416 578q-43 -31 -82.5 -46.5t-87.5 -27.5l-69 69q26 7 54 18t56 25.5t54.5 32.5t48.5 39zM310 286q0 22 -12.5 34.5t-32.5 12.5q-26 0 -40 -15.5t-21 -39.5h105q0 2 0.5 4t0.5 4zM477 283q0 -12 -1.5 -26t-4.5 -25l-65 -65h-188q13 -20 39.5 -33.5t71.5 -13.5
q35 0 63.5 6.5t55.5 18.5l-5 -140q-23 -10 -57 -16.5t-79 -6.5q-61 0 -113 17.5t-89.5 49.5t-58.5 78.5t-21 103.5q0 53 17.5 97t50 76t77.5 49.5t99 17.5q48 0 86.5 -15t65.5 -41t41.5 -60t14.5 -72z" />
    <glyph glyph-name="ecircumflex" unicode="&#xea;" horiz-adv-x="502" 
d="M341 504q-20 10 -38.5 21.5t-37.5 31.5q-19 -19 -37.5 -31t-39.5 -22l-65 66q34 16 73.5 47t68.5 77q29 -46 68.5 -77t73.5 -47zM310 286q0 22 -12.5 34.5t-32.5 12.5q-26 0 -40 -15.5t-21 -39.5h105q0 2 0.5 4t0.5 4zM477 283q0 -12 -1.5 -26t-4.5 -25l-65 -65h-188
q13 -20 39.5 -33.5t71.5 -13.5q35 0 63.5 6.5t55.5 18.5l-5 -140q-23 -10 -57 -16.5t-79 -6.5q-61 0 -113 17.5t-89.5 49.5t-58.5 78.5t-21 103.5q0 53 17.5 97t50 76t77.5 49.5t99 17.5q48 0 86.5 -15t65.5 -41t41.5 -60t14.5 -72z" />
    <glyph glyph-name="edieresis" unicode="&#xeb;" horiz-adv-x="502" 
d="M245 573q0 -8 -8 -19.5t-19 -22.5t-22.5 -19t-19.5 -8t-19.5 8t-22.5 19t-19 22.5t-8 19.5t8 19.5t19 22.5t22.5 19t19.5 8t19.5 -8t22.5 -19t19 -22.5t8 -19.5zM420 573q0 -8 -8 -19.5t-19 -22.5t-22.5 -19t-19.5 -8t-19.5 8t-22.5 19t-19 22.5t-8 19.5t8 19.5t19 22.5
t22.5 19t19.5 8t19.5 -8t22.5 -19t19 -22.5t8 -19.5zM310 286q0 22 -12.5 34.5t-32.5 12.5q-26 0 -40 -15.5t-21 -39.5h105q0 2 0.5 4t0.5 4zM477 283q0 -12 -1.5 -26t-4.5 -25l-65 -65h-188q13 -20 39.5 -33.5t71.5 -13.5q35 0 63.5 6.5t55.5 18.5l-5 -140
q-23 -10 -57 -16.5t-79 -6.5q-61 0 -113 17.5t-89.5 49.5t-58.5 78.5t-21 103.5q0 53 17.5 97t50 76t77.5 49.5t99 17.5q48 0 86.5 -15t65.5 -41t41.5 -60t14.5 -72z" />
    <glyph glyph-name="igrave" unicode="&#xec;" horiz-adv-x="285" 
d="M171 504q-24 6 -45.5 12.5t-42 15t-40.5 20t-42 26.5l25 110q22 -21 48.5 -39t55 -32.5t57 -25.5t53.5 -18zM40 0v453h205v-453h-205z" />
    <glyph glyph-name="iacute" unicode="&#xed;" horiz-adv-x="285" 
d="M286 578q-43 -31 -82.5 -46.5t-87.5 -27.5l-69 69q26 7 54 18t56 25.5t54.5 32.5t48.5 39zM40 0v453h205v-453h-205z" />
    <glyph glyph-name="icircumflex" unicode="&#xee;" horiz-adv-x="285" 
d="M218 504q-20 10 -38.5 21.5t-37.5 31.5q-19 -19 -37.5 -31t-39.5 -22l-65 66q34 16 73.5 47t68.5 77q29 -46 68.5 -77t73.5 -47zM40 0v453h205v-453h-205z" />
    <glyph glyph-name="idieresis" unicode="&#xef;" horiz-adv-x="285" 
d="M123 573q0 -8 -8 -19.5t-19 -22.5t-22.5 -19t-19.5 -8t-19.5 8t-22.5 19t-19 22.5t-8 19.5t8 19.5t19 22.5t22.5 19t19.5 8t19.5 -8t22.5 -19t19 -22.5t8 -19.5zM298 573q0 -8 -8 -19.5t-19 -22.5t-22.5 -19t-19.5 -8t-19.5 8t-22.5 19t-19 22.5t-8 19.5t8 19.5t19 22.5
t22.5 19t19.5 8t19.5 -8t22.5 -19t19 -22.5t8 -19.5zM40 0v453h205v-453h-205z" />
    <glyph glyph-name="eth" unicode="&#xf0;" horiz-adv-x="550" 
d="M323 216q0 16 -8 34t-16 32q-17 -3 -30 -7t-28 -14q-10 -6 -17 -18.5t-7 -28.5q0 -23 15 -38.5t37 -15.5q26 0 40 16t14 40zM520 221q0 -51 -17 -95t-49 -76t-78.5 -50t-106.5 -18q-58 0 -103.5 18t-76.5 49.5t-47.5 73.5t-16.5 89q0 71 28 115t70 71q18 11 48.5 23.5
t60.5 20.5l-18 42l-70 -28l-55 135l69 28l-39 93h216l8 -19l46 19l55 -135l-45 -19l93 -223q11 -26 19.5 -57t8.5 -57z" />
    <glyph glyph-name="ntilde" unicode="&#xf1;" horiz-adv-x="548" 
d="M403 556q-36 -23 -70 -35.5t-79 -16.5l-7 65q-32 -5 -65.5 -17.5t-64.5 -32.5l26 108q37 23 70.5 35t79.5 16l7 -64q32 6 65.5 19t64.5 31zM310 0v249q0 14 -10.5 22t-22.5 8t-25.5 -7.5t-13.5 -27.5v-244h-203v453h178l4 -45q6 12 19.5 22.5t31.5 18.5t39 13t43 5
q75 0 119 -44t44 -119v-304h-203z" />
    <glyph glyph-name="ograve" unicode="&#xf2;" horiz-adv-x="556" 
d="M297 504q-24 6 -45.5 12.5t-42 15t-40.5 20t-42 26.5l25 110q22 -21 48.5 -39t55 -32.5t57 -25.5t53.5 -18zM339 227q0 30 -18 52t-43 22t-43 -22t-18 -52t18 -52t43 -22t43 22t18 52zM531 227q0 -54 -20.5 -99t-55 -77.5t-80.5 -50.5t-97 -18q-52 0 -98 18t-80.5 50.5
t-54.5 77.5t-20 99t20 98.5t54.5 77t80.5 50.5t98 18q51 0 97 -18t80.5 -50.5t55 -77t20.5 -98.5z" />
    <glyph glyph-name="oacute" unicode="&#xf3;" horiz-adv-x="556" 
d="M425 578q-43 -31 -82.5 -46.5t-87.5 -27.5l-69 69q26 7 54 18t56 25.5t54.5 32.5t48.5 39zM339 227q0 30 -18 52t-43 22t-43 -22t-18 -52t18 -52t43 -22t43 22t18 52zM531 227q0 -54 -20.5 -99t-55 -77.5t-80.5 -50.5t-97 -18q-52 0 -98 18t-80.5 50.5t-54.5 77.5t-20 99
t20 98.5t54.5 77t80.5 50.5t98 18q51 0 97 -18t80.5 -50.5t55 -77t20.5 -98.5z" />
    <glyph glyph-name="ocircumflex" unicode="&#xf4;" horiz-adv-x="556" 
d="M354 504q-20 10 -38.5 21.5t-37.5 31.5q-19 -19 -37.5 -31t-39.5 -22l-65 66q34 16 73.5 47t68.5 77q29 -46 68.5 -77t73.5 -47zM339 227q0 30 -18 52t-43 22t-43 -22t-18 -52t18 -52t43 -22t43 22t18 52zM531 227q0 -54 -20.5 -99t-55 -77.5t-80.5 -50.5t-97 -18
q-52 0 -98 18t-80.5 50.5t-54.5 77.5t-20 99t20 98.5t54.5 77t80.5 50.5t98 18q51 0 97 -18t80.5 -50.5t55 -77t20.5 -98.5z" />
    <glyph glyph-name="otilde" unicode="&#xf5;" horiz-adv-x="556" 
d="M410 556q-36 -23 -70 -35.5t-79 -16.5l-7 65q-32 -5 -65.5 -17.5t-64.5 -32.5l26 108q37 23 70.5 35t79.5 16l7 -64q32 6 65.5 19t64.5 31zM339 227q0 30 -18 52t-43 22t-43 -22t-18 -52t18 -52t43 -22t43 22t18 52zM531 227q0 -54 -20.5 -99t-55 -77.5t-80.5 -50.5
t-97 -18q-52 0 -98 18t-80.5 50.5t-54.5 77.5t-20 99t20 98.5t54.5 77t80.5 50.5t98 18q51 0 97 -18t80.5 -50.5t55 -77t20.5 -98.5z" />
    <glyph glyph-name="odieresis" unicode="&#xf6;" horiz-adv-x="556" 
d="M254 573q0 -8 -8 -19.5t-19 -22.5t-22.5 -19t-19.5 -8t-19.5 8t-22.5 19t-19 22.5t-8 19.5t8 19.5t19 22.5t22.5 19t19.5 8t19.5 -8t22.5 -19t19 -22.5t8 -19.5zM429 573q0 -8 -8 -19.5t-19 -22.5t-22.5 -19t-19.5 -8t-19.5 8t-22.5 19t-19 22.5t-8 19.5t8 19.5t19 22.5
t22.5 19t19.5 8t19.5 -8t22.5 -19t19 -22.5t8 -19.5zM339 227q0 30 -18 52t-43 22t-43 -22t-18 -52t18 -52t43 -22t43 22t18 52zM531 227q0 -54 -20.5 -99t-55 -77.5t-80.5 -50.5t-97 -18q-52 0 -98 18t-80.5 50.5t-54.5 77.5t-20 99t20 98.5t54.5 77t80.5 50.5t98 18
q51 0 97 -18t80.5 -50.5t55 -77t20.5 -98.5z" />
    <glyph glyph-name="divide" unicode="&#xf7;" horiz-adv-x="449" 
d="M307 78q0 -10 -9.5 -24t-22.5 -27t-27 -22.5t-24 -9.5t-24 9.5t-27 22.5t-22.5 27t-9.5 24t9.5 24t22.5 27t27 22.5t24 9.5t24 -9.5t27 -22.5t22.5 -27t9.5 -24zM25 202v146h399v-146h-399zM307 472q0 -10 -9.5 -24t-22.5 -27t-27 -22.5t-24 -9.5t-24 9.5t-27 22.5
t-22.5 27t-9.5 24t9.5 24t22.5 27t27 22.5t24 9.5t24 -9.5t27 -22.5t22.5 -27t9.5 -24z" />
    <glyph glyph-name="oslash" unicode="&#xf8;" horiz-adv-x="556" 
d="M307 322q-13 6 -29 6q-18 0 -34.5 -8t-29 -22t-20 -32t-7.5 -39t8 -42zM369 227q0 24 -9 43l-112 -138q14 -6 30 -6q18 0 34.5 8t29 22t20 32t7.5 39zM531 227q0 -54 -20.5 -99t-55 -77.5t-80.5 -50.5t-97 -18q-69 0 -126 31l-37 -45l-57 47l34 42q-32 32 -49.5 75.5
t-17.5 94.5q0 54 20 98.5t54.5 77t80.5 50.5t98 18q68 0 125 -31l36 45l57 -47l-34 -42q32 -32 50.5 -75t18.5 -94z" />
    <glyph glyph-name="ugrave" unicode="&#xf9;" horiz-adv-x="548" 
d="M291 504q-24 6 -45.5 12.5t-42 15t-40.5 20t-42 26.5l25 110q22 -21 48.5 -39t55 -32.5t57 -25.5t53.5 -18zM335 0l-4 45q-6 -12 -19.5 -22.5t-31.5 -18.5t-39 -13t-43 -5q-75 0 -119 44t-44 119v304h203v-249q0 -14 10.5 -22t22.5 -8t25.5 7.5t13.5 27.5v244h203v-453
h-178z" />
    <glyph glyph-name="uacute" unicode="&#xfa;" horiz-adv-x="548" 
d="M420 578q-43 -31 -82.5 -46.5t-87.5 -27.5l-69 69q26 7 54 18t56 25.5t54.5 32.5t48.5 39zM335 0l-4 45q-6 -12 -19.5 -22.5t-31.5 -18.5t-39 -13t-43 -5q-75 0 -119 44t-44 119v304h203v-249q0 -14 10.5 -22t22.5 -8t25.5 7.5t13.5 27.5v244h203v-453h-178z" />
    <glyph glyph-name="ucircumflex" unicode="&#xfb;" horiz-adv-x="548" 
d="M349 504q-20 10 -38.5 21.5t-37.5 31.5q-19 -19 -37.5 -31t-39.5 -22l-65 66q34 16 73.5 47t68.5 77q29 -46 68.5 -77t73.5 -47zM335 0l-4 45q-6 -12 -19.5 -22.5t-31.5 -18.5t-39 -13t-43 -5q-75 0 -119 44t-44 119v304h203v-249q0 -14 10.5 -22t22.5 -8t25.5 7.5
t13.5 27.5v244h203v-453h-178z" />
    <glyph glyph-name="udieresis" unicode="&#xfc;" horiz-adv-x="548" 
d="M257 573q0 -8 -8 -19.5t-19 -22.5t-22.5 -19t-19.5 -8t-19.5 8t-22.5 19t-19 22.5t-8 19.5t8 19.5t19 22.5t22.5 19t19.5 8t19.5 -8t22.5 -19t19 -22.5t8 -19.5zM432 573q0 -8 -8 -19.5t-19 -22.5t-22.5 -19t-19.5 -8t-19.5 8t-22.5 19t-19 22.5t-8 19.5t8 19.5t19 22.5
t22.5 19t19.5 8t19.5 -8t22.5 -19t19 -22.5t8 -19.5zM335 0l-4 45q-6 -12 -19.5 -22.5t-31.5 -18.5t-39 -13t-43 -5q-75 0 -119 44t-44 119v304h203v-249q0 -14 10.5 -22t22.5 -8t25.5 7.5t13.5 27.5v244h203v-453h-178z" />
    <glyph glyph-name="yacute" unicode="&#xfd;" horiz-adv-x="532" 
d="M423 578q-43 -31 -82.5 -46.5t-87.5 -27.5l-69 69q26 7 54 18t56 25.5t54.5 32.5t48.5 39zM376 33q-20 -56 -45 -104.5t-56 -85.5t-70 -60t-87 -28l-64 136q21 6 38 13.5t31 20.5t26 32.5t24 48.5l-168 447h196l50 -147q6 -17 10 -35t7 -39h2q4 21 7.5 38.5t9.5 35.5
l50 147h190z" />
    <glyph glyph-name="thorn" unicode="&#xfe;" horiz-adv-x="565" 
d="M349 223q0 28 -18 48t-47 20q-27 0 -50 -15v-106q18 -15 50 -15q29 0 47 20t18 48zM540 238q0 -59 -19 -106.5t-52.5 -80.5t-79 -51t-99.5 -18q-20 0 -33 2t-23 7v-222h-194v943h194v-258q15 7 33 10t38 3q45 0 87.5 -16.5t75 -47t52.5 -72.5t20 -93z" />
    <glyph glyph-name="ydieresis" unicode="&#xff;" horiz-adv-x="532" 
d="M249 570q0 -8 -7.5 -19.5t-18.5 -22.5t-22.5 -19t-19.5 -8t-20 8t-23 19t-18.5 22.5t-7.5 19.5t7.5 19.5t18.5 22.5t23 19t20 8t19.5 -8t22.5 -19t18.5 -22.5t7.5 -19.5zM425 570q0 -8 -8 -19.5t-19 -22.5t-22.5 -19t-19.5 -8t-20 8t-23 19t-18.5 22.5t-7.5 19.5
t7.5 19.5t18.5 22.5t23 19t20 8t19.5 -8t22.5 -19t19 -22.5t8 -19.5zM376 33q-20 -56 -45 -104.5t-56 -85.5t-70 -60t-87 -28l-64 136q21 6 38 13.5t31 20.5t26 32.5t24 48.5l-168 447h196l50 -147q6 -17 10 -35t7 -39h2q4 21 7.5 38.5t9.5 35.5l50 147h190z" />
    <glyph glyph-name="dotlessi" unicode="&#x131;" horiz-adv-x="285" 
d="M40 0v453h205v-453h-205z" />
    <glyph glyph-name="Lslash" unicode="&#x141;" horiz-adv-x="553" 
d="M96 0v201l-42 -24l-72 128l114 66v267h213v-145l76 44v-170l-76 -44v-139h231v-184h-444z" />
    <glyph glyph-name="lslash" unicode="&#x142;" horiz-adv-x="384" 
d="M293 315v-124q0 -33 13.5 -48t38.5 -22l-69 -143q-35 0 -67.5 14.5t-58 41t-41 64.5t-15.5 84v19l-42 -24l-72 128l114 66v341h199v-227l72 42v-170z" />
    <glyph glyph-name="OE" unicode="&#x152;" horiz-adv-x="937" 
d="M511 406q-20 24 -54.5 38.5t-73.5 14.5q-30 0 -55 -11.5t-43 -30.5t-27.5 -44t-9.5 -53t9.5 -53t27.5 -44t43 -30.5t55 -11.5q38 0 73 14.5t55 38.5v172zM539 0l-2 32q-31 -25 -73 -37t-86 -12q-69 0 -132 24t-111 68t-76.5 106.5t-28.5 138.5q0 77 28.5 139t76.5 105.5
t111 67.5t132 24q44 0 86 -12.5t73 -37.5l2 32h358v-171h-188v-60h148v-176h-148v-60h208v-171h-378z" />
    <glyph glyph-name="oe" unicode="&#x153;" horiz-adv-x="816" 
d="M339 227q0 30 -18 52t-43 22t-43 -22t-18 -52t18 -52t43 -22t43 22t18 52zM624 286q0 22 -12.5 34.5t-32.5 12.5q-26 0 -40 -15.5t-21 -39.5h105q0 2 0.5 4t0.5 4zM791 283q0 -12 -1.5 -26t-4.5 -25l-65 -65h-188q13 -20 39.5 -31.5t74.5 -11.5q35 0 62 5t54 16l-5 -140
q-23 -10 -57 -16.5t-79 -6.5q-112 0 -186 50q-33 -23 -72.5 -36.5t-84.5 -13.5q-52 0 -98 18t-80.5 50.5t-54.5 77.5t-20 99t20 98.5t54.5 77t80.5 50.5t98 18q42 0 81 -12t71 -35q30 23 69 35t84 12q47 0 85.5 -15t65.5 -41t42 -60t15 -72z" />
    <glyph glyph-name="Scaron" unicode="&#x160;" horiz-adv-x="526" 
d="M510 204q0 -103 -64 -162.5t-192 -59.5q-67 0 -122 15t-98 49l-6 192q47 -42 99 -61t108 -19q32 0 46 6t14 19q0 8 -2.5 13t-12 10t-27.5 12t-48 18q-82 31 -124 86t-42 121q0 47 17 86.5t48 67.5t75 43.5t98 15.5q36 0 63 -3.5t47.5 -8.5t36 -12t27.5 -15l-6 -178
q-28 18 -65.5 30t-74.5 12q-34 0 -45 -5.5t-11 -17.5q0 -6 2.5 -10.5t12 -9.5t28 -11.5t49.5 -17.5q35 -12 66 -32.5t54 -47.5t36 -59t13 -66zM444 823q-40 -19 -86 -55.5t-81 -90.5q-35 54 -81 90.5t-86 55.5l77 77q24 -11 46 -25.5t44 -36.5q23 23 44.5 37t45.5 25z" />
    <glyph glyph-name="scaron" unicode="&#x161;" horiz-adv-x="396" 
d="M341 622q-34 -17 -73 -47.5t-69 -77.5q-29 47 -68 77.5t-73 47.5l65 65q20 -10 39 -22t37 -31q20 20 38.5 31.5t38.5 21.5zM389 139q0 -31 -11 -59.5t-34.5 -50t-60 -34.5t-87.5 -13q-54 0 -98 13.5t-68 31.5l-5 156q30 -26 70.5 -41.5t85.5 -15.5q23 0 23 12
q0 8 -8.5 11.5t-30.5 11.5q-57 20 -92.5 60.5t-35.5 91.5q0 35 13.5 64t37.5 50t58 32.5t74 11.5q45 0 78.5 -9.5t51.5 -20.5l-5 -146q-20 14 -48 23t-57 9q-22 0 -22 -13q0 -7 8.5 -11t34.5 -11q64 -17 96 -59t32 -94z" />
    <glyph glyph-name="Ydieresis" unicode="&#x178;" horiz-adv-x="643" 
d="M423 276v-276h-205v269l-233 369h226l82 -127q8 -12 16.5 -29t15.5 -34h2q7 17 16 34.5t17 28.5l82 127h211zM298 761q0 -9 -9 -23t-22 -27t-27 -22t-23 -9t-23 9t-27 22t-22 27t-9 23t9 23t22 27t27 22t23 9t23 -9t27 -22t22 -27t9 -23zM504 761q0 -9 -9 -23t-22 -27
t-27 -22t-23 -9t-23 9t-27 22t-22 27t-9 23t9 23t22 27t27 22t23 9t23 -9t27 -22t22 -27t9 -23z" />
    <glyph glyph-name="Zcaron" unicode="&#x17d;" horiz-adv-x="539" 
d="M14 0v52l139 269q8 15 17 32t19 34.5t20 34.5t19 31l-1 1h-197v184h483v-52l-139 -271q-17 -32 -37.5 -68t-37.5 -62l1 -1h224v-184h-510zM441 823q-40 -19 -86 -55.5t-81 -90.5q-35 54 -81 90.5t-86 55.5l77 77q24 -11 46 -25.5t44 -36.5q23 23 44.5 37t45.5 25z" />
    <glyph glyph-name="zcaron" unicode="&#x17e;" horiz-adv-x="455" 
d="M367 622q-34 -17 -73 -47.5t-69 -77.5q-29 47 -68 77.5t-73 47.5l65 65q20 -10 39 -22t37 -31q20 20 38.5 31.5t38.5 21.5zM27 0v38l83 165q22 45 47 81l-1 2h-108v167h363v-38l-84 -167q-21 -44 -47 -79l1 -2h142v-167h-396z" />
    <glyph glyph-name="florin" unicode="&#x192;" horiz-adv-x="473" 
d="M431 489q-9 3 -26 5.5t-37 2.5q-23 0 -36 -11t-17 -28l-1 -5h101l-24 -105h-96l-62 -352q-19 -109 -83.5 -169.5t-159.5 -71.5l-66 141q25 5 43.5 13.5t32.5 22t23 33.5t14 49l59 334h-62l19 105h62l1 6q17 98 82.5 147.5t171.5 49.5q26 0 53 -3t40 -7z" />
    <glyph glyph-name="circumflex" unicode="&#x2c6;" 
d="M337 485q-24 11 -45.5 25t-44.5 37q-22 -22 -44 -36.5t-46 -25.5l-77 77q40 19 86 55.5t81 90.5q35 -54 81 -90.5t86 -55.5z" />
    <glyph glyph-name="caron" unicode="&#x2c7;" 
d="M417 623q-40 -19 -86 -55.5t-81 -90.5q-35 54 -81 90.5t-86 55.5l77 77q24 -11 46 -25.5t44 -36.5q23 23 44.5 37t45.5 25z" />
    <glyph glyph-name="breve" unicode="&#x2d8;" 
d="M406 543q-20 -16 -45 -29q-21 -11 -49.5 -20t-61.5 -9t-62 9t-50 20q-25 13 -46 29l64 69q14 -8 29 -14q13 -5 30 -9.5t35 -4.5q19 0 35 4.5t29 9.5q15 6 28 14z" />
    <glyph glyph-name="dotaccent" unicode="&#x2d9;" 
d="M339 574q0 -11 -10 -26t-24 -29t-29 -24t-26 -10t-26 10t-29 24t-24 29t-10 26t10 26t24 28.5t29 23.5t26 10t26 -10t29 -23.5t24 -28.5t10 -26z" />
    <glyph glyph-name="ring" unicode="&#x2da;" 
d="M314 601q0 28 -18 46t-46 18t-46 -18t-18 -46t18 -46t46 -18t46 18t18 46zM387 601q0 -28 -11 -53t-29.5 -43.5t-43.5 -29t-53 -10.5t-53 10.5t-43.5 29t-29.5 43.5t-11 53t11 53t29.5 43.5t43.5 29t53 10.5t53 -10.5t43.5 -29t29.5 -43.5t11 -53z" />
    <glyph glyph-name="ogonek" unicode="&#x2db;" 
d="M356 -226q-13 -9 -34.5 -14t-47.5 -5q-53 0 -84.5 29t-31.5 77q0 25 10 47t25 40.5t33 31.5t34 20h104q-47 -23 -79 -57t-32 -67q0 -15 11.5 -26t31.5 -11q19 0 36.5 4t32.5 14z" />
    <glyph glyph-name="tilde" unicode="&#x2dc;" 
d="M398 546q-43 -28 -83 -42t-93 -19l-8 76q-37 -6 -76.5 -21t-76.5 -38l31 127q43 28 83 42.5t93 18.5l8 -76q38 7 77.5 22.5t75.5 36.5z" />
    <glyph glyph-name="hungarumlaut" unicode="&#x2dd;" 
d="M263 623q-29 -46 -57.5 -77.5t-63.5 -60.5l-107 24q45 38 85.5 88.5t67.5 98.5zM470 623q-28 -46 -56.5 -77.5t-64.5 -60.5l-107 24q45 38 85.5 88.5t67.5 98.5z" />
    <glyph glyph-name="Delta" unicode="&#x394;" horiz-adv-x="550" 
d="M257 29q-25 11 -38 27t-22 34l-129 271v-332h189zM482 384h-384l241 -170q-44 -17 -67.5 -46.5t-23.5 -55.5q0 -32 14.5 -51t37.5 -32h182v355zM39 0v453h472v-453h-472z" />
    <glyph glyph-name="Delta" unicode="&#x2206;" horiz-adv-x="550" 
d="M257 29q-25 11 -38 27t-22 34l-129 271v-332h189zM482 384h-384l241 -170q-44 -17 -67.5 -46.5t-23.5 -55.5q0 -32 14.5 -51t37.5 -32h182v355zM39 0v453h472v-453h-472z" />
    <glyph glyph-name="Omega" unicode="&#x3a9;" horiz-adv-x="550" 
d="M257 29q-25 11 -38 27t-22 34l-129 271v-332h189zM482 384h-384l241 -170q-44 -17 -67.5 -46.5t-23.5 -55.5q0 -32 14.5 -51t37.5 -32h182v355zM39 0v453h472v-453h-472z" />
    <glyph glyph-name="Omega" unicode="&#x2126;" horiz-adv-x="550" 
d="M257 29q-25 11 -38 27t-22 34l-129 271v-332h189zM482 384h-384l241 -170q-44 -17 -67.5 -46.5t-23.5 -55.5q0 -32 14.5 -51t37.5 -32h182v355zM39 0v453h472v-453h-472z" />
    <glyph glyph-name="pi" unicode="&#x3c0;" horiz-adv-x="550" 
d="M257 29q-25 11 -38 27t-22 34l-129 271v-332h189zM482 384h-384l241 -170q-44 -17 -67.5 -46.5t-23.5 -55.5q0 -32 14.5 -51t37.5 -32h182v355zM39 0v453h472v-453h-472z" />
    <glyph glyph-name="endash" unicode="&#x2013;" horiz-adv-x="600" 
d="M25 202v146h550v-146h-550z" />
    <glyph glyph-name="emdash" unicode="&#x2014;" horiz-adv-x="875" 
d="M25 202v146h825v-146h-825z" />
    <glyph glyph-name="quoteleft" unicode="&#x2018;" horiz-adv-x="244" 
d="M229 711q-29 -32 -52.5 -74t-31.5 -82q11 -2 25 -12.5t27 -24.5t21.5 -28.5t8.5 -25.5q0 -14 -12 -32t-28.5 -33.5t-34.5 -26.5t-30 -11q-11 0 -28.5 10.5t-34.5 26.5t-29.5 33.5t-12.5 32.5q0 27 13 60.5t34.5 69t49 69t55.5 58.5z" />
    <glyph glyph-name="quoteright" unicode="&#x2019;" horiz-adv-x="244" 
d="M227 621q0 -27 -13 -60.5t-34.5 -69t-48.5 -68.5t-56 -59l-60 10q29 32 52.5 74t31.5 82q-11 2 -25 12.5t-27 24.5t-21.5 29t-8.5 25q0 14 12 32t28.5 33.5t34.5 26.5t30 11q11 0 28.5 -10.5t34.5 -26.5t29.5 -33.5t12.5 -32.5z" />
    <glyph glyph-name="quotesinglbase" unicode="&#x201a;" horiz-adv-x="244" 
d="M227 88q0 -27 -13 -60.5t-34.5 -69t-48.5 -69t-56 -58.5l-60 10q29 32 52.5 74t31.5 82q-11 2 -25 12.5t-27 24.5t-21.5 29t-8.5 25q0 14 12 32t28.5 33.5t34.5 26.5t30 11q11 0 28.5 -10.5t34.5 -26.5t29.5 -33.5t12.5 -32.5z" />
    <glyph glyph-name="quotedblleft" unicode="&#x201c;" horiz-adv-x="483" 
d="M229 711q-29 -32 -52.5 -74t-31.5 -82q11 -2 25 -12.5t27 -24.5t21.5 -28.5t8.5 -25.5q0 -14 -12 -32t-28.5 -33.5t-34.5 -26.5t-30 -11q-11 0 -28.5 10.5t-34.5 26.5t-29.5 33.5t-12.5 32.5q0 27 13 60.5t34.5 69t49 69t55.5 58.5zM468 711q-29 -32 -52.5 -74t-31.5 -82
q11 -2 25 -12.5t27 -24.5t21.5 -28.5t8.5 -25.5q0 -14 -12 -32t-28.5 -33.5t-34.5 -26.5t-30 -11q-11 0 -28.5 10.5t-34.5 26.5t-29.5 33.5t-12.5 32.5q0 27 13 60.5t34.5 69t49 69t55.5 58.5z" />
    <glyph glyph-name="quotedblright" unicode="&#x201d;" horiz-adv-x="483" 
d="M227 621q0 -27 -13 -60.5t-34.5 -69t-48.5 -68.5t-56 -59l-60 10q29 32 52.5 74t31.5 82q-11 2 -25 12.5t-27 24.5t-21.5 29t-8.5 25q0 14 12 32t28.5 33.5t34.5 26.5t30 11q11 0 28.5 -10.5t34.5 -26.5t29.5 -33.5t12.5 -32.5zM466 621q0 -27 -13 -60.5t-34.5 -69
t-48.5 -68.5t-56 -59l-60 10q29 32 52.5 74t31.5 82q-11 2 -25 12.5t-27 24.5t-21.5 29t-8.5 25q0 14 12 32t28.5 33.5t34.5 26.5t30 11q11 0 28.5 -10.5t34.5 -26.5t29.5 -33.5t12.5 -32.5z" />
    <glyph glyph-name="quotedblbase" unicode="&#x201e;" horiz-adv-x="483" 
d="M227 88q0 -27 -13 -60.5t-34.5 -69t-48.5 -69t-56 -58.5l-60 10q29 32 52.5 74t31.5 82q-11 2 -25 12.5t-27 24.5t-21.5 29t-8.5 25q0 14 12 32t28.5 33.5t34.5 26.5t30 11q11 0 28.5 -10.5t34.5 -26.5t29.5 -33.5t12.5 -32.5zM466 88q0 -27 -13 -60.5t-34.5 -69
t-48.5 -69t-56 -58.5l-60 10q29 32 52.5 74t31.5 82q-11 2 -25 12.5t-27 24.5t-21.5 29t-8.5 25q0 14 12 32t28.5 33.5t34.5 26.5t30 11q11 0 28.5 -10.5t34.5 -26.5t29.5 -33.5t12.5 -32.5z" />
    <glyph glyph-name="dagger" unicode="&#x2020;" horiz-adv-x="442" 
d="M310 297l-24 -528h-128l-25 528l-123 -19v183l116 -18l-5 114h201l-5 -114l115 18v-183z" />
    <glyph glyph-name="daggerdbl" unicode="&#x2021;" horiz-adv-x="442" 
d="M291 -123l-5 -108h-128l-5 108l-143 -18v183l136 -19l-13 274l-123 -19v183l116 -18l-6 114h201l-5 -114l116 18v-183l-123 19l-11 -274l134 19v-183z" />
    <glyph glyph-name="bullet" unicode="&#x2022;" horiz-adv-x="446" 
d="M421 272q0 -42 -16 -77.5t-43 -61t-63 -39.5t-76 -14q-41 0 -77 14t-63 39.5t-42.5 61t-15.5 77.5t15.5 77t42.5 60.5t63 39.5t77 14q40 0 76 -14t63 -39.5t43 -60.5t16 -77z" />
    <glyph glyph-name="ellipsis" unicode="&#x2026;" horiz-adv-x="712" 
d="M227 87q0 -13 -11.5 -31t-28 -34.5t-34.5 -28t-31 -11.5t-31 11.5t-34.5 28t-28 34.5t-11.5 31q0 12 11.5 30t28 34.5t34.5 28t31 11.5t31 -11.5t34.5 -28t28 -34.5t11.5 -30zM461 87q0 -13 -11.5 -31t-28 -34.5t-34.5 -28t-31 -11.5t-31 11.5t-34.5 28t-28 34.5
t-11.5 31q0 12 11.5 30t28 34.5t34.5 28t31 11.5t31 -11.5t34.5 -28t28 -34.5t11.5 -30zM695 87q0 -13 -11.5 -31t-28 -34.5t-34.5 -28t-31 -11.5t-31 11.5t-34.5 28t-28 34.5t-11.5 31q0 12 11.5 30t28 34.5t34.5 28t31 11.5t31 -11.5t34.5 -28t28 -34.5t11.5 -30z" />
    <glyph glyph-name="perthousand" unicode="&#x2030;" horiz-adv-x="1086" 
d="M219 502q0 19 -11.5 31.5t-26.5 12.5t-26.5 -12.5t-11.5 -31.5q0 -18 11.5 -31t26.5 -13t26.5 13t11.5 31zM586 138q0 19 -11.5 31.5t-26.5 12.5t-26.5 -12.5t-11.5 -31.5q0 -18 11.5 -31t26.5 -13t26.5 13t11.5 31zM943 138q0 19 -11.5 31.5t-26.5 12.5t-26.5 -12.5
t-11.5 -31.5q0 -18 11.5 -31t26.5 -13t26.5 13t11.5 31zM341 502q0 -34 -13 -63t-34.5 -49.5t-50.5 -32t-62 -11.5t-62 11.5t-51 32t-34.5 49.5t-12.5 63t12.5 62.5t34.5 48.5t51 31.5t62 11.5t62 -11.5t50.5 -31.5t34.5 -48.5t13 -62.5zM161 -13l-79 62l487 601l78 -61z
M708 138q0 -34 -13 -63t-34.5 -49.5t-50.5 -32t-62 -11.5t-62 11.5t-51 32t-34.5 49.5t-12.5 63t12.5 62.5t34.5 48.5t51 31.5t62 11.5t62 -11.5t50.5 -31.5t34.5 -48.5t13 -62.5zM1065 138q0 -34 -13 -63t-34.5 -49.5t-50.5 -32t-62 -11.5t-62 11.5t-51 32t-34.5 49.5
t-12.5 63t12.5 62.5t34.5 48.5t51 31.5t62 11.5t62 -11.5t50.5 -31.5t34.5 -48.5t13 -62.5z" />
    <glyph glyph-name="guilsinglleft" unicode="&#x2039;" horiz-adv-x="291" 
d="M176 78q-35 59 -83.5 110t-107.5 89q59 38 107.5 89t83.5 110l94 -94q-13 -29 -35.5 -58.5t-39.5 -46.5q17 -17 39.5 -46.5t35.5 -58.5z" />
    <glyph glyph-name="guilsinglright" unicode="&#x203a;" horiz-adv-x="291" 
d="M305 277q-58 -38 -106.5 -89t-83.5 -110l-94 94q13 29 35 58.5t40 46.5q-18 17 -40 46.5t-35 58.5l94 94q35 -59 83.5 -110t106.5 -89z" />
    <glyph glyph-name="fraction" unicode="&#x2044;" horiz-adv-x="605" 
d="M99 -13l-79 62l487 601l78 -61z" />
    <glyph glyph-name="fraction" unicode="&#x2215;" horiz-adv-x="605" 
d="M99 -13l-79 62l487 601l78 -61z" />
    <glyph glyph-name="trademark" unicode="&#x2122;" horiz-adv-x="454" 
d="M133 575v-122h-68v125h-45v60h160v-63h-47zM359 453l-5 61l-28 -61h-28l-28 60l-4 -60h-68l15 185h59l40 -80l40 80h60l14 -185h-67z" />
    <glyph glyph-name="partialdiff" unicode="&#x2202;" horiz-adv-x="550" 
d="M257 29q-25 11 -38 27t-22 34l-129 271v-332h189zM482 384h-384l241 -170q-44 -17 -67.5 -46.5t-23.5 -55.5q0 -32 14.5 -51t37.5 -32h182v355zM39 0v453h472v-453h-472z" />
    <glyph glyph-name="product" unicode="&#x220f;" horiz-adv-x="459" 
d="M260 489q0 13 -7 18t-15 5h-8v-44h8q8 0 15 5t7 16zM326 489q0 -36 -23.5 -54t-55.5 -18h-17v-75h-62v222h74q15 0 30 -5t27 -14.5t19.5 -23.5t7.5 -32zM384 453q0 33 -11.5 61.5t-32.5 49.5t-49 32.5t-61 11.5t-61.5 -11.5t-49 -32.5t-32.5 -49.5t-12 -61.5t12 -61
t32.5 -49t49 -32.5t61.5 -11.5t61 12t49 32.5t32.5 48.5t11.5 61zM434 453q0 -43 -15.5 -80t-43 -64.5t-65 -43t-80.5 -15.5t-80.5 15.5t-65.5 43t-43.5 64.5t-15.5 80q0 44 15.5 81t43.5 64t65.5 42.5t80.5 15.5t80.5 -15.5t65 -42.5t43 -64t15.5 -81z" />
    <glyph glyph-name="summation" unicode="&#x2211;" horiz-adv-x="550" 
d="M257 29q-25 11 -38 27t-22 34l-129 271v-332h189zM482 384h-384l241 -170q-44 -17 -67.5 -46.5t-23.5 -55.5q0 -32 14.5 -51t37.5 -32h182v355zM39 0v453h472v-453h-472z" />
    <glyph glyph-name="minus" unicode="&#x2212;" horiz-adv-x="449" 
d="M25 202v146h399v-146h-399z" />
    <glyph glyph-name="radical" unicode="&#x221a;" horiz-adv-x="664" 
d="M538 545l-191 -545h-182l-73 201h-82l22 167h181l28 -97q3 -11 5.5 -22.5t4.5 -25.5h2q8 41 20 84.5t25 80.5l112 324h239v-167h-111z" />
    <glyph glyph-name="infinity" unicode="&#x221e;" horiz-adv-x="934" 
d="M691 0v286h-89v-286h-199v286h-130v-286h-199v286h-62v167h62v12q0 52 16.5 96.5t47 77t75 51t100.5 18.5q26 0 42 -1.5t30 -6.5l-5 -169q-15 6 -42 6q-11 0 -22.5 -4.5t-21 -13t-15.5 -20t-6 -26.5v-20h130v4q0 62 20 111t57 84t88.5 53.5t115.5 18.5q32 0 61.5 -5.5
t46.5 -13.5l-5 -169q-17 8 -35.5 12.5t-42.5 4.5q-56 0 -81.5 -22t-25.5 -66v-12h292v-453h-203z" />
    <glyph glyph-name="integral" unicode="&#x222b;" horiz-adv-x="550" 
d="M257 29q-25 11 -38 27t-22 34l-129 271v-332h189zM482 384h-384l241 -170q-44 -17 -67.5 -46.5t-23.5 -55.5q0 -32 14.5 -51t37.5 -32h182v355zM39 0v453h472v-453h-472z" />
    <glyph glyph-name="approxequal" unicode="&#x2248;" horiz-adv-x="449" 
d="M427 128q-10 -10 -24 -20t-29 -18t-31 -12.5t-30 -4.5q-32 0 -54 4.5t-39 11.5q-23 8 -42 16.5t-47 8.5q-26 0 -49 -12t-42 -32l-18 134q10 11 24 20.5t29 17.5t31 12.5t30 4.5q32 0 54 -4.5t39 -11.5q23 -8 42 -16.5t47 -8.5q26 0 49 12t42 32zM427 350q-10 -10 -24 -20
t-29 -18t-31 -12.5t-30 -4.5q-32 0 -54 4.5t-39 11.5q-23 8 -42 16.5t-47 8.5q-26 0 -49 -12t-42 -32l-18 134q10 11 24 20.5t29 17.5t31 12.5t30 4.5q32 0 54 -4.5t39 -11.5q23 -8 42 -16.5t47 -8.5q26 0 49 12t42 32z" />
    <glyph glyph-name="notequal" unicode="&#x2260;" horiz-adv-x="728" 
d="M756 545q-19 8 -53 8q-48 0 -74.5 -20.5t-26.5 -68.5v-11h101l-5 -167h-96v-286h-199v286h-130v-286h-199v286h-62v167h62v12q0 52 16.5 96.5t47 77t75 51t100.5 18.5q26 0 42 -1.5t30 -6.5l-5 -169q-15 6 -42 6q-11 0 -22.5 -4.5t-21 -13t-15.5 -20t-6 -26.5v-20h130v3
q0 69 23 119.5t61.5 83.5t88.5 49t105 16q50 0 80 -11z" />
    <glyph glyph-name="lessequal" unicode="&#x2264;" horiz-adv-x="342" 
d="M21 0v146h292v-146h-292zM206 192l-193 194l192 192l108 -109l-85 -85l85 -85z" />
    <glyph glyph-name="greaterequal" unicode="&#x2265;" horiz-adv-x="342" 
d="M29 0v146h292v-146h-292zM136 192l-107 107l85 85l-85 85l108 109l192 -192z" />
    <glyph glyph-name="lozenge" unicode="&#x25ca;" horiz-adv-x="593" 
d="M296 352l-76 -75l76 -77l76 77zM296 55l-222 222l222 222l223 -222z" />
    <glyph glyph-name="NUL" horiz-adv-x="0" 
 />
    <glyph glyph-name="apple" horiz-adv-x="550" 
d="M257 29q-25 11 -38 27t-22 34l-129 271v-332h189zM482 384h-384l241 -170q-44 -17 -67.5 -46.5t-23.5 -55.5q0 -32 14.5 -51t37.5 -32h182v355zM39 0v453h472v-453h-472z" />
    </font>
</defs>
</svg>
