<?xml version="1.0" standalone="no"?>
<!DOCTYPE svg PUBLIC "-//W3C//DTD SVG 1.1//EN" "http://www.w3.org/Graphics/SVG/1.1/DTD/svg11.dtd" >
<svg xmlns="http://www.w3.org/2000/svg" xmlns:xlink="http://www.w3.org/1999/xlink" version="1.1">
<metadata>
Created by FontForge 20170731 at Tue Jun 20 11:03:40 2023
 By Aleksey,,,
Copyright (c) The Font Bureau, Inc., 2003. All rights reserved.
</metadata>
<defs>
<font id="Agenda-Semibold" horiz-adv-x="1024" >
  <font-face 
    font-family="Agenda Semibold"
    font-weight="600"
    font-stretch="normal"
    units-per-em="2048"
    panose-1="2 0 6 3 4 0 0 2 0 4"
    ascent="1464"
    descent="-584"
    x-height="928"
    cap-height="1307"
    bbox="-168 -483 2111 1909"
    underline-thickness="40"
    underline-position="-204"
    unicode-range="U+0020-FB02"
  />
<missing-glyph horiz-adv-x="2048" 
 />
    <glyph glyph-name="fi" unicode="fi" horiz-adv-x="1095" 
d="M995 0h-243v731h-344v-731h-240v731h-150v197h150v119q0 199 109.5 305t293.5 106q125 0 201 -31l-45 -196q-71 29 -129 29q-190 0 -190 -230v-102h587v-928z" />
    <glyph glyph-name="fl" unicode="fl" horiz-adv-x="1148" 
d="M1114 147l-117 -184q-49 5 -92 23t-79 52t-57 90t-21 128v954q-29 24 -71 38t-83 14q-186 0 -186 -230v-104h170v-197h-170v-731h-240v731h-150v197h150v119q0 199 109.5 305t293.5 106q246 0 418 -160v-1011q0 -58 35.5 -96t89.5 -44z" />
    <glyph glyph-name="f_f_l" unicode="ffl" horiz-adv-x="1728" 
d="M1692 147l-115 -184q-49 5 -92.5 23t-80 52t-58 90t-21.5 128v954q-29 24 -71 38t-83 14q-186 0 -186 -230v-104h172v-197h-172v-731h-237v731h-340v-731h-240v731h-150v197h150v119q0 199 109.5 305t293.5 106q168 0 308 -88q105 88 270 88q246 0 418 -160v-1011
q0 -58 35.5 -96t89.5 -44zM768 1198q-79 64 -174 64q-186 0 -186 -230v-104h340v119q0 87 20 151z" />
    <glyph glyph-name="f_f_i" unicode="ffi" horiz-adv-x="1675" 
d="M1573 0h-244v731h-344v-731h-237v731h-340v-731h-240v731h-150v197h150v119q0 199 109.5 305t293.5 106q168 0 308 -88q105 88 270 88q127 0 203 -31l-47 -196q-71 29 -127 29q-193 0 -193 -230v-102h588v-928zM768 1198q-79 64 -174 64q-186 0 -186 -230v-104h340v119
q0 87 20 151z" />
    <glyph glyph-name="f_f" unicode="ff" horiz-adv-x="1286" 
d="M1352 1427l-47 -196q-71 29 -127 29q-193 0 -193 -230v-102h258l-43 -197h-215v-731h-237v731h-340v-731h-240v731h-150v197h150v119q0 199 109.5 305t293.5 106q168 0 308 -88q105 88 270 88q127 0 203 -31zM768 1198q-79 64 -174 64q-186 0 -186 -230v-104h340v119
q0 87 20 151z" />
    <glyph glyph-name=".notdef" horiz-adv-x="2048" 
 />
    <glyph glyph-name=".null" horiz-adv-x="0" 
 />
    <glyph glyph-name="nonmarkingreturn" horiz-adv-x="682" 
 />
    <glyph glyph-name="space" unicode=" " horiz-adv-x="466" 
 />
    <glyph glyph-name="space" unicode="&#xa0;" horiz-adv-x="466" 
 />
    <glyph glyph-name="exclam" unicode="!" horiz-adv-x="567" 
d="M426 1307l-37 -924l-207 45l-35 879h279zM438 121q0 -36 -55.5 -92t-91.5 -56t-92 56t-56 92q0 34 56 89.5t92 55.5q35 0 91 -55t56 -90z" />
    <glyph glyph-name="quotedbl" unicode="&#x22;" horiz-adv-x="694" 
d="M616 1307l-38 -523h-121l-39 523h198zM276 1307l-40 -523h-123l-35 523h198z" />
    <glyph glyph-name="numbersign" unicode="#" horiz-adv-x="811" 
d="M799 764h-129l-52 -219h123v-139h-155l-92 -406h-156l94 406h-170l-92 -406h-156l95 406h-97v139h129l52 219h-123v139h155l92 404h156l-94 -404h170l92 404h156l-95 -404h97v-139zM516 764h-170l-51 -219h170z" />
    <glyph glyph-name="dollar" unicode="$" horiz-adv-x="978" 
d="M905 373q0 -169 -99 -271t-265 -125v-176h-135v172q-189 9 -332 101l49 205q148 -103 309 -103q105 0 168.5 51t63.5 129q0 68 -55 120t-158 85q-179 58 -276 160t-97 237q0 148 91 245.5t237 123.5v182h135v-174q154 -6 274 -69l-45 -199q-128 66 -254 66
q-92 0 -147.5 -45t-55.5 -113q0 -59 50 -101.5t147 -76.5q395 -135 395 -424z" />
    <glyph glyph-name="percent" unicode="%" horiz-adv-x="1439" 
d="M1374 274q0 -132 -86 -216.5t-215 -84.5t-215 84t-86 217q0 130 85.5 213.5t215.5 83.5q127 0 214 -84t87 -213zM1198 274q0 60 -36 97t-89 37t-89 -37t-36 -97q0 -61 36 -100t89 -39q52 0 88.5 38.5t36.5 100.5zM1300 1264l-1056 -1307l-107 88l1055 1307zM666 1038
q0 -132 -86 -216.5t-215 -84.5t-215.5 84t-86.5 217q0 130 86 213.5t216 83.5q127 0 214 -84t87 -213zM489 1038q0 60 -35.5 96.5t-88.5 36.5t-89 -36.5t-36 -96.5q0 -61 36 -100t89 -39q52 0 88 38.5t36 100.5z" />
    <glyph glyph-name="ampersand" unicode="&#x26;" horiz-adv-x="1320" 
d="M1309 0h-318l-90 90q-172 -117 -391 -117q-194 0 -315 103.5t-121 259.5q0 118 55 201.5t172 152.5q-145 154 -145 303q0 153 106 247.5t258 94.5q101 0 188 -41t142 -121t55 -182q0 -208 -237 -348l239 -240q91 113 148 269l159 -162q-55 -146 -149 -266zM678 989
q0 61 -42 105.5t-112 44.5q-62 0 -102.5 -43t-40.5 -97q0 -48 30.5 -92t98.5 -110q168 92 168 192zM743 248l-290 291q-71 -38 -105.5 -84t-34.5 -109q0 -73 59 -121.5t144 -48.5q115 0 227 72z" />
    <glyph glyph-name="quotesingle" unicode="'" horiz-adv-x="352" 
d="M276 1307l-40 -523h-123l-35 523h198z" />
    <glyph glyph-name="parenleft" unicode="(" horiz-adv-x="552" 
d="M541 1419q-105 -200 -165.5 -442t-60.5 -488q0 -265 52 -497t165 -467l-249 53q-105 219 -157 433.5t-52 490.5q0 530 221 966z" />
    <glyph glyph-name="parenright" unicode=")" horiz-adv-x="552" 
d="M479 485q0 -529 -223 -966l-244 53q105 200 165.5 441.5t60.5 486.5q0 263 -53 493.5t-165 470.5l248 -55q105 -221 158 -435t53 -489z" />
    <glyph glyph-name="asterisk" unicode="*" horiz-adv-x="878" 
d="M858 1057l-291 -78l166 -203l-131 -145l-164 254l-139 -221l-176 81l192 234l-254 65l23 191l274 -111l-16 260l195 43l-19 -301l238 101z" />
    <glyph glyph-name="plus" unicode="+" horiz-adv-x="927" 
d="M854 469h-283v-272h-213v272h-284v195h284v272h213v-272h283v-195z" />
    <glyph glyph-name="comma" unicode="," horiz-adv-x="430" 
d="M362 123q0 -88 -67 -211.5t-148 -198.5l-79 15q49 57 82 132t38 138q-35 6 -77.5 50.5t-42.5 74.5q0 39 55.5 91t91.5 52q33 0 90 -52t57 -91z" />
    <glyph glyph-name="hyphen" unicode="-" horiz-adv-x="673" 
d="M600 469h-526v195h526v-195z" />
    <glyph glyph-name="hyphen" unicode="&#xad;" horiz-adv-x="673" 
d="M600 469h-526v195h526v-195z" />
    <glyph glyph-name="period" unicode="." horiz-adv-x="430" 
d="M362 121q0 -36 -55.5 -92t-91.5 -56q-35 0 -91 55.5t-56 92.5q0 34 55.5 89.5t91.5 55.5q35 0 91 -55t56 -90z" />
    <glyph glyph-name="slash" unicode="/" horiz-adv-x="1005" 
d="M940 1311l-846 -1655l-168 88l846 1655z" />
    <glyph glyph-name="zero" unicode="0" horiz-adv-x="1062" 
d="M989 655q0 -170 -37 -303t-100.5 -214t-145 -123t-174.5 -42q-75 0 -142.5 25.5t-125.5 80.5t-100 134t-66 192t-24 250q0 169 36.5 301t100 213.5t145 123.5t176.5 42q93 0 174.5 -42t145 -123.5t100.5 -214t37 -300.5zM748 655q0 231 -62 350t-154 119t-153.5 -119
t-61.5 -350q0 -233 61.5 -351t153.5 -118t154 118t62 351z" />
    <glyph glyph-name="one" unicode="1" horiz-adv-x="593" 
d="M475 0h-242v1102l-221 -23l47 209l416 39v-1327z" />
    <glyph glyph-name="two" unicode="2" horiz-adv-x="954" 
d="M881 0h-813v59q497 579 497 840q0 106 -54.5 164.5t-141.5 58.5q-133 0 -240 -71l-49 204q127 80 307 80q191 0 307.5 -110.5t116.5 -313.5q0 -83 -30 -174t-88 -186t-115 -172t-136 -174h439v-205z" />
    <glyph glyph-name="three" unicode="3" horiz-adv-x="905" 
d="M831 397q0 -192 -130.5 -306t-356.5 -114q-133 0 -231 43l-25 224q112 -62 223 -62q108 0 185 58.5t77 169.5q0 88 -69.5 151.5t-167.5 63.5q-21 0 -37 -2l-43 186q96 20 159.5 69t63.5 113q0 59 -41.5 94t-107.5 35q-103 0 -199 -55l-45 203q123 65 266 65
q167 0 271 -84t104 -219q0 -97 -55.5 -165.5t-130.5 -90.5q54 -13 104 -42.5t92.5 -75.5t68 -113t25.5 -146z" />
    <glyph glyph-name="four" unicode="4" horiz-adv-x="1019" 
d="M946 328h-145v-328h-238v328h-510l-41 186l598 793h191v-779h145v-200zM567 940l-4 4q-47 -78 -98 -143l-209 -275h307v277q0 39 4 137z" />
    <glyph glyph-name="five" unicode="5" horiz-adv-x="948" 
d="M874 410q0 -193 -126.5 -315t-352.5 -122q-70 0 -141 15t-113 37l-24 227q118 -70 256 -70q106 0 178 62t72 162q0 105 -72 169t-178 64q-129 0 -219 -35l20 703h612l-45 -205h-333l-9 -264q28 4 52 4q83 0 159 -30t135 -83.5t94 -136.5t35 -182z" />
    <glyph glyph-name="six" unicode="6" horiz-adv-x="1048" 
d="M985 412q0 -193 -129 -316t-324 -123q-126 0 -228.5 54.5t-166 166.5t-63.5 263q0 260 162.5 509t416.5 388l244 -90q-360 -185 -502 -480q74 54 176 54q171 0 292.5 -120t121.5 -306zM750 399q0 97 -60 161.5t-153 64.5q-77 0 -138 -37t-84 -119q-2 -18 -2 -55
q0 -100 67.5 -169t158.5 -69q87 0 149 62t62 161z" />
    <glyph glyph-name="seven" unicode="7" horiz-adv-x="933" 
d="M903 1307l-549 -1307h-256l471 1102h-557v205h891z" />
    <glyph glyph-name="eight" unicode="8" horiz-adv-x="1058" 
d="M985 371q0 -182 -129.5 -290t-327.5 -108t-326 108t-128 290q0 65 23.5 124t60.5 100.5t76.5 70t78.5 43.5q-77 34 -132.5 109.5t-55.5 172.5q0 151 112 247.5t289 96.5q176 0 290 -96.5t114 -249.5q0 -92 -56.5 -169t-130.5 -107q38 -14 78.5 -43.5t78 -72t61.5 -102
t24 -124.5zM709 983q0 67 -52 112.5t-127 45.5q-73 0 -124.5 -45.5t-51.5 -112.5q0 -60 51.5 -110t133.5 -72q79 23 124.5 72.5t45.5 109.5zM743 375q0 80 -70.5 139.5t-158.5 83.5q-83 -23 -148 -82.5t-65 -140.5q0 -85 65.5 -142t155.5 -57q92 0 156.5 57t64.5 142z" />
    <glyph glyph-name="nine" unicode="9" horiz-adv-x="1048" 
d="M975 852q0 -172 -75 -345.5t-206.5 -316.5t-298.5 -235l-243 92q368 189 505 479q-75 -53 -180 -53q-172 0 -293 119t-121 305q0 193 129.5 315.5t325.5 122.5q126 0 228.5 -54.5t165.5 -166t63 -262.5zM735 885q0 100 -67 169.5t-158 69.5q-87 0 -148 -63t-61 -162
q0 -97 60 -161t153 -64q77 0 136.5 36.5t82.5 120.5q0 9 1 27t1 27z" />
    <glyph glyph-name="colon" unicode=":" horiz-adv-x="430" 
d="M362 807q0 -35 -55 -90t-92 -55q-35 0 -91 55t-56 90q0 36 55.5 91.5t91.5 55.5q35 0 91 -56t56 -91zM362 121q0 -36 -55.5 -92t-91.5 -56q-35 0 -91 55.5t-56 92.5q0 34 55.5 89.5t91.5 55.5q35 0 91 -55t56 -90z" />
    <glyph glyph-name="semicolon" unicode=";" horiz-adv-x="430" 
d="M362 807q0 -35 -55 -90t-92 -55q-35 0 -91 55t-56 90q0 36 55.5 91.5t91.5 55.5q35 0 91 -56t56 -91zM362 123q0 -88 -67 -211.5t-148 -198.5l-79 15q49 57 82 132t38 138q-35 6 -77.5 50.5t-42.5 74.5q0 39 55.5 91t91.5 52q33 0 90 -52t57 -91z" />
    <glyph glyph-name="less" unicode="&#x3c;" horiz-adv-x="927" 
d="M854 176l-780 256v270l780 263v-203l-608 -195l608 -188v-203z" />
    <glyph glyph-name="equal" unicode="=" horiz-adv-x="927" 
d="M854 653h-780v195h780v-195zM854 285h-780v194h780v-194z" />
    <glyph glyph-name="greater" unicode="&#x3e;" horiz-adv-x="927" 
d="M854 432l-780 -256v203l608 188l-608 195v203l780 -263v-270z" />
    <glyph glyph-name="question" unicode="?" horiz-adv-x="794" 
d="M729 999q0 -85 -40 -156t-134 -175q-80 -88 -80 -179q0 -54 10 -106l-213 43q-14 55 -14 104q0 167 119 289q52 54 74 93.5t22 91.5q0 44 -37 80t-100 36q-103 0 -217 -69l-49 211q114 73 276 73q171 0 277 -91t106 -245zM532 121q0 -36 -55.5 -92t-91.5 -56
q-35 0 -91 55.5t-56 92.5q0 34 55.5 89.5t91.5 55.5q37 0 92 -55t55 -90z" />
    <glyph glyph-name="at" unicode="@" horiz-adv-x="1550" 
d="M1479 688q0 -81 -24 -155t-67.5 -132t-111 -92.5t-148.5 -34.5q-39 0 -74.5 12t-65 42t-38.5 73q-53 -125 -219 -125q-103 0 -172.5 66t-69.5 164q0 97 70 158.5t174 70.5l150 15v26q0 38 -28.5 61t-88.5 23q-109 0 -205 -59l-39 153q49 30 121 50t139 20
q136 0 219.5 -69t83.5 -195v-268q0 -68 54 -68q72 0 122 69t50 195q0 142 -76.5 256.5t-197 175t-257.5 60.5q-104 0 -200 -35.5t-171.5 -101t-121 -166.5t-45.5 -222q0 -118 44 -218t116.5 -165t165 -101t190.5 -36q121 0 188 21l-18 -152q-45 -18 -174 -18
q-133 0 -255.5 46.5t-217.5 131t-152 213.5t-57 282t60 282t159 214t226 132.5t263 47.5q135 0 261 -46.5t223.5 -129t156 -205.5t58.5 -266zM883 553v53l-101 -10q-100 -11 -100 -90q0 -30 22 -52t58 -22q51 0 86 34t35 87z" />
    <glyph glyph-name="A" unicode="A" horiz-adv-x="1277" 
d="M1247 0h-258l-125 315h-461l-124 -315h-248l536 1321h146zM791 518l-109 281q-33 92 -47 141h-4q-8 -32 -47 -141l-109 -281h316z" />
    <glyph glyph-name="B" unicode="B" horiz-adv-x="1083" 
d="M1010 401q0 -95 -36.5 -172.5t-98 -126.5t-139 -75.5t-163.5 -26.5h-454v1307h397q96 0 180.5 -39t139.5 -119t55 -186q0 -68 -31 -132.5t-84 -91.5q95 -29 164.5 -123.5t69.5 -214.5zM649 950q0 78 -49.5 117t-124.5 39h-119v-309h119q75 0 124.5 38t49.5 115zM758 399
q0 97 -68 150t-164 53h-170v-405h170q97 0 164.5 52t67.5 150z" />
    <glyph glyph-name="C" unicode="C" horiz-adv-x="1218" 
d="M1145 1241l-47 -223q-52 32 -133 55t-166 23q-92 0 -175 -30t-148 -85.5t-103.5 -141.5t-38.5 -190q0 -138 66.5 -241t172.5 -154t234 -51q186 0 303 65l-23 -227q-113 -55 -317 -55q-101 0 -200 26.5t-188.5 82t-158 133t-109 187.5t-40.5 238t41 238.5t109.5 188.5
t158.5 134t188.5 82.5t198.5 26.5q229 0 375 -82z" />
    <glyph glyph-name="D" unicode="D" horiz-adv-x="1318" 
d="M1245 653q0 -151 -57.5 -276t-155.5 -206.5t-224.5 -126t-266.5 -44.5h-422v1307h422q140 0 266.5 -44.5t224.5 -126.5t155.5 -207t57.5 -276zM983 651q0 108 -37.5 193.5t-103 139t-150.5 81t-184 27.5h-133v-881h133q99 0 184 27.5t150.5 80.5t103 138.5t37.5 193.5z
" />
    <glyph glyph-name="E" unicode="E" horiz-adv-x="925" 
d="M913 0h-794v1307h729v-215h-473v-328h393v-217h-393v-332h538v-215z" />
    <glyph glyph-name="F" unicode="F" horiz-adv-x="872" 
d="M860 1092h-485v-328h405v-217h-405v-547h-256v1307h741v-215z" />
    <glyph glyph-name="G" unicode="G" horiz-adv-x="1376" 
d="M1276 111q-172 -138 -481 -138q-108 0 -211.5 27.5t-196 84.5t-162 136.5t-110.5 191t-41 240.5q0 131 41.5 243.5t111.5 192t162 136t192.5 83.5t202.5 27q130 0 240.5 -28.5t183.5 -75.5l-47 -219q-69 44 -160.5 71t-187.5 27q-94 0 -180 -31t-153.5 -88t-107.5 -147
t-40 -199q0 -106 38.5 -193.5t104.5 -144t151.5 -87t180.5 -30.5q145 0 227 54v248h-262v202h504v-583z" />
    <glyph glyph-name="H" unicode="H" horiz-adv-x="1343" 
d="M1225 0h-258v545h-590v-545h-258v1307h258v-541h590v541h258v-1307z" />
    <glyph glyph-name="I" unicode="I" horiz-adv-x="538" 
d="M397 0h-258v1307h258v-1307z" />
    <glyph glyph-name="J" unicode="J" horiz-adv-x="544" 
d="M403 266q0 -99 -25 -186t-65.5 -149.5t-94 -111t-109.5 -76.5t-113 -40l-164 166q148 31 231.5 134.5t83.5 283.5v1020h256v-1041z" />
    <glyph glyph-name="K" unicode="K" horiz-adv-x="1157" 
d="M1139 0h-320l-440 573h-2v-573h-258v1307h258v-586h2l455 586h284l-497 -641z" />
    <glyph glyph-name="L" unicode="L" horiz-adv-x="923" 
d="M911 0h-792v1307h258v-1092h534v-215z" />
    <glyph glyph-name="M" unicode="M" horiz-adv-x="1685" 
d="M1608 0h-250l-47 537q-16 209 -17 268h-4q-41 -104 -129 -275l-274 -538h-101l-278 538q-56 110 -127 273h-4q-2 -77 -17 -266l-47 -537h-235l112 1307h193l317 -611q100 -192 148 -307h4q51 127 143 307l312 611h184z" />
    <glyph glyph-name="N" unicode="N" horiz-adv-x="1437" 
d="M1319 -20h-111l-563 614q-69 75 -274 315l-4 -2q4 -106 4 -301v-606h-252v1307h198l504 -551q153 -166 246 -283l4 2q-4 90 -4 277v555h252v-1327z" />
    <glyph glyph-name="O" unicode="O" horiz-adv-x="1544" 
d="M1470 655q0 -123 -38.5 -232.5t-105.5 -190.5t-155 -140t-190.5 -89t-208.5 -30t-208.5 30t-190.5 89t-155 140t-105.5 190.5t-38.5 232.5t38.5 231.5t105.5 189.5t155 140t190.5 89t208.5 30t208.5 -30t190.5 -89t155 -140t105.5 -189.5t38.5 -231.5zM1208 651
q0 136 -64.5 242t-162.5 159.5t-209 53.5q-83 0 -161 -31.5t-139.5 -88.5t-98.5 -144.5t-37 -190.5t37.5 -190t98.5 -144.5t139 -89.5t161 -32q81 0 159 32t139.5 88.5t99.5 144.5t38 191z" />
    <glyph glyph-name="P" unicode="P" horiz-adv-x="1046" 
d="M983 926q0 -89 -35 -162.5t-92.5 -120.5t-130 -72.5t-150.5 -25.5h-204v-545h-252v1307h456q106 0 197 -42.5t151 -131t60 -207.5zM729 920q0 83 -56.5 127.5t-137.5 44.5h-164v-344h164q80 0 137 44t57 128z" />
    <glyph glyph-name="Q" unicode="Q" horiz-adv-x="1544" 
d="M1554 -70l-145 -211q-14 -4 -51 -4q-97 0 -178.5 23t-171.5 74q-113 63 -316 165q-121 13 -231.5 66t-197 138t-138 208t-51.5 266q0 123 38.5 231.5t105.5 189.5t155 140t190.5 89t208.5 30t208.5 -30t190.5 -89t155 -140t105.5 -189.5t38.5 -231.5q0 -119 -39.5 -227
t-105.5 -187t-152 -131.5t-180 -70.5v-4q68 -10 195 -70q117 -57 229 -57q77 0 137 22zM1208 651q0 136 -64.5 242t-162.5 159.5t-209 53.5q-83 0 -161 -31.5t-139.5 -88.5t-98.5 -144.5t-37 -190.5t37.5 -190t98.5 -144.5t139 -89.5t161 -32q81 0 159 32t139.5 88.5
t99.5 144.5t38 191z" />
    <glyph glyph-name="R" unicode="R" horiz-adv-x="1114" 
d="M1180 0h-312l-381 545h-116v-545h-252v1307h436q106 0 197 -42.5t151 -131t60 -207.5q0 -118 -60 -204.5t-155 -127.5zM709 920q0 83 -57 127.5t-138 44.5h-143v-344h143q81 0 138 44t57 128z" />
    <glyph glyph-name="S" unicode="S" horiz-adv-x="999" 
d="M926 385q0 -184 -120 -291.5t-343 -107.5q-102 0 -196.5 25t-151.5 63l-27 252q77 -57 173.5 -90t195.5 -33q95 0 153 44.5t58 117.5t-45.5 117t-149.5 75q-362 107 -362 395q0 157 112.5 264t313.5 107q94 0 177.5 -22.5t127.5 -51.5l-49 -211q-43 27 -112.5 49.5
t-135.5 22.5q-87 0 -137 -41t-50 -102q0 -58 44 -95.5t137 -66.5t161 -65t120.5 -85.5t79 -117t26.5 -152.5z" />
    <glyph glyph-name="T" unicode="T" horiz-adv-x="1077" 
d="M1065 1092h-397v-1092h-258v1092h-398v215h1053v-215z" />
    <glyph glyph-name="U" unicode="U" horiz-adv-x="1337" 
d="M1219 465q0 -151 -73 -264t-197 -170.5t-279 -57.5q-116 0 -216.5 34t-175 96t-117 155.5t-42.5 206.5v842h258v-820q0 -132 78 -210t217 -78t217 77t78 209v822h252v-842z" />
    <glyph glyph-name="V" unicode="V" horiz-adv-x="1218" 
d="M1188 1307l-498 -1321h-162l-497 1321h266l223 -600q43 -115 98 -299h5q47 166 96 299l223 600h246z" />
    <glyph glyph-name="W" unicode="W" horiz-adv-x="1867" 
d="M1837 1307l-451 -1321h-135l-217 639q-54 153 -100 321h-4q-41 -149 -99 -321l-217 -639h-135l-448 1321h254l190 -566q58 -163 84 -280h4q36 146 82 280l191 566h221l190 -566q43 -125 82 -280h4q31 134 82 280l193 566h229z" />
    <glyph glyph-name="X" unicode="X" horiz-adv-x="1282" 
d="M1208 0h-286l-195 313q-2 3 -90 158h-4q-58 -105 -92 -158l-197 -313h-270l418 662l-398 645h285l184 -295q43 -69 82 -148h4q32 64 84 148l187 295h268l-397 -633z" />
    <glyph glyph-name="Y" unicode="Y" horiz-adv-x="1300" 
d="M1270 1307l-494 -713v-594h-252v590l-493 717h278l240 -342q37 -53 108 -170h5q66 110 110 170l238 342h260z" />
    <glyph glyph-name="Z" unicode="Z" horiz-adv-x="1103" 
d="M1030 0h-956v61l391 695q68 122 201 334l-2 2h-558v215h902v-62l-396 -696q-62 -110 -198 -332l2 -2h614v-215z" />
    <glyph glyph-name="bracketleft" unicode="[" horiz-adv-x="616" 
d="M604 -453h-485v1893h485v-203h-246v-1487h246v-203z" />
    <glyph glyph-name="backslash" unicode="\" horiz-adv-x="1003" 
d="M1077 -256l-168 -88l-846 1655l168 88z" />
    <glyph glyph-name="bracketright" unicode="]" horiz-adv-x="616" 
d="M498 -453h-486v203h246v1487h-246v203h486v-1893z" />
    <glyph glyph-name="asciicircum" unicode="^" 
d="M870 1098l-139 -60q-138 81 -229 160q-125 -105 -219 -160l-129 58q73 56 153.5 136.5t136.5 158.5q13 18 33 30.5t35 12.5q16 0 35.5 -12t32.5 -31q56 -79 136 -158.5t154 -134.5z" />
    <glyph glyph-name="underscore" unicode="_" horiz-adv-x="1075" 
d="M1079 -473h-1081v194h1081v-194z" />
    <glyph glyph-name="grave" unicode="`" 
d="M645 1098l-139 -60q-178 106 -295 228q-35 35 -35 59q0 25 42 67t69 42q13 0 33.5 -12t33.5 -31q56 -78 136 -157.5t155 -135.5z" />
    <glyph glyph-name="a" unicode="a" horiz-adv-x="935" 
d="M922 113l-164 -144q-48 10 -90 45.5t-56 87.5q-60 -129 -245 -129q-131 0 -218.5 85t-87.5 212q0 126 89.5 206t222.5 93l202 19v45q0 56 -40.5 89.5t-122.5 33.5q-66 0 -136 -20.5t-122 -53.5l-45 192q125 80 315 80q175 0 281 -87t106 -249v-339q0 -136 111 -166z
M575 334v82l-145 -13q-69 -6 -104 -44t-35 -89q0 -44 32 -76t83 -32q70 0 119.5 48.5t49.5 123.5z" />
    <glyph glyph-name="b" unicode="b" horiz-adv-x="1124" 
d="M1061 475q0 -222 -140.5 -361t-388.5 -139q-127 0 -240 37.5t-181 89.5v1356h239v-573q29 26 101 46.5t143 20.5q130 0 236.5 -59t168.5 -168.5t62 -249.5zM815 463q0 117 -73 195.5t-183 78.5q-72 0 -127 -25.5t-82 -56.5v-430q26 -17 75 -31t95 -14q136 0 215.5 77.5
t79.5 205.5z" />
    <glyph glyph-name="c" unicode="c" horiz-adv-x="921" 
d="M858 874l-45 -208q-97 63 -221 63q-116 0 -197.5 -75t-81.5 -195q0 -119 83 -195t200 -76q112 0 223 54l-24 -213q-91 -45 -234 -45q-96 0 -185 33.5t-159 94t-112 152t-42 199.5q0 109 42 201.5t112 152.5t159 93.5t183 33.5q175 0 299 -70z" />
    <glyph glyph-name="d" unicode="d" horiz-adv-x="1126" 
d="M1016 0h-219v109h-2q-37 -60 -110.5 -97t-174.5 -37q-82 0 -160.5 32t-143 91.5t-104 154.5t-39.5 210q0 216 136 352.5t336 136.5q72 0 143 -21t100 -48v575h238v-1458zM778 287v362q-28 34 -82 61t-127 27q-111 0 -186.5 -79t-75.5 -199q0 -122 75.5 -200.5
t186.5 -78.5q72 0 125.5 31t83.5 76z" />
    <glyph glyph-name="e" unicode="e" horiz-adv-x="1005" 
d="M942 592q0 -44 -6 -74l-119 -119h-506q7 -81 89 -150t212 -69q157 0 265 74l-25 -221q-120 -60 -285 -60q-137 0 -252 60.5t-184.5 174t-69.5 257.5q0 112 40 206t106.5 155t151.5 94.5t176 33.5q93 0 171 -31t129 -82t79 -115.5t28 -133.5zM709 598q0 62 -48.5 113
t-121.5 51q-76 0 -141.5 -54t-80.5 -133h390q0 4 1 11.5t1 11.5z" />
    <glyph glyph-name="f" unicode="f" horiz-adv-x="708" 
d="M772 1427l-45 -196q-71 29 -129 29q-190 0 -190 -230v-102h282l-47 -197h-235v-731h-240v731h-150v197h150v119q0 199 109.5 305t293.5 106q125 0 201 -31z" />
    <glyph glyph-name="g" unicode="g" horiz-adv-x="966" 
d="M928 -154q0 -138 -119.5 -228.5t-310.5 -90.5q-194 0 -315.5 96.5t-121.5 243.5q0 106 59 173.5t140 86.5l-113 111q3 46 37.5 85.5t79.5 55.5q-63 36 -104 102t-41 150q0 144 100 233.5t266 89.5q70 0 129 -16t131 -16q80 0 142 32l43 -190q-49 -29 -115 -29
q33 -47 33 -114q0 -124 -89.5 -214t-234.5 -94q-45 -2 -66.5 -11t-21.5 -32q0 -22 25 -30l196 -70q135 -48 203 -124.5t68 -199.5zM633 633q0 55 -42.5 96t-105.5 41t-106 -41t-43 -96q0 -56 42.5 -95.5t106.5 -39.5q60 0 104 40t44 95zM694 -152q0 44 -30 78t-86 51
l-136 39q-69 -1 -112 -42.5t-43 -104.5q0 -62 54.5 -106t152.5 -44q94 0 147 38.5t53 90.5z" />
    <glyph glyph-name="h" unicode="h" horiz-adv-x="1060" 
d="M958 0h-243v584q0 67 -44 113t-132 46q-86 0 -135.5 -47.5t-49.5 -115.5v-580h-243v1458h241v-620h2q77 114 267 114q154 0 245.5 -86t91.5 -235v-631z" />
    <glyph glyph-name="i" unicode="i" horiz-adv-x="477" 
d="M375 1219q0 -34 -50 -86t-85 -52q-34 0 -86 52t-52 86t52 85.5t86 51.5q35 0 85 -51.5t50 -85.5zM362 0h-247v928h247v-928z" />
    <glyph glyph-name="j" unicode="j" horiz-adv-x="477" 
d="M375 1219q0 -34 -50 -86t-85 -52q-34 0 -86 52t-52 86t52 85.5t86 51.5q35 0 85 -51.5t50 -85.5zM362 -74q0 -152 -86 -260t-206 -141l-150 145q195 52 195 273v985h247v-1002z" />
    <glyph glyph-name="k" unicode="k" horiz-adv-x="980" 
d="M981 0h-297l-330 406h-2v-406h-241v1458h241v-940h2l336 410h275l-367 -455z" />
    <glyph glyph-name="l" unicode="l" horiz-adv-x="514" 
d="M477 147l-115 -184q-49 5 -92 23t-80 52t-58 90t-21 128v1202h241v-1171q0 -58 35.5 -96t89.5 -44z" />
    <glyph glyph-name="m" unicode="m" horiz-adv-x="1613" 
d="M1513 0h-243v584q0 159 -166 159q-90 0 -132 -46t-42 -117v-580h-244v584q0 159 -166 159q-90 0 -132 -46t-42 -117v-580h-244v928h220l4 -125h2q65 149 274 149q95 0 168.5 -37.5t106.5 -105.5q35 63 114.5 103t179.5 40q160 0 251 -86t91 -237v-629z" />
    <glyph glyph-name="n" unicode="n" horiz-adv-x="1052" 
d="M950 0h-243v584q0 67 -44.5 113t-132.5 46q-86 0 -135 -47.5t-49 -115.5v-580h-244v928h222v-123h2q64 147 286 147q154 0 246 -86t92 -235v-631z" />
    <glyph glyph-name="o" unicode="o" horiz-adv-x="1124" 
d="M1061 463q0 -215 -143 -352.5t-355 -137.5t-356 137.5t-144 352.5q0 216 143.5 353.5t356.5 137.5q138 0 251 -61t180 -174t67 -256zM819 459q0 122 -75.5 201t-180.5 79t-180.5 -79t-75.5 -201q0 -120 75.5 -199.5t180.5 -79.5t180.5 79.5t75.5 199.5z" />
    <glyph glyph-name="p" unicode="p" horiz-adv-x="1118" 
d="M1055 465q0 -216 -135.5 -353t-335.5 -137q-71 0 -143 21.5t-101 48.5v-518h-238v1401h220v-109h2q37 60 110 96.5t174 36.5q82 0 160.5 -32t143 -91t104 -154t39.5 -210zM811 459q0 122 -75 200t-187 78q-72 0 -125.5 -30.5t-83.5 -75.5v-363q28 -34 82 -61t127 -27
q111 0 186.5 79t75.5 200z" />
    <glyph glyph-name="q" unicode="q" horiz-adv-x="1114" 
d="M1014 -473h-240v518q-30 -27 -97.5 -48.5t-137.5 -21.5q-205 0 -340.5 136.5t-135.5 345.5q0 217 140 356t370 139q86 0 158.5 -22.5t118.5 -50.5l96 71h68v-1423zM774 262v412q-25 23 -79 43t-101 20q-128 0 -207.5 -78t-79.5 -204q0 -116 78.5 -195.5t189.5 -79.5
q127 0 199 82z" />
    <glyph glyph-name="r" unicode="r" horiz-adv-x="714" 
d="M700 930l-61 -258q-37 14 -78 14q-93 0 -154 -54.5t-61 -180.5v-451h-244v928h242v-199h2q24 102 95 157.5t169 55.5q60 0 90 -12z" />
    <glyph glyph-name="s" unicode="s" horiz-adv-x="786" 
d="M725 268q0 -123 -90.5 -203.5t-259.5 -80.5q-158 0 -275 65l-26 232q59 -45 135.5 -74t152.5 -29q52 0 84.5 24t32.5 60q0 37 -26 61t-80 42q-142 46 -213.5 117t-71.5 182q0 125 91.5 202.5t236.5 77.5q76 0 149.5 -18t108.5 -39l-43 -189q-89 56 -201 56
q-47 0 -74.5 -22t-27.5 -58q0 -33 24.5 -53.5t81.5 -38.5q148 -46 219.5 -121.5t71.5 -192.5z" />
    <glyph glyph-name="t" unicode="t" horiz-adv-x="757" 
d="M741 928l-43 -197h-270v-420q0 -68 34.5 -97.5t104.5 -29.5q43 0 80 13l-20 -189q-45 -20 -121 -20q-144 0 -231 75t-87 209v459h-170v197h170v192l240 105v-297h313z" />
    <glyph glyph-name="u" unicode="u" horiz-adv-x="1052" 
d="M950 0h-223v123h-2q-64 -148 -285 -148q-153 0 -245.5 87t-92.5 237v629h244v-582q0 -68 44 -115t132 -47q86 0 135.5 48t49.5 116v580h243v-928z" />
    <glyph glyph-name="v" unicode="v" horiz-adv-x="956" 
d="M926 928l-373 -940h-150l-372 940h239l150 -385q39 -108 63 -195h4q21 76 64 195l149 385h226z" />
    <glyph glyph-name="w" unicode="w" horiz-adv-x="1435" 
d="M1405 928l-338 -940h-137l-148 409q-30 83 -65 215h-4q-22 -93 -62 -211l-147 -413h-133l-338 940h225l131 -375q26 -76 53 -191h4q23 97 56 191l133 375h180l133 -375q18 -53 53 -191h5q37 145 53 191l133 375h213z" />
    <glyph glyph-name="x" unicode="x" horiz-adv-x="956" 
d="M893 0h-254l-111 193q-36 66 -51 98h-4q-8 -21 -29.5 -57.5t-23.5 -40.5l-111 -193h-246l277 467l-264 461h252l102 -180q32 -58 47 -89h4q9 21 49 89l105 180h246l-265 -449z" />
    <glyph glyph-name="y" unicode="y" horiz-adv-x="978" 
d="M948 928l-327 -838q-52 -131 -107 -229.5t-114.5 -164.5t-118.5 -108t-129 -71l-152 151q124 50 214.5 144.5t156.5 261.5l-340 854h241l152 -389q57 -158 68 -199h4q40 116 71 197l154 391h227z" />
    <glyph glyph-name="z" unicode="z" horiz-adv-x="886" 
d="M823 0h-760v47l261 453q76 133 137 227l-2 4h-363v197h692v-47l-262 -455q-54 -92 -137 -225l2 -2h432v-199z" />
    <glyph glyph-name="braceleft" unicode="{" horiz-adv-x="679" 
d="M668 -262l-35 -193q-214 0 -326 143.5t-112 383.5q0 149 -42.5 253.5t-140.5 166.5q97 62 140 167t43 254q0 239 112 382t326 143l35 -193q-120 0 -178 -83.5t-58 -237.5q0 -149 -37.5 -253.5t-120.5 -178.5q158 -137 158 -433q0 -321 236 -321z" />
    <glyph glyph-name="bar" unicode="|" horiz-adv-x="434" 
d="M313 -473h-194v1931h194v-1931z" />
    <glyph glyph-name="braceright" unicode="}" horiz-adv-x="679" 
d="M668 492q-98 -62 -140.5 -166.5t-42.5 -253.5q0 -240 -112 -383.5t-326 -143.5l-35 193q120 0 178 83.5t58 237.5q0 296 158 433q-83 74 -120.5 178.5t-37.5 253.5q0 321 -236 321l35 193q214 0 326 -143t112 -382q0 -149 42.5 -253.5t140.5 -167.5z" />
    <glyph glyph-name="asciitilde" unicode="~" horiz-adv-x="796" 
d="M723 662q-42 -75 -112 -154.5t-113 -79.5q-31 0 -100.5 41t-86.5 41q-6 0 -12.5 -2.5t-14 -7.5t-14 -10t-14.5 -13.5t-14 -14.5t-14 -16.5t-12.5 -15.5t-12.5 -15.5t-10 -13.5l-119 52q41 74 111.5 152.5t113.5 78.5q31 0 100 -40t86 -40q34 0 112 100q3 3 4.5 5t2.5 4z
" />
    <glyph glyph-name="exclamdown" unicode="&#xa1;" horiz-adv-x="548" 
d="M414 1186q0 -34 -56 -90t-92 -56q-35 0 -91 55.5t-56 90.5q0 36 55.5 91.5t91.5 55.5t92 -55.5t56 -91.5zM412 0h-279l37 924l205 -43z" />
    <glyph glyph-name="cent" unicode="&#xa2;" horiz-adv-x="921" 
d="M633 0h-137v172q-87 11 -164.5 48.5t-137.5 97t-95.5 145t-35.5 184.5q0 100 35.5 185.5t96 145t138 97.5t163.5 49v183h137v-183q129 -12 225 -65l-45 -209q-97 63 -221 63q-114 0 -196.5 -75.5t-82.5 -194.5t83 -194.5t200 -75.5q114 0 223 53l-24 -213
q-64 -31 -162 -41v-172z" />
    <glyph glyph-name="sterling" unicode="&#xa3;" horiz-adv-x="911" 
d="M838 176l-43 -203q-134 56 -312 56q-175 0 -309 -56l-106 142q100 151 100 395v80h-150v133h150v184q0 204 113 313t303 109q123 0 204 -33l-45 -196q-64 28 -133 28q-200 0 -200 -233v-172h239l-31 -133h-208v-88q0 -95 -20.5 -177.5t-51.5 -123.5q77 24 192 24
q166 0 308 -49z" />
    <glyph glyph-name="currency" unicode="&#xa4;" horiz-adv-x="1017" 
d="M737 602l-28 -133h-289q32 -143 115 -215t190 -72q115 0 188 45l-24 -209q-71 -41 -205 -41q-182 0 -322.5 128t-183.5 364h-160v133h146q0 8 -1 25t-1 26q0 10 1 30.5t1 29.5h-146v133h162q30 155 106.5 266t178 164t219.5 53q159 0 260 -61l-43 -195q-76 51 -186 51
q-105 0 -183 -69.5t-110 -208.5h334l-27 -133h-326q-2 -20 -2 -62q0 -8 1 -24.5t1 -24.5h334z" />
    <glyph glyph-name="yen" unicode="&#xa5;" horiz-adv-x="1081" 
d="M1051 1307l-342 -678h249v-135h-294v-494h-246v494h-295v135h250l-342 678h256l182 -365q37 -76 80 -182h4q67 152 82 182l182 365h234z" />
    <glyph glyph-name="brokenbar" unicode="&#xa6;" horiz-adv-x="479" 
d="M338 614h-195v844h195v-844zM338 -473h-195v844h195v-844z" />
    <glyph glyph-name="section" unicode="&#xa7;" horiz-adv-x="1009" 
d="M891 -98q0 -153 -113.5 -259t-302.5 -106q-183 0 -319 72l47 213q117 -70 258 -70q90 0 137 41t47 105q0 17 -11 45t-28 45l-477 485l64 277q-74 103 -74 219q0 153 113.5 258.5t302.5 105.5q185 0 319 -71l-47 -213q-116 69 -258 69q-90 0 -137 -40.5t-47 -104.5
q0 -18 10.5 -45.5t27.5 -44.5l478 -484l-64 -278q74 -103 74 -219zM731 287l-424 426l-28 -129l421 -426z" />
    <glyph glyph-name="dieresis" unicode="&#xa8;" 
d="M803 1159q0 -28 -45.5 -74.5t-75.5 -46.5t-75.5 46.5t-45.5 74.5q0 31 45 77t76 46t76 -46t45 -77zM463 1159q0 -28 -45.5 -74.5t-75.5 -46.5q-28 0 -74.5 46.5t-46.5 74.5q0 30 46.5 76.5t74.5 46.5q31 0 76 -46t45 -77z" />
    <glyph glyph-name="copyright" unicode="&#xa9;" horiz-adv-x="1239" 
d="M1165 512q0 -156 -71.5 -280t-196 -192.5t-276.5 -68.5q-151 0 -276 68.5t-198 193t-73 279.5q0 156 73 281t197.5 193.5t276.5 68.5q151 0 275.5 -68.5t196.5 -193.5t72 -281zM1034 512q0 182 -115 302t-298 120q-184 0 -300 -120t-116 -302q0 -181 116 -301.5
t300 -120.5q181 0 297 120t116 302zM821 760l-33 -148q-23 17 -60 29t-69 12q-58 0 -98.5 -38.5t-40.5 -100.5q0 -60 42.5 -98.5t103.5 -38.5q67 0 129 33l-17 -150q-60 -31 -133 -31q-120 0 -209.5 79t-89.5 208t90 209t209 80q112 0 176 -45z" />
    <glyph glyph-name="ordfeminine" unicode="&#xaa;" horiz-adv-x="788" 
d="M766 672l-139 -123q-37 8 -71 32.5t-50 61.5q-53 -90 -195 -90q-107 0 -178.5 68.5t-71.5 171.5q0 101 73.5 164.5t182.5 74.5l154 17v30q0 41 -30 65.5t-93 24.5q-119 0 -211 -61l-37 162q106 67 258 67q143 0 229.5 -70t86.5 -200v-268q0 -102 92 -127zM471 844v59
l-123 -12q-44 -4 -68 -34t-24 -69q0 -34 23.5 -56.5t58.5 -22.5q50 0 91.5 38t41.5 97zM518 301q0 -29 -47 -76t-78 -47q-29 0 -76 47t-47 76q0 31 47 78t76 47q31 0 78 -47t47 -78z" />
    <glyph glyph-name="guillemotleft" unicode="&#xab;" horiz-adv-x="860" 
d="M793 207l-33 -74q-122 158 -271 266q-17 11 -27.5 30t-10.5 34q0 14 10.5 32.5t27.5 30.5q72 54 145.5 127t125.5 140l33 -74q-54 -142 -121 -256q57 -97 121 -256zM373 207l-33 -74q-53 69 -126 142t-144 124q-18 11 -28.5 30t-10.5 34q0 14 11 32.5t28 30.5
q72 53 145 126t125 141l33 -74q-54 -142 -121 -256q57 -97 121 -256z" />
    <glyph glyph-name="logicalnot" unicode="&#xac;" horiz-adv-x="1042" 
d="M940 258h-201v211h-669v195h870v-406z" />
    <glyph glyph-name="registered" unicode="&#xae;" horiz-adv-x="964" 
d="M901 920q0 -180 -121.5 -298t-298.5 -118q-180 0 -300 118t-120 298t120 297.5t300 117.5q177 0 298.5 -118t121.5 -297zM805 920q0 143 -93 235t-231 92q-141 0 -233 -91.5t-92 -235.5t92 -235t233 -91q138 0 231 92.5t93 233.5zM696 727l-90 -57l-127 190h-47v-188
h-106v495h157q67 0 118.5 -42t51.5 -111q0 -40 -19.5 -72.5t-51.5 -52.5zM545 1014q0 30 -20.5 46.5t-53.5 16.5h-39v-125h39q33 0 53.5 16t20.5 46z" />
    <glyph glyph-name="macron" unicode="&#xaf;" 
d="M717 1065h-404v166h404v-166z" />
    <glyph glyph-name="macron" unicode="&#x2c9;" 
d="M717 1065h-404v166h404v-166z" />
    <glyph glyph-name="degree" unicode="&#xb0;" horiz-adv-x="624" 
d="M557 1094q0 -100 -72 -172t-172 -72t-172.5 72t-72.5 172q0 99 72.5 170t172.5 71t172 -71t72 -170zM406 1094q0 44 -26 73t-67 29t-68.5 -29t-27.5 -73t27.5 -73.5t68.5 -29.5t67 29t26 74z" />
    <glyph glyph-name="plusminus" unicode="&#xb1;" horiz-adv-x="1728" 
d="M1692 147l-115 -184q-49 5 -92.5 23t-80 52t-58 90t-21.5 128v954q-29 24 -71 38t-83 14q-186 0 -186 -230v-104h172v-197h-172v-731h-237v731h-340v-731h-240v731h-150v197h150v119q0 199 109.5 305t293.5 106q168 0 308 -88q105 88 270 88q246 0 418 -160v-1011
q0 -58 35.5 -96t89.5 -44zM768 1198q-79 64 -174 64q-186 0 -186 -230v-104h340v119q0 87 20 151z" />
    <glyph glyph-name="twosuperior" unicode="&#xb2;" horiz-adv-x="720" 
d="M627 506h-570v43q176 153 270.5 281.5t94.5 213.5q0 68 -43.5 108t-116.5 40q-88 0 -174 -49l-29 135q87 53 215 53q148 0 229 -75t81 -205q0 -89 -63 -195.5t-175 -214.5h281v-135z" />
    <glyph glyph-name="threesuperior" unicode="&#xb3;" horiz-adv-x="628" 
d="M557 754q0 -119 -84.5 -189.5t-230.5 -70.5q-87 0 -154 28l-16 150q71 -41 149 -41q68 0 116 35t48 100q0 52 -43.5 89.5t-103.5 37.5q-13 0 -29 -2l-27 123q64 12 104 41t40 65q0 33 -26.5 53.5t-66.5 20.5q-62 0 -129 -37l-30 133q77 41 174 41q108 0 176 -53t68 -137
q0 -54 -31 -93.5t-78 -60.5q75 -24 124.5 -84t49.5 -149z" />
    <glyph glyph-name="acute" unicode="&#xb4;" 
d="M840 1329q0 -17 -35 -57q-122 -128 -299 -234l-127 56q181 143 291 299q13 19 31.5 30t31.5 11q25 0 66 -41t41 -64z" />
    <glyph glyph-name="mu" unicode="&#xb5;" horiz-adv-x="1210" 
d="M1151 313q0 -53 -35.5 -83.5t-79.5 -30.5v-199h-966v928h966v-500zM977 483v303h-303zM446 786h-317q0 -66 46 -111.5t112 -45.5t112.5 45.5t46.5 111.5zM977 59v164l-778 367q-40 18 -70 55v-586h848z" />
    <glyph glyph-name="mu" unicode="&#x3bc;" horiz-adv-x="1210" 
d="M1151 313q0 -53 -35.5 -83.5t-79.5 -30.5v-199h-966v928h966v-500zM977 483v303h-303zM446 786h-317q0 -66 46 -111.5t112 -45.5t112.5 45.5t46.5 111.5zM977 59v164l-778 367q-40 18 -70 55v-586h848z" />
    <glyph glyph-name="paragraph" unicode="&#xb6;" horiz-adv-x="940" 
d="M928 1116h-152v-1190q0 -152 -86 -261t-205 -142l-153 151q92 23 145 89.5t53 177.5v555h-16q-118 0 -219 46t-166.5 140.5t-65.5 220.5q0 95 38 174.5t101.5 131t144.5 80t169 28.5h412v-201z" />
    <glyph glyph-name="periodcentered" unicode="&#xb7;" horiz-adv-x="430" 
d="M362 555q0 -36 -55.5 -91.5t-91.5 -55.5t-91.5 55.5t-55.5 91.5q0 34 55.5 89.5t91.5 55.5q35 0 91 -55t56 -90z" />
    <glyph glyph-name="periodcentered" unicode="&#x2219;" horiz-adv-x="430" 
d="M362 555q0 -36 -55.5 -91.5t-91.5 -55.5t-91.5 55.5t-55.5 91.5q0 34 55.5 89.5t91.5 55.5q35 0 91 -55t56 -90z" />
    <glyph glyph-name="cedilla" unicode="&#xb8;" 
d="M688 -264q0 -100 -69 -157.5t-162 -57.5q-94 0 -160 47l25 117q56 -41 133 -41q37 0 62.5 24t25.5 62q0 37 -24.5 61.5t-49.5 24.5q-46 0 -66.5 24t-11.5 60l25 100h86l-13 -55q77 -3 138 -62t61 -147z" />
    <glyph glyph-name="onesuperior" unicode="&#xb9;" horiz-adv-x="528" 
d="M381 506h-162v663l-158 -16l33 150l287 28v-825z" />
    <glyph glyph-name="ordmasculine" unicode="&#xba;" horiz-adv-x="929" 
d="M868 944q0 -172 -116 -281.5t-287 -109.5q-172 0 -288 109.5t-116 281.5t116.5 282.5t287.5 110.5t287 -110.5t116 -282.5zM657 944q0 93 -56.5 153t-135.5 60q-80 0 -136.5 -60t-56.5 -153q0 -92 57 -153.5t136 -61.5q78 0 135 61.5t57 153.5zM588 301
q0 -30 -46.5 -76.5t-76.5 -46.5q-29 0 -75 47t-46 76q0 31 46 78t75 47q31 0 77 -47t46 -78z" />
    <glyph glyph-name="guillemotright" unicode="&#xbb;" horiz-adv-x="860" 
d="M829 463q0 -14 -11.5 -33.5t-29.5 -30.5q-73 -53 -147.5 -126.5t-122.5 -139.5l-31 74q62 163 119 256q-57 93 -119 256l31 74q48 -65 122 -138.5t148 -128.5q17 -12 29 -30.5t12 -32.5zM410 463q0 -15 -10.5 -34t-28.5 -30q-74 -53 -148.5 -126.5t-122.5 -139.5l-32 74
q60 159 120 256q-60 97 -120 256l32 74q48 -65 122 -138.5t149 -128.5q17 -12 28 -30.5t11 -32.5z" />
    <glyph glyph-name="onequarter" unicode="&#xbc;" horiz-adv-x="1511" 
d="M1425 227h-102v-227h-162v227h-342l-28 129l376 457h156v-455h102v-131zM1167 621l-4 2q-30 -54 -63 -93l-139 -172h200v177q0 39 6 86zM1280 1262l-1044 -1293l-97 76l1049 1292zM381 506h-162v663l-158 -16l33 150l287 28v-825z" />
    <glyph glyph-name="onehalf" unicode="&#xbd;" horiz-adv-x="1632" 
d="M1550 0h-571v43q176 153 270 282t94 214q0 68 -42 107.5t-115 39.5q-88 0 -174 -49l-31 135q87 53 217 53q148 0 228.5 -74.5t80.5 -205.5q0 -89 -62.5 -195.5t-174.5 -214.5h280v-135zM1280 1262l-1044 -1293l-97 76l1049 1292zM381 506h-162v663l-158 -16l33 150
l287 28v-825z" />
    <glyph glyph-name="threequarters" unicode="&#xbe;" horiz-adv-x="1568" 
d="M1491 221h-100v-221h-160v221h-330l-33 129l375 463h148v-457h100v-135zM1239 608l-4 2q-26 -44 -61 -88l-136 -166h195v168q0 40 6 84zM1358 1262l-1047 -1293l-96 76l1049 1292zM557 754q0 -119 -84.5 -189.5t-230.5 -70.5q-87 0 -154 28l-16 150q71 -41 149 -41
q68 0 116 35t48 100q0 52 -43.5 89.5t-103.5 37.5q-13 0 -29 -2l-27 123q64 12 104 41t40 65q0 33 -26.5 53.5t-66.5 20.5q-62 0 -129 -37l-30 133q77 41 174 41q108 0 176 -53t68 -137q0 -54 -31 -93.5t-78 -60.5q75 -24 124.5 -84t49.5 -149z" />
    <glyph glyph-name="questiondown" unicode="&#xbf;" horiz-adv-x="778" 
d="M561 1188q0 -34 -55.5 -90t-91.5 -56q-37 0 -92.5 55.5t-55.5 90.5q0 36 56 91.5t92 55.5t91.5 -55.5t55.5 -91.5zM729 49q-118 -76 -276 -76q-170 0 -276.5 92t-106.5 246q0 86 42.5 160.5t131.5 171.5q78 83 78 178q0 60 -9 107l213 -43q15 -59 15 -105
q0 -166 -119 -288q-52 -54 -74 -93.5t-22 -91.5q0 -44 37 -81.5t100 -37.5q101 0 217 70z" />
    <glyph glyph-name="Agrave" unicode="&#xc0;" horiz-adv-x="1277" 
d="M1247 0h-258l-125 315h-461l-124 -315h-248l536 1321h146zM791 516l-109 283q-33 92 -47 141h-4q-12 -49 -45 -141l-111 -283h316zM840 1507l-140 -59q-178 106 -294 227q-35 35 -35 60t41.5 66.5t68.5 41.5q14 0 34.5 -12t33.5 -31q56 -78 136 -157.5t155 -135.5z" />
    <glyph glyph-name="Aacute" unicode="&#xc1;" horiz-adv-x="1277" 
d="M1247 0h-258l-125 315h-461l-124 -315h-248l536 1321h146zM791 516l-109 283q-33 92 -47 141h-4q-12 -49 -45 -141l-111 -283h316zM913 1739q0 -19 -34 -58q-120 -125 -299 -233l-127 55q77 60 156 140t134 159q13 19 31.5 30t32.5 11q25 0 65.5 -40.5t40.5 -63.5z" />
    <glyph glyph-name="Acircumflex" unicode="&#xc2;" horiz-adv-x="1277" 
d="M1247 0h-258l-125 315h-461l-124 -315h-248l536 1321h146zM791 516l-109 283q-33 92 -47 141h-4q-12 -49 -45 -141l-111 -283h316zM997 1507l-139 -59q-138 81 -229 160q-125 -105 -219 -160l-129 57q73 56 153.5 136.5t136.5 158.5q13 18 33 30.5t35 12.5q16 0 35.5 -12
t32.5 -31q56 -79 136 -158.5t154 -134.5z" />
    <glyph glyph-name="Atilde" unicode="&#xc3;" horiz-adv-x="1277" 
d="M1247 0h-258l-125 315h-461l-124 -315h-248l536 1321h146zM791 516l-109 283q-33 92 -47 141h-4q-12 -49 -45 -141l-111 -283h316zM1038 1757q-50 -88 -131 -180t-131 -92q-37 0 -117.5 48t-101.5 48q-44 0 -139 -129l-139 61q49 87 131.5 180t132.5 93q37 0 117 -48
t100 -48q44 0 139 129z" />
    <glyph glyph-name="Adieresis" unicode="&#xc4;" horiz-adv-x="1277" 
d="M1247 0h-258l-125 315h-461l-124 -315h-248l536 1321h146zM791 516l-109 283q-33 92 -47 141h-4q-12 -49 -45 -141l-111 -283h316zM930 1569q0 -28 -45.5 -74.5t-75.5 -46.5t-75.5 46.5t-45.5 74.5q0 31 45 77t76 46t76 -46t45 -77zM590 1569q0 -28 -45.5 -74.5
t-75.5 -46.5q-28 0 -74.5 46.5t-46.5 74.5q0 30 46.5 76.5t74.5 46.5q31 0 76 -46t45 -77z" />
    <glyph glyph-name="Aring" unicode="&#xc5;" horiz-adv-x="1277" 
d="M1247 0h-258l-125 315h-461l-124 -315h-248l536 1321h146zM791 516l-109 283q-33 92 -47 141h-4q-12 -49 -45 -141l-111 -283h316zM887 1665q0 -100 -73 -172t-173 -72t-173 72t-73 172t73 172t173 72t173 -72t73 -172zM735 1665q0 44 -26.5 73t-67.5 29t-67.5 -29
t-26.5 -73t26.5 -73t67.5 -29t67.5 29t26.5 73z" />
    <glyph glyph-name="AE" unicode="&#xc6;" horiz-adv-x="1662" 
d="M1651 0h-779v315h-401l-184 -315h-256l757 1307h797v-215h-473v-328h393v-217h-393v-332h539v-215zM877 1092l-5 2q-35 -87 -94 -197l-209 -379h303v381q0 13 5 193z" />
    <glyph glyph-name="Ccedilla" unicode="&#xc7;" horiz-adv-x="1218" 
d="M1145 1241l-47 -223q-52 32 -133 55t-166 23q-92 0 -175 -30t-148 -85.5t-103.5 -141.5t-38.5 -190q0 -138 66.5 -241t172.5 -154t234 -51q186 0 303 65l-23 -227q-104 -52 -301 -55l-10 -41q77 -3 138 -62t61 -147q0 -100 -69.5 -157.5t-162.5 -57.5t-159 47l24 117
q56 -41 133 -41q37 0 62.5 24t25.5 62q0 37 -24 61.5t-49 24.5q-46 0 -66.5 24t-11.5 60l22 90q-95 9 -184.5 40.5t-170 88t-140.5 132t-95.5 179.5t-35.5 223q0 128 41 238.5t109.5 188.5t158.5 134t188.5 82.5t198.5 26.5q229 0 375 -82z" />
    <glyph glyph-name="Egrave" unicode="&#xc8;" horiz-adv-x="925" 
d="M913 0h-794v1307h729v-215h-473v-328h393v-217h-393v-332h538v-215zM692 1507l-139 -59q-181 107 -295 227q-35 35 -35 60t42 66.5t69 41.5q13 0 33.5 -12t33.5 -31q56 -78 136 -157.5t155 -135.5z" />
    <glyph glyph-name="Eacute" unicode="&#xc9;" horiz-adv-x="925" 
d="M913 0h-794v1307h729v-215h-473v-328h393v-217h-393v-332h538v-215zM797 1739q0 -18 -35 -58q-120 -125 -299 -233l-127 55q181 143 291 299q13 19 31.5 30t31.5 11q25 0 66 -40.5t41 -63.5z" />
    <glyph glyph-name="Ecircumflex" unicode="&#xca;" horiz-adv-x="925" 
d="M913 0h-794v1307h729v-215h-473v-328h393v-217h-393v-332h538v-215zM866 1507l-139 -59q-138 81 -229 160q-125 -105 -219 -160l-129 57q73 56 153.5 136.5t136.5 158.5q13 18 33 30.5t35 12.5q16 0 35 -12t32 -31q56 -78 136 -157.5t155 -135.5z" />
    <glyph glyph-name="Edieresis" unicode="&#xcb;" horiz-adv-x="925" 
d="M913 0h-794v1307h729v-215h-473v-328h393v-217h-393v-332h538v-215zM791 1569q0 -28 -45.5 -74.5t-75.5 -46.5t-75.5 46.5t-45.5 74.5q0 31 45 77t76 46t76 -46t45 -77zM451 1569q0 -28 -45.5 -74.5t-75.5 -46.5q-28 0 -74.5 46.5t-46.5 74.5q0 30 46.5 76.5t74.5 46.5
q31 0 76 -46t45 -77z" />
    <glyph glyph-name="Igrave" unicode="&#xcc;" horiz-adv-x="538" 
d="M397 0h-258v1307h258v-1307zM461 1507l-139 -59q-181 107 -295 227q-35 35 -35 60t41.5 66.5t68.5 41.5q14 0 34.5 -12t33.5 -31q56 -78 136 -157.5t155 -135.5z" />
    <glyph glyph-name="Iacute" unicode="&#xcd;" horiz-adv-x="538" 
d="M397 0h-258v1307h258v-1307zM545 1739q0 -18 -35 -58q-120 -125 -299 -233l-127 55q181 143 291 299q13 19 31.5 30t31.5 11q25 0 66 -40.5t41 -63.5z" />
    <glyph glyph-name="Icircumflex" unicode="&#xce;" horiz-adv-x="538" 
d="M397 0h-258v1307h258v-1307zM635 1507l-139 -59q-141 83 -230 160q-125 -105 -219 -160l-129 57q74 56 154.5 136.5t136.5 158.5q13 19 32.5 31t34.5 12q16 0 35.5 -12t32.5 -31q56 -78 136 -157.5t155 -135.5z" />
    <glyph glyph-name="Idieresis" unicode="&#xcf;" horiz-adv-x="538" 
d="M397 0h-258v1307h258v-1307zM561 1569q0 -28 -45.5 -74.5t-75.5 -46.5t-75.5 46.5t-45.5 74.5q0 31 45 77t76 46t76 -46t45 -77zM221 1569q0 -28 -45.5 -74.5t-75.5 -46.5q-28 0 -74 46.5t-46 74.5q0 30 46 76.5t74 46.5q31 0 76 -46t45 -77z" />
    <glyph glyph-name="Eth" unicode="&#xd0;" horiz-adv-x="1372" 
d="M1298 653q0 -151 -57.5 -276t-154.5 -206.5t-223.5 -126t-266.5 -44.5h-422v563h-156v187h156v557h422q140 0 266.5 -44.5t223.5 -126.5t154.5 -207t57.5 -276zM1044 651q0 109 -38 195t-104 139.5t-152 81t-187 27.5h-135v-344h229l-32 -187h-197v-354h135
q101 0 187 27.5t152 81t104 139t38 194.5z" />
    <glyph glyph-name="Ntilde" unicode="&#xd1;" horiz-adv-x="1437" 
d="M1319 -20h-111l-563 614q-69 75 -274 315l-4 -2q4 -106 4 -301v-606h-252v1307h198l504 -551q153 -166 246 -283l4 2q-4 90 -4 277v555h252v-1327zM1110 1757q-50 -88 -131 -180t-131 -92q-37 0 -117.5 48t-101.5 48q-45 0 -140 -129l-139 61q49 87 131.5 180t132.5 93
q37 0 117 -48t100 -48q45 0 140 129z" />
    <glyph glyph-name="Ograve" unicode="&#xd2;" horiz-adv-x="1544" 
d="M1470 655q0 -123 -38.5 -232.5t-105.5 -190.5t-155 -140t-190.5 -89t-208.5 -30t-208.5 30t-190.5 89t-155 140t-105.5 190.5t-38.5 232.5t38.5 231.5t105.5 189.5t155 140t190.5 89t208.5 30t208.5 -30t190.5 -89t155 -140t105.5 -189.5t38.5 -231.5zM1208 651
q0 136 -64.5 242t-162.5 159.5t-209 53.5q-83 0 -161 -31.5t-139.5 -88.5t-98.5 -144.5t-37 -190.5t37.5 -190t98.5 -144.5t139 -89.5t161 -32q81 0 159 32t139.5 88.5t99.5 144.5t38 191zM961 1507l-140 -59q-181 107 -295 227q-34 34 -34 60q0 25 41.5 66.5t68.5 41.5
q14 0 34.5 -12t33.5 -31q56 -78 136 -157.5t155 -135.5z" />
    <glyph glyph-name="Oacute" unicode="&#xd3;" horiz-adv-x="1544" 
d="M1470 655q0 -123 -38.5 -232.5t-105.5 -190.5t-155 -140t-190.5 -89t-208.5 -30t-208.5 30t-190.5 89t-155 140t-105.5 190.5t-38.5 232.5t38.5 231.5t105.5 189.5t155 140t190.5 89t208.5 30t208.5 -30t190.5 -89t155 -140t105.5 -189.5t38.5 -231.5zM1208 651
q0 136 -64.5 242t-162.5 159.5t-209 53.5q-83 0 -161 -31.5t-139.5 -88.5t-98.5 -144.5t-37 -190.5t37.5 -190t98.5 -144.5t139 -89.5t161 -32q81 0 159 32t139.5 88.5t99.5 144.5t38 191zM1038 1739q0 -19 -34 -58q-120 -125 -299 -233l-127 55q77 60 156 140t134 159
q13 19 31.5 30t32.5 11q25 0 65.5 -40.5t40.5 -63.5z" />
    <glyph glyph-name="Ocircumflex" unicode="&#xd4;" horiz-adv-x="1544" 
d="M1470 655q0 -123 -38.5 -232.5t-105.5 -190.5t-155 -140t-190.5 -89t-208.5 -30t-208.5 30t-190.5 89t-155 140t-105.5 190.5t-38.5 232.5t38.5 231.5t105.5 189.5t155 140t190.5 89t208.5 30t208.5 -30t190.5 -89t155 -140t105.5 -189.5t38.5 -231.5zM1208 651
q0 136 -64.5 242t-162.5 159.5t-209 53.5q-83 0 -161 -31.5t-139.5 -88.5t-98.5 -144.5t-37 -190.5t37.5 -190t98.5 -144.5t139 -89.5t161 -32q81 0 159 32t139.5 88.5t99.5 144.5t38 191zM1126 1507l-139 -59q-138 81 -229 160q-125 -105 -219 -160l-129 57
q73 56 153.5 136.5t136.5 158.5q13 18 33 30.5t35 12.5q16 0 35.5 -12t32.5 -31q56 -79 136 -158.5t154 -134.5z" />
    <glyph glyph-name="Otilde" unicode="&#xd5;" horiz-adv-x="1544" 
d="M1470 655q0 -123 -38.5 -232.5t-105.5 -190.5t-155 -140t-190.5 -89t-208.5 -30t-208.5 30t-190.5 89t-155 140t-105.5 190.5t-38.5 232.5t38.5 231.5t105.5 189.5t155 140t190.5 89t208.5 30t208.5 -30t190.5 -89t155 -140t105.5 -189.5t38.5 -231.5zM1208 651
q0 136 -64.5 242t-162.5 159.5t-209 53.5q-83 0 -161 -31.5t-139.5 -88.5t-98.5 -144.5t-37 -190.5t37.5 -190t98.5 -144.5t139 -89.5t161 -32q81 0 159 32t139.5 88.5t99.5 144.5t38 191zM1167 1757q-50 -88 -131 -180t-131 -92q-37 0 -117.5 48t-101.5 48q-44 0 -139 -129
l-139 61q49 87 131.5 180t132.5 93q37 0 117 -48t100 -48q44 0 139 129z" />
    <glyph glyph-name="Odieresis" unicode="&#xd6;" horiz-adv-x="1544" 
d="M1470 655q0 -123 -38.5 -232.5t-105.5 -190.5t-155 -140t-190.5 -89t-208.5 -30t-208.5 30t-190.5 89t-155 140t-105.5 190.5t-38.5 232.5t38.5 231.5t105.5 189.5t155 140t190.5 89t208.5 30t208.5 -30t190.5 -89t155 -140t105.5 -189.5t38.5 -231.5zM1208 651
q0 136 -64.5 242t-162.5 159.5t-209 53.5q-83 0 -161 -31.5t-139.5 -88.5t-98.5 -144.5t-37 -190.5t37.5 -190t98.5 -144.5t139 -89.5t161 -32q81 0 159 32t139.5 88.5t99.5 144.5t38 191zM1061 1569q0 -28 -45.5 -74.5t-75.5 -46.5t-75.5 46.5t-45.5 74.5q0 31 45 77t76 46
t76 -46t45 -77zM721 1569q0 -28 -45.5 -74.5t-75.5 -46.5q-28 0 -74.5 46.5t-46.5 74.5q0 30 46.5 76.5t74.5 46.5q31 0 76 -46t45 -77z" />
    <glyph glyph-name="multiply" unicode="&#xd7;" horiz-adv-x="929" 
d="M813 334l-121 -121l-225 223l-223 -225l-123 123l225 225l-223 223l121 123l223 -225l223 223l121 -121l-221 -223z" />
    <glyph glyph-name="Oslash" unicode="&#xd8;" horiz-adv-x="1544" 
d="M1470 655q0 -123 -38.5 -232.5t-105.5 -190.5t-155 -140t-190.5 -89t-208.5 -30q-203 0 -377 105l-114 -144l-107 89l111 137q-99 91 -155 217t-56 278q0 123 38.5 231.5t105.5 189.5t155 140t190.5 89t208.5 30q209 0 377 -104l117 141l104 -88l-110 -137
q99 -91 154.5 -216t55.5 -276zM1221 651q0 185 -111 312l-575 -713q109 -68 237 -68q84 0 164 33t144 92t102.5 149t38.5 195zM1006 1051q-110 69 -234 69q-85 0 -165 -33t-143 -92t-101.5 -148.5t-38.5 -195.5q0 -186 106 -311z" />
    <glyph glyph-name="Ugrave" unicode="&#xd9;" horiz-adv-x="1337" 
d="M1219 465q0 -151 -73 -264t-197 -170.5t-279 -57.5q-116 0 -216.5 34t-175 96t-117 155.5t-42.5 206.5v842h258v-820q0 -132 78 -210t217 -78t217 77t78 209v822h252v-842zM872 1507l-139 -59q-181 107 -295 227q-35 35 -35 60t42 66.5t69 41.5q14 0 34.5 -12t33.5 -31
q56 -79 136 -158.5t154 -134.5z" />
    <glyph glyph-name="Uacute" unicode="&#xda;" horiz-adv-x="1337" 
d="M1219 465q0 -151 -73 -264t-197 -170.5t-279 -57.5q-116 0 -216.5 34t-175 96t-117 155.5t-42.5 206.5v842h258v-820q0 -132 78 -210t217 -78t217 77t78 209v822h252v-842zM946 1739q0 -18 -35 -58q-120 -125 -299 -233l-127 55q181 143 291 299q13 19 31.5 30t32.5 11
q25 0 65.5 -40.5t40.5 -63.5z" />
    <glyph glyph-name="Ucircumflex" unicode="&#xdb;" horiz-adv-x="1337" 
d="M1219 465q0 -151 -73 -264t-197 -170.5t-279 -57.5q-116 0 -216.5 34t-175 96t-117 155.5t-42.5 206.5v842h258v-820q0 -132 78 -210t217 -78t217 77t78 209v822h252v-842zM1036 1507l-139 -59q-138 81 -229 160q-125 -105 -219 -160l-130 57q74 56 154.5 136.5
t136.5 158.5q13 18 33 30.5t35 12.5q16 0 35 -12t32 -31q56 -78 136 -157.5t155 -135.5z" />
    <glyph glyph-name="Udieresis" unicode="&#xdc;" horiz-adv-x="1337" 
d="M1219 465q0 -151 -73 -264t-197 -170.5t-279 -57.5q-116 0 -216.5 34t-175 96t-117 155.5t-42.5 206.5v842h258v-820q0 -132 78 -210t217 -78t217 77t78 209v822h252v-842zM975 1569q0 -28 -45.5 -74.5t-75.5 -46.5t-75.5 46.5t-45.5 74.5q0 31 45 77t76 46t76 -46
t45 -77zM635 1569q0 -28 -45.5 -74.5t-75.5 -46.5q-28 0 -74.5 46.5t-46.5 74.5q0 30 46.5 76.5t74.5 46.5q31 0 76 -46t45 -77z" />
    <glyph glyph-name="Yacute" unicode="&#xdd;" horiz-adv-x="1300" 
d="M1270 1307l-494 -713v-594h-252v590l-493 717h278l240 -342q37 -53 108 -170h5q66 110 110 170l238 342h260zM956 1739q0 -19 -34 -58q-120 -125 -299 -233l-127 55q77 60 156 140t134 159q13 19 31.5 30t32.5 11q25 0 65.5 -40.5t40.5 -63.5z" />
    <glyph glyph-name="Thorn" unicode="&#xde;" horiz-adv-x="1028" 
d="M965 774q0 -89 -35 -162.5t-92.5 -120.5t-130 -72.5t-150.5 -25.5h-186v-393h-252v1307h252v-152h186q106 0 197 -42.5t151 -131t60 -207.5zM711 774q0 83 -57 127.5t-138 44.5h-145v-344h145q81 0 138 44t57 128z" />
    <glyph glyph-name="germandbls" unicode="&#xdf;" horiz-adv-x="1241" 
d="M1178 264q0 -123 -91.5 -207t-261.5 -84q-168 0 -284 72v209q129 -88 272 -88q55 0 89 25.5t34 64.5q0 72 -113 111q-144 48 -215 120t-71 185q0 111 76.5 187t187.5 87q8 39 8 80q0 94 -61 162.5t-162 68.5q-85 0 -131.5 -59.5t-46.5 -169.5v-1028h-240v731h-150v197
h150v119q0 199 110 305t295 106q219 0 347.5 -122.5t128.5 -350.5q0 -101 -27 -190q-117 0 -184.5 -30t-67.5 -83q0 -36 26.5 -58.5t86.5 -41.5q152 -48 223.5 -123t71.5 -195z" />
    <glyph glyph-name="agrave" unicode="&#xe0;" horiz-adv-x="935" 
d="M922 113l-164 -144q-48 10 -90 45.5t-56 87.5q-60 -129 -245 -129q-131 0 -218.5 85t-87.5 212q0 126 89.5 206t222.5 93l202 19v45q0 56 -40.5 89.5t-122.5 33.5q-66 0 -136 -20.5t-122 -53.5l-45 192q125 80 315 80q175 0 281 -87t106 -249v-339q0 -136 111 -166z
M575 334v82l-145 -13q-69 -6 -104 -44t-35 -89q0 -44 32 -76t83 -32q70 0 119.5 48.5t49.5 123.5zM580 1120l-119 -49q-149 87 -252 193q-29 33 -29 51q0 22 35.5 57t58.5 35q12 0 29.5 -10.5t28.5 -26.5q48 -67 116.5 -135.5t131.5 -114.5z" />
    <glyph glyph-name="aacute" unicode="&#xe1;" horiz-adv-x="935" 
d="M922 113l-164 -144q-48 10 -90 45.5t-56 87.5q-60 -129 -245 -129q-131 0 -218.5 85t-87.5 212q0 126 89.5 206t222.5 93l202 19v45q0 56 -40.5 89.5t-122.5 33.5q-66 0 -136 -20.5t-122 -53.5l-45 192q125 80 315 80q175 0 281 -87t106 -249v-339q0 -136 111 -166z
M575 334v82l-145 -13q-69 -6 -104 -44t-35 -89q0 -44 32 -76t83 -32q70 0 119.5 48.5t49.5 123.5zM682 1317q0 -14 -29 -47q-102 -108 -256 -199l-106 47q63 48 130.5 117t115.5 137q11 16 27 25.5t28 9.5q21 0 55.5 -34.5t34.5 -55.5z" />
    <glyph glyph-name="acircumflex" unicode="&#xe2;" horiz-adv-x="935" 
d="M922 113l-164 -144q-48 10 -90 45.5t-56 87.5q-60 -129 -245 -129q-131 0 -218.5 85t-87.5 212q0 126 89.5 206t222.5 93l202 19v45q0 56 -40.5 89.5t-122.5 33.5q-66 0 -136 -20.5t-122 -53.5l-45 192q125 80 315 80q175 0 281 -87t106 -249v-339q0 -136 111 -166z
M575 334v82l-145 -13q-69 -6 -104 -44t-35 -89q0 -44 32 -76t83 -32q70 0 119.5 48.5t49.5 123.5zM750 1122l-119 -51q-127 77 -195 135q-89 -77 -186 -135l-111 49q63 46 131.5 114.5t116.5 135.5q26 37 57 37q13 0 30.5 -10.5t27.5 -26.5q48 -67 117 -135.5t131 -112.5z
" />
    <glyph glyph-name="atilde" unicode="&#xe3;" horiz-adv-x="935" 
d="M922 113l-164 -144q-48 10 -90 45.5t-56 87.5q-60 -129 -245 -129q-131 0 -218.5 85t-87.5 212q0 126 89.5 206t222.5 93l202 19v45q0 56 -40.5 89.5t-122.5 33.5q-66 0 -136 -20.5t-122 -53.5l-45 192q125 80 315 80q175 0 281 -87t106 -249v-339q0 -136 111 -166z
M575 334v82l-145 -13q-69 -6 -104 -44t-35 -89q0 -44 32 -76t83 -32q70 0 119.5 48.5t49.5 123.5zM780 1333q-42 -74 -111 -152.5t-112 -78.5q-31 0 -99 41t-87 41q-6 0 -12 -2t-13.5 -7.5t-13.5 -10t-15 -14t-13.5 -14.5t-14 -16.5t-12.5 -15.5t-12.5 -16t-10.5 -13
l-119 51q42 74 112 153t113 79q31 0 99.5 -41t85.5 -41q37 0 117 110z" />
    <glyph glyph-name="adieresis" unicode="&#xe4;" horiz-adv-x="935" 
d="M922 113l-164 -144q-48 10 -90 45.5t-56 87.5q-60 -129 -245 -129q-131 0 -218.5 85t-87.5 212q0 126 89.5 206t222.5 93l202 19v45q0 56 -40.5 89.5t-122.5 33.5q-66 0 -136 -20.5t-122 -53.5l-45 192q125 80 315 80q175 0 281 -87t106 -249v-339q0 -136 111 -166z
M575 334v82l-145 -13q-69 -6 -104 -44t-35 -89q0 -44 32 -76t83 -32q70 0 119.5 48.5t49.5 123.5zM688 1174q0 -24 -38 -63.5t-64 -39.5t-64.5 39.5t-38.5 63.5q0 26 38.5 65t64.5 39t64 -39t38 -65zM399 1174q0 -24 -38 -63.5t-64 -39.5q-23 0 -62.5 40t-39.5 63
q0 26 39 65t63 39q26 0 64 -39t38 -65z" />
    <glyph glyph-name="aring" unicode="&#xe5;" horiz-adv-x="935" 
d="M922 113l-164 -144q-48 10 -90 45.5t-56 87.5q-60 -129 -245 -129q-131 0 -218.5 85t-87.5 212q0 126 89.5 206t222.5 93l202 19v45q0 56 -40.5 89.5t-122.5 33.5q-66 0 -136 -20.5t-122 -53.5l-45 192q125 80 315 80q175 0 281 -87t106 -249v-339q0 -136 111 -166z
M575 334v82l-145 -13q-69 -6 -104 -44t-35 -89q0 -44 32 -76t83 -32q70 0 119.5 48.5t49.5 123.5zM637 1255q0 -85 -61.5 -145.5t-147.5 -60.5q-85 0 -147 61t-62 145q0 85 62 146t147 61q86 0 147.5 -61t61.5 -146zM510 1255q0 38 -23.5 63t-58.5 25q-34 0 -57 -25t-23 -63
t23 -62t57 -24q36 0 59 24t23 62z" />
    <glyph glyph-name="ae" unicode="&#xe6;" horiz-adv-x="1484" 
d="M1423 592q0 -44 -6 -74l-121 -119h-505q8 -81 90 -150t211 -69q150 0 264 74l-25 -221q-117 -60 -284 -60q-109 0 -205.5 41.5t-155.5 118.5q-103 -160 -319 -160q-131 0 -218.5 85t-87.5 212q0 126 89.5 206t222.5 93l188 19q5 29 21 65q-8 46 -51 74.5t-119 28.5
q-66 0 -136 -20.5t-122 -53.5l-45 192q125 80 315 80q200 0 289 -120q120 120 301 120q94 0 172.5 -31t129.5 -82t79 -115.5t28 -133.5zM1188 598q0 62 -47.5 113t-120.5 51q-77 0 -142.5 -54t-80.5 -133h389q2 8 2 23zM580 291q-21 59 -27 123l-123 -11q-69 -6 -104 -44
t-35 -89q0 -44 33 -76t84 -32q59 0 106.5 34.5t65.5 94.5z" />
    <glyph glyph-name="ccedilla" unicode="&#xe7;" horiz-adv-x="921" 
d="M858 874l-45 -208q-97 63 -221 63q-114 0 -196.5 -75.5t-82.5 -194.5t83 -195t200 -76q112 0 223 54l-24 -213q-92 -42 -213 -45l-7 -33q65 -3 116.5 -53t51.5 -125q0 -86 -58.5 -134.5t-137.5 -48.5q-80 0 -135 39l20 101q47 -35 113 -35q31 0 53.5 21t22.5 53
q0 31 -21 51t-43 20q-38 0 -55.5 21t-9.5 51l18 74q-89 9 -169.5 46t-142.5 97t-98.5 147t-36.5 187q0 109 42 201.5t111.5 152.5t158.5 93.5t184 33.5q175 0 299 -70z" />
    <glyph glyph-name="egrave" unicode="&#xe8;" horiz-adv-x="1005" 
d="M942 592q0 -44 -6 -74l-119 -119h-506q7 -81 89 -150t212 -69q157 0 265 74l-25 -221q-120 -60 -285 -60q-137 0 -252 60.5t-184.5 174t-69.5 257.5q0 112 40 206t106.5 155t151.5 94.5t176 33.5q93 0 171 -31t129 -82t79 -115.5t28 -133.5zM709 598q0 62 -48.5 113
t-121.5 51q-76 0 -141.5 -54t-80.5 -133h390q0 4 1 11.5t1 11.5zM696 1120l-118 -49q-149 87 -252 193q-29 33 -29 51q0 22 35.5 57t58.5 35q12 0 29.5 -10.5t28.5 -26.5q48 -67 116.5 -135.5t130.5 -114.5z" />
    <glyph glyph-name="eacute" unicode="&#xe9;" horiz-adv-x="1005" 
d="M942 592q0 -44 -6 -74l-119 -119h-506q7 -81 89 -150t212 -69q157 0 265 74l-25 -221q-120 -60 -285 -60q-137 0 -252 60.5t-184.5 174t-69.5 257.5q0 112 40 206t106.5 155t151.5 94.5t176 33.5q93 0 171 -31t129 -82t79 -115.5t28 -133.5zM709 598q0 62 -48.5 113
t-121.5 51q-76 0 -141.5 -54t-80.5 -133h390q0 4 1 11.5t1 11.5zM776 1317q0 -16 -31 -47q-101 -108 -253 -199l-107 47q61 47 128.5 116t117.5 138q10 14 27 24.5t28 10.5q20 0 55 -35t35 -55z" />
    <glyph glyph-name="ecircumflex" unicode="&#xea;" horiz-adv-x="1005" 
d="M942 592q0 -44 -6 -74l-119 -119h-506q7 -81 89 -150t212 -69q157 0 265 74l-25 -221q-120 -60 -285 -60q-137 0 -252 60.5t-184.5 174t-69.5 257.5q0 112 40 206t106.5 155t151.5 94.5t176 33.5q93 0 171 -31t129 -82t79 -115.5t28 -133.5zM709 598q0 62 -48.5 113
t-121.5 51q-76 0 -141.5 -54t-80.5 -133h390q0 4 1 11.5t1 11.5zM838 1122l-119 -51q-137 85 -195 135q-89 -77 -186 -135l-109 49q62 47 130.5 115.5t115.5 134.5q26 37 57 37q34 0 60 -37q48 -67 116.5 -135t129.5 -113z" />
    <glyph glyph-name="edieresis" unicode="&#xeb;" horiz-adv-x="1005" 
d="M942 592q0 -44 -6 -74l-119 -119h-506q7 -81 89 -150t212 -69q157 0 265 74l-25 -221q-120 -60 -285 -60q-137 0 -252 60.5t-184.5 174t-69.5 257.5q0 112 40 206t106.5 155t151.5 94.5t176 33.5q93 0 171 -31t129 -82t79 -115.5t28 -133.5zM709 598q0 62 -48.5 113
t-121.5 51q-76 0 -141.5 -54t-80.5 -133h390q0 4 1 11.5t1 11.5zM768 1174q0 -24 -38 -63.5t-64 -39.5t-64.5 39.5t-38.5 63.5q0 26 38.5 65t64.5 39t64 -39t38 -65zM479 1174q0 -24 -38 -63.5t-64 -39.5q-25 0 -65 40t-40 63q0 26 40 65t65 39q26 0 64 -39t38 -65z" />
    <glyph glyph-name="igrave" unicode="&#xec;" horiz-adv-x="477" 
d="M362 0h-247v928h247v-928zM399 1120l-118 -49q-144 84 -250 193q-29 33 -29 51q0 22 35 57t57 35q13 0 30 -10.5t28 -26.5q47 -66 116 -134.5t131 -115.5z" />
    <glyph glyph-name="iacute" unicode="&#xed;" horiz-adv-x="477" 
d="M362 0h-247v928h247v-928zM479 1317q0 -17 -30 -47q-99 -107 -254 -199l-107 47q61 47 128.5 116t117.5 138q10 14 27 24.5t28 10.5q20 0 55 -35t35 -55z" />
    <glyph glyph-name="icircumflex" unicode="&#xee;" horiz-adv-x="477" 
d="M362 0h-247v928h247v-928zM549 1122l-119 -51q-124 75 -194 135q-87 -75 -187 -135l-110 49q62 46 130.5 114.5t116.5 135.5q10 16 27.5 26.5t30.5 10.5q31 0 57 -37q48 -67 117 -135.5t131 -112.5z" />
    <glyph glyph-name="idieresis" unicode="&#xef;" horiz-adv-x="477" 
d="M362 0h-247v928h247v-928zM487 1174q0 -24 -38 -63.5t-64 -39.5t-64 39.5t-38 63.5q0 26 38 65t64 39t64 -39t38 -65zM199 1174q0 -24 -38.5 -63.5t-64.5 -39.5q-24 0 -63 39.5t-39 63.5q0 26 38.5 65t63.5 39q26 0 64.5 -39t38.5 -65z" />
    <glyph glyph-name="eth" unicode="&#xf0;" horiz-adv-x="1042" 
d="M969 434q0 -210 -128 -335.5t-325 -125.5q-198 0 -325.5 125.5t-127.5 311.5q0 145 80.5 254t208.5 157q113 43 211 60l-84 198l-166 -67l-69 174l164 67l-86 205h256l49 -119l141 58l70 -174l-140 -58l232 -549q39 -92 39 -182zM727 430q0 77 -86 254q-69 -9 -164 -41
q-84 -30 -130 -88.5t-46 -142.5q0 -96 60.5 -160t150.5 -64q92 0 153.5 67t61.5 175z" />
    <glyph glyph-name="ntilde" unicode="&#xf1;" horiz-adv-x="1052" 
d="M950 0h-243v584q0 67 -44.5 113t-132.5 46q-86 0 -135 -47.5t-49 -115.5v-580h-244v928h222v-123h2q64 147 286 147q154 0 246 -86t92 -235v-631zM860 1333q-42 -74 -111 -152.5t-112 -78.5q-31 0 -100 41t-86 41q-34 0 -119 -109l-117 51q42 75 111 153.5t112 78.5
q32 0 100.5 -41t84.5 -41q8 0 16.5 3.5t18.5 12t17.5 15.5t19 20.5t16.5 20t16.5 21.5t13.5 17z" />
    <glyph glyph-name="ograve" unicode="&#xf2;" horiz-adv-x="1124" 
d="M1061 463q0 -215 -143 -352.5t-355 -137.5t-356 137.5t-144 352.5q0 216 143.5 353.5t356.5 137.5q138 0 251 -61t180 -174t67 -256zM819 459q0 122 -75.5 201t-180.5 79t-180.5 -79t-75.5 -201q0 -120 75.5 -199.5t180.5 -79.5t180.5 79.5t75.5 199.5zM721 1120
l-119 -49q-150 88 -250 193q-30 30 -30 51q0 22 35.5 57t58.5 35q11 0 28.5 -10.5t28.5 -26.5q48 -67 116.5 -135.5t131.5 -114.5z" />
    <glyph glyph-name="oacute" unicode="&#xf3;" horiz-adv-x="1124" 
d="M1061 463q0 -215 -143 -352.5t-355 -137.5t-356 137.5t-144 352.5q0 216 143.5 353.5t356.5 137.5q138 0 251 -61t180 -174t67 -256zM819 459q0 122 -75.5 201t-180.5 79t-180.5 -79t-75.5 -201q0 -120 75.5 -199.5t180.5 -79.5t180.5 79.5t75.5 199.5zM801 1317
q0 -14 -29 -47q-95 -103 -254 -199l-108 47q141 108 247 254q10 14 26.5 24.5t27.5 10.5q21 0 55.5 -34.5t34.5 -55.5z" />
    <glyph glyph-name="ocircumflex" unicode="&#xf4;" horiz-adv-x="1124" 
d="M1061 463q0 -215 -143 -352.5t-355 -137.5t-356 137.5t-144 352.5q0 216 143.5 353.5t356.5 137.5q138 0 251 -61t180 -174t67 -256zM819 459q0 122 -75.5 201t-180.5 79t-180.5 -79t-75.5 -201q0 -120 75.5 -199.5t180.5 -79.5t180.5 79.5t75.5 199.5zM868 1122
l-116 -51q-126 76 -197 135q-87 -75 -184 -135l-111 49q63 46 131.5 114.5t116.5 135.5q26 37 57 37q13 0 30 -10.5t28 -26.5q48 -67 116 -135.5t129 -112.5z" />
    <glyph glyph-name="otilde" unicode="&#xf5;" horiz-adv-x="1124" 
d="M1061 463q0 -215 -143 -352.5t-355 -137.5t-356 137.5t-144 352.5q0 216 143.5 353.5t356.5 137.5q138 0 251 -61t180 -174t67 -256zM819 459q0 122 -75.5 201t-180.5 79t-180.5 -79t-75.5 -201q0 -120 75.5 -199.5t180.5 -79.5t180.5 79.5t75.5 199.5zM895 1333
q-42 -74 -111 -152.5t-110 -78.5q-32 0 -101 41t-86 41q-6 0 -12.5 -2.5t-14 -7.5t-14 -10t-14.5 -13.5t-14 -14.5t-14 -16.5t-12.5 -15.5t-12.5 -15.5t-10 -13.5l-119 51q42 74 112 153t113 79q31 0 99 -41t85 -41q33 0 112 101q6 8 7 9z" />
    <glyph glyph-name="odieresis" unicode="&#xf6;" horiz-adv-x="1124" 
d="M1061 463q0 -215 -143 -352.5t-355 -137.5t-356 137.5t-144 352.5q0 216 143.5 353.5t356.5 137.5q138 0 251 -61t180 -174t67 -256zM819 459q0 122 -75.5 201t-180.5 79t-180.5 -79t-75.5 -201q0 -120 75.5 -199.5t180.5 -79.5t180.5 79.5t75.5 199.5zM811 1174
q0 -24 -38 -63.5t-64 -39.5t-64.5 39.5t-38.5 63.5q0 26 38.5 65t64.5 39t64 -39t38 -65zM522 1174q0 -24 -38 -63.5t-64 -39.5q-23 0 -63 40t-40 63q0 26 39.5 65t63.5 39q26 0 64 -39t38 -65z" />
    <glyph glyph-name="divide" unicode="&#xf7;" horiz-adv-x="919" 
d="M584 856q0 -31 -47 -78t-78 -47t-77 47t-46 78q0 30 46.5 76.5t76.5 46.5q31 0 78 -47t47 -76zM850 469h-780v195h780v-195zM584 279q0 -31 -47 -77t-78 -46t-77 46t-46 77q0 29 46 75.5t77 46.5t78 -46.5t47 -75.5z" />
    <glyph glyph-name="oslash" unicode="&#xf8;" horiz-adv-x="1124" 
d="M1061 463q0 -215 -143 -352.5t-355 -137.5q-140 0 -264 70l-86 -109l-94 78l84 105q-140 140 -140 346q0 216 143.5 353.5t356.5 137.5q143 0 258 -65l86 104l94 -78l-81 -100q141 -138 141 -352zM838 459q0 106 -56 184l-356 -442q64 -39 137 -39q113 0 194 84.5
t81 212.5zM690 725q-56 33 -127 33q-113 0 -193.5 -85t-80.5 -214q0 -100 49 -174z" />
    <glyph glyph-name="ugrave" unicode="&#xf9;" horiz-adv-x="1052" 
d="M950 0h-223v123h-2q-64 -148 -285 -148q-153 0 -245.5 87t-92.5 237v629h244v-582q0 -68 44 -115t132 -47q86 0 135.5 48t49.5 116v580h243v-928zM682 1120l-119 -49q-150 88 -250 193q-30 34 -30 51q0 22 35.5 57t58.5 35q12 0 29.5 -10.5t27.5 -26.5
q48 -67 116.5 -135.5t131.5 -114.5z" />
    <glyph glyph-name="uacute" unicode="&#xfa;" horiz-adv-x="1052" 
d="M950 0h-223v123h-2q-64 -148 -285 -148q-153 0 -245.5 87t-92.5 237v629h244v-582q0 -68 44 -115t132 -47q86 0 135.5 48t49.5 116v580h243v-928zM770 1317q0 -14 -29 -47q-101 -106 -254 -199l-108 47q62 48 130.5 117t117.5 137q10 16 25.5 25.5t27.5 9.5
q21 0 55.5 -34.5t34.5 -55.5z" />
    <glyph glyph-name="ucircumflex" unicode="&#xfb;" horiz-adv-x="1052" 
d="M950 0h-223v123h-2q-64 -148 -285 -148q-153 0 -245.5 87t-92.5 237v629h244v-582q0 -68 44 -115t132 -47q86 0 135.5 48t49.5 116v580h243v-928zM834 1122l-119 -51q-127 77 -195 135q-89 -77 -186 -135l-111 49q63 46 131.5 114.5t116.5 135.5q10 16 27 26.5t30 10.5
t30 -10.5t28 -26.5q48 -67 117 -135.5t131 -112.5z" />
    <glyph glyph-name="udieresis" unicode="&#xfc;" horiz-adv-x="1052" 
d="M950 0h-223v123h-2q-64 -148 -285 -148q-153 0 -245.5 87t-92.5 237v629h244v-582q0 -68 44 -115t132 -47q86 0 135.5 48t49.5 116v580h243v-928zM776 1174q0 -24 -38 -63.5t-64 -39.5t-64.5 39.5t-38.5 63.5q0 26 38.5 65t64.5 39t64 -39t38 -65zM487 1174
q0 -24 -38 -63.5t-64 -39.5q-23 0 -62.5 40t-39.5 63q0 26 39 65t63 39q26 0 64 -39t38 -65z" />
    <glyph glyph-name="yacute" unicode="&#xfd;" horiz-adv-x="978" 
d="M948 928l-327 -838q-52 -131 -107 -229.5t-114.5 -164.5t-118.5 -108t-129 -71l-152 151q124 50 214.5 144.5t156.5 261.5l-340 854h241l152 -389q57 -158 68 -199h4q40 116 71 197l154 391h227zM754 1317q0 -16 -31 -47q-99 -107 -254 -199l-107 47q61 47 128.5 116
t117.5 138q10 14 27.5 24.5t28.5 10.5q20 0 55 -35t35 -55z" />
    <glyph glyph-name="thorn" unicode="&#xfe;" horiz-adv-x="1112" 
d="M1047 471q0 -219 -137 -358.5t-345 -139.5q-63 0 -126 19.5t-89 44.5v-510h-239v1931h239v-596q82 90 240 90q82 0 162.5 -32t146.5 -91t107 -152.5t41 -205.5zM807 459q0 121 -74.5 198.5t-183.5 77.5q-68 0 -118.5 -27.5t-80.5 -68.5v-379q27 -29 78.5 -53.5
t120.5 -24.5q109 0 183.5 78t74.5 199z" />
    <glyph glyph-name="ydieresis" unicode="&#xff;" horiz-adv-x="978" 
d="M948 928l-327 -838q-52 -131 -107 -229.5t-114.5 -164.5t-118.5 -108t-129 -71l-152 151q124 50 214.5 144.5t156.5 261.5l-340 854h241l152 -389q57 -158 68 -199h4q40 116 71 197l154 391h227zM754 1167q0 -25 -38.5 -63.5t-64.5 -38.5t-64 38.5t-38 63.5q0 26 38 65.5
t64 39.5t64.5 -39.5t38.5 -65.5zM465 1167q0 -25 -38.5 -63.5t-64.5 -38.5q-24 0 -63 39t-39 63q0 26 39 65.5t63 39.5q26 0 64.5 -39.5t38.5 -65.5z" />
    <glyph glyph-name="dotlessi" unicode="&#x131;" horiz-adv-x="477" 
d="M362 0h-247v928h247v-928z" />
    <glyph glyph-name="Lslash" unicode="&#x141;" horiz-adv-x="921" 
d="M909 0h-790v463l-101 -57v217l101 57v627h258v-480l285 166v-219l-285 -164v-395h532v-215z" />
    <glyph glyph-name="lslash" unicode="&#x142;" horiz-adv-x="532" 
d="M496 774l-136 -78v-409q0 -58 35.5 -96t89.5 -44l-116 -184q-49 5 -92 23t-79.5 52t-57.5 90t-21 128v299l-101 -57v217l101 57v686h241v-545l136 80v-219z" />
    <glyph glyph-name="OE" unicode="&#x152;" horiz-adv-x="1716" 
d="M1706 0h-750q-89 -14 -186 -14q-101 0 -200 26.5t-188.5 82t-158 133t-109 187.5t-40.5 238t41 238.5t109.5 188.5t158.5 134t188.5 82.5t198.5 26.5q95 0 180 -16h688v-215h-471v-328h392v-217h-392v-332h539v-215zM918 207v880q-68 11 -119 11q-92 0 -175 -30.5
t-148 -86t-103.5 -142t-38.5 -190.5t38.5 -190t103.5 -141.5t150.5 -86t180.5 -30.5q59 0 111 6z" />
    <glyph glyph-name="oe" unicode="&#x153;" horiz-adv-x="1757" 
d="M1696 592q0 -34 -8 -74l-119 -119h-506q8 -81 90 -150t211 -69q150 0 264 74l-24 -221q-117 -60 -285 -60q-115 0 -223 50t-156 141q-58 -97 -160 -144t-221 -47q-212 0 -354 138t-142 352q0 143 65.5 255.5t178.5 174t252 61.5q119 0 224.5 -48.5t150.5 -135.5
q26 56 86 99t130 64t138 21q93 0 171.5 -31t129 -82t79 -115.5t28.5 -133.5zM1460 598q0 62 -47.5 113t-120.5 51q-77 0 -142.5 -54t-80.5 -133h389q2 8 2 23zM821 461q0 122 -75 200t-181 78t-182 -78.5t-76 -199.5q0 -120 76.5 -199.5t181.5 -79.5t180.5 79.5t75.5 199.5z
" />
    <glyph glyph-name="Scaron" unicode="&#x160;" horiz-adv-x="999" 
d="M926 385q0 -184 -120 -291.5t-343 -107.5q-102 0 -196.5 25t-151.5 63l-27 252q77 -57 173.5 -90t195.5 -33q95 0 153 44.5t58 117.5t-45.5 117t-149.5 75q-362 107 -362 395q0 157 112.5 264t313.5 107q94 0 177.5 -22.5t127.5 -51.5l-49 -211q-43 27 -112.5 49.5
t-135.5 22.5q-87 0 -137 -41t-50 -102q0 -58 44 -95.5t137 -66.5t161 -65t120.5 -85.5t79 -117t26.5 -152.5zM821 1769q-76 -56 -151 -136t-131 -167q-13 -22 -39 -22q-27 0 -41 22q-110 172 -283 303l141 62q111 -73 183 -150q68 74 182 150z" />
    <glyph glyph-name="scaron" unicode="&#x161;" horiz-adv-x="784" 
d="M725 268q0 -123 -90.5 -203.5t-259.5 -80.5q-158 0 -275 65l-26 232q59 -45 135.5 -74t152.5 -29q52 0 84.5 24t32.5 60q0 37 -26 61t-80 42q-142 46 -213.5 117t-71.5 182q0 125 91.5 202.5t236.5 77.5q76 0 149.5 -18t108.5 -39l-43 -189q-89 56 -201 56
q-47 0 -74.5 -22t-27.5 -58q0 -33 24.5 -53.5t81.5 -38.5q148 -46 219.5 -121.5t71.5 -192.5zM657 1343q-143 -104 -239 -256q-13 -20 -33 -20q-24 0 -35 20q-103 156 -241 256l120 54q103 -69 156 -127q50 55 154 127z" />
    <glyph glyph-name="Ydieresis" unicode="&#x178;" horiz-adv-x="1300" 
d="M1270 1307l-494 -713v-594h-252v590l-493 717h278l240 -342q37 -53 108 -170h5q66 110 110 170l238 342h260zM934 1567q0 -28 -45.5 -74.5t-75.5 -46.5t-75.5 46.5t-45.5 74.5q0 31 45 77t76 46t76 -46t45 -77zM594 1567q0 -28 -45.5 -74.5t-75.5 -46.5q-28 0 -74.5 46.5
t-46.5 74.5q0 30 46.5 76.5t74.5 46.5q31 0 76 -46t45 -77z" />
    <glyph glyph-name="Zcaron" unicode="&#x17d;" horiz-adv-x="1103" 
d="M1030 0h-956v61l391 695q68 122 201 334l-2 2h-558v215h902v-62l-396 -696q-62 -110 -198 -332l2 -2h614v-215zM877 1769q-76 -56 -152 -136t-131 -167q-13 -22 -39 -22q-27 0 -41 22q-110 172 -283 303l142 62q109 -71 182 -150q68 74 182 150z" />
    <glyph glyph-name="zcaron" unicode="&#x17e;" horiz-adv-x="886" 
d="M823 0h-760v47l261 453q76 133 137 227l-2 4h-363v197h692v-47l-262 -455q-54 -92 -137 -225l2 -2h432v-199zM719 1343q-140 -102 -242 -256q-10 -20 -33 -20t-34 20q-46 73 -110.5 141t-129.5 115l121 54q101 -70 153 -127q53 56 156 127z" />
    <glyph glyph-name="florin" unicode="&#x192;" horiz-adv-x="907" 
d="M924 1325l-47 -205q-45 10 -89 10q-190 0 -231 -223l-49 -278h217l-31 -135h-211l-100 -568q-29 -164 -129.5 -268t-222.5 -133l-150 147q101 25 174 95t92 180l95 547h-150v135h174l51 295q34 199 164.5 305t317.5 106q63 0 125 -10z" />
    <glyph glyph-name="circumflex" unicode="&#x2c6;" 
d="M870 1098l-139 -60q-138 81 -229 160q-125 -105 -219 -160l-129 58q73 56 153.5 136.5t136.5 158.5q13 18 33 30.5t35 12.5q16 0 35.5 -12t32.5 -31q56 -79 136 -158.5t154 -134.5z" />
    <glyph glyph-name="caron" unicode="&#x2c7;" 
d="M836 1360q-76 -56 -152 -136t-131 -167q-13 -23 -39 -23q-27 0 -41 23q-110 172 -283 303l142 61q111 -72 182 -149q66 71 182 149z" />
    <glyph glyph-name="breve" unicode="&#x2d8;" 
d="M782 1141q-5 -4 -14 -11t-37.5 -25t-58 -31.5t-73.5 -24.5t-87 -11q-68 0 -135.5 26t-100.5 52l-34 25l110 116q9 -5 23.5 -13.5t57 -22t79.5 -13.5t76.5 12t60.5 24l21 13z" />
    <glyph glyph-name="dotaccent" unicode="&#x2d9;" 
d="M633 1159q0 -28 -45.5 -74.5t-75.5 -46.5q-28 0 -74.5 46.5t-46.5 74.5q0 30 46.5 76.5t74.5 46.5q31 0 76 -46t45 -77z" />
    <glyph glyph-name="ring" unicode="&#x2da;" 
d="M758 1255q0 -99 -73 -171t-173 -72t-173 72t-73 171q0 100 73 172t173 72t173 -72t73 -172zM606 1255q0 44 -26.5 73.5t-67.5 29.5t-67.5 -29.5t-26.5 -73.5t26.5 -73t67.5 -29t67.5 29t26.5 73z" />
    <glyph glyph-name="ogonek" unicode="&#x2db;" 
d="M711 -319l-23 -130q-46 -30 -139 -30q-97 0 -160 52.5t-63 143.5q0 88 61 164t150 119h172q-104 -51 -171 -118.5t-67 -145.5q0 -41 30 -65.5t81 -24.5q77 0 129 35z" />
    <glyph glyph-name="tilde" unicode="&#x2dc;" 
d="M903 1348q-50 -88 -131 -180.5t-131 -92.5q-37 0 -117.5 48t-101.5 48q-44 0 -139 -129l-140 62q49 87 132 179.5t133 92.5q37 0 117 -48t100 -48q44 0 139 129z" />
    <glyph glyph-name="hungarumlaut" unicode="&#x2dd;" 
d="M948 1329q0 -24 -35 -59q-121 -127 -295 -230l-135 60q74 55 153.5 135t135.5 160q13 19 33.5 31t34.5 12q26 0 67 -42t41 -67zM586 1329q0 -24 -35 -59q-118 -124 -297 -230l-135 60q75 56 155 136t136 159q13 19 32.5 31t32.5 12q26 0 68.5 -42t42.5 -67z" />
    <glyph glyph-name="Delta" unicode="&#x394;" horiz-adv-x="1210" 
d="M1151 313q0 -53 -35.5 -83.5t-79.5 -30.5v-199h-966v928h966v-500zM977 483v303h-303zM446 786h-317q0 -66 46 -111.5t112 -45.5t112.5 45.5t46.5 111.5zM977 59v164l-778 367q-40 18 -70 55v-586h848z" />
    <glyph glyph-name="Delta" unicode="&#x2206;" horiz-adv-x="1210" 
d="M1151 313q0 -53 -35.5 -83.5t-79.5 -30.5v-199h-966v928h966v-500zM977 483v303h-303zM446 786h-317q0 -66 46 -111.5t112 -45.5t112.5 45.5t46.5 111.5zM977 59v164l-778 367q-40 18 -70 55v-586h848z" />
    <glyph glyph-name="Omega" unicode="&#x3a9;" horiz-adv-x="1210" 
d="M1151 313q0 -53 -35.5 -83.5t-79.5 -30.5v-199h-966v928h966v-500zM977 483v303h-303zM446 786h-317q0 -66 46 -111.5t112 -45.5t112.5 45.5t46.5 111.5zM977 59v164l-778 367q-40 18 -70 55v-586h848z" />
    <glyph glyph-name="Omega" unicode="&#x2126;" horiz-adv-x="1210" 
d="M1151 313q0 -53 -35.5 -83.5t-79.5 -30.5v-199h-966v928h966v-500zM977 483v303h-303zM446 786h-317q0 -66 46 -111.5t112 -45.5t112.5 45.5t46.5 111.5zM977 59v164l-778 367q-40 18 -70 55v-586h848z" />
    <glyph glyph-name="pi" unicode="&#x3c0;" horiz-adv-x="1210" 
d="M1151 313q0 -53 -35.5 -83.5t-79.5 -30.5v-199h-966v928h966v-500zM977 483v303h-303zM446 786h-317q0 -66 46 -111.5t112 -45.5t112.5 45.5t46.5 111.5zM977 59v164l-778 367q-40 18 -70 55v-586h848z" />
    <glyph glyph-name="endash" unicode="&#x2013;" 
d="M1028 385h-1028v156h1028v-156z" />
    <glyph glyph-name="emdash" unicode="&#x2014;" horiz-adv-x="2048" 
d="M2052 385h-2052v156h2052v-156z" />
    <glyph glyph-name="quoteleft" unicode="&#x2018;" horiz-adv-x="430" 
d="M362 924q0 -39 -55.5 -92.5t-91.5 -53.5q-33 0 -90 53.5t-57 92.5q0 88 67 211t148 198l79 -14q-49 -56 -82 -132t-38 -140q35 -6 77.5 -50t42.5 -73z" />
    <glyph glyph-name="quoteright" unicode="&#x2019;" horiz-adv-x="430" 
d="M362 1192q0 -88 -67 -211.5t-148 -198.5l-79 15q49 57 82 132t38 138q-35 6 -77.5 50.5t-42.5 74.5q0 39 55.5 91t91.5 52q33 0 90 -52t57 -91z" />
    <glyph glyph-name="quotesinglbase" unicode="&#x201a;" horiz-adv-x="430" 
d="M362 123q0 -88 -67 -211.5t-148 -198.5l-79 15q49 57 82 132t38 138q-35 6 -77.5 50.5t-42.5 74.5q0 39 55.5 91t91.5 52q33 0 90 -52t57 -91z" />
    <glyph glyph-name="quotedblleft" unicode="&#x201c;" horiz-adv-x="815" 
d="M750 924q0 -39 -56 -92.5t-92 -53.5q-33 0 -90 53.5t-57 92.5q0 88 67 211t148 198l80 -14q-49 -57 -82.5 -133t-38.5 -139q35 -6 78 -50t43 -73zM362 924q0 -39 -55.5 -92.5t-91.5 -53.5q-33 0 -90 53.5t-57 92.5q0 88 67 211t148 198l79 -14q-49 -56 -82 -132t-38 -140
q35 -6 77.5 -50t42.5 -73z" />
    <glyph glyph-name="quotedblright" unicode="&#x201d;" horiz-adv-x="815" 
d="M750 1192q0 -88 -67 -211.5t-148 -198.5l-80 15q49 56 81 131t37 139q-35 6 -76.5 50.5t-41.5 74.5q0 39 55.5 91t91.5 52q33 0 90.5 -52t57.5 -91zM362 1192q0 -88 -67 -211.5t-148 -198.5l-79 15q49 57 82 132t38 138q-35 6 -77.5 50.5t-42.5 74.5q0 39 55.5 91
t91.5 52q33 0 90 -52t57 -91z" />
    <glyph glyph-name="quotedblbase" unicode="&#x201e;" horiz-adv-x="817" 
d="M750 123q0 -88 -67 -211.5t-148 -198.5l-80 15q49 56 81 131t37 139q-35 6 -76.5 50.5t-41.5 74.5q0 39 55.5 91t91.5 52q33 0 90.5 -52t57.5 -91zM362 123q0 -88 -67 -211.5t-148 -198.5l-79 15q49 57 82 132t38 138q-35 6 -77.5 50.5t-42.5 74.5q0 39 55.5 91t91.5 52
q33 0 90 -52t57 -91z" />
    <glyph glyph-name="dagger" unicode="&#x2020;" horiz-adv-x="847" 
d="M774 713l-239 37l-35 -1223h-150l-35 1223l-241 -37v233l235 -37l-6 232h244l-4 -232l231 37v-233z" />
    <glyph glyph-name="daggerdbl" unicode="&#x2021;" horiz-adv-x="847" 
d="M774 -279l-233 37l6 -231h-244l6 231l-235 -37v234l241 -37l11 416l-11 416l-241 -37v233l235 -37l-6 232h244l-6 -232l233 37v-233l-239 37l-11 -416l11 -416l239 37v-234z" />
    <glyph glyph-name="bullet" unicode="&#x2022;" horiz-adv-x="804" 
d="M731 567q0 -140 -94.5 -230.5t-233.5 -90.5t-234 90.5t-95 230.5q0 141 94.5 231.5t234.5 90.5q139 0 233.5 -90.5t94.5 -231.5z" />
    <glyph glyph-name="ellipsis" unicode="&#x2026;" horiz-adv-x="1284" 
d="M1217 121q0 -35 -56.5 -91.5t-93.5 -56.5q-35 0 -91 55.5t-56 92.5q0 34 55.5 89.5t91.5 55.5q37 0 93.5 -55t56.5 -90zM788 121q0 -36 -55.5 -92t-91.5 -56q-37 0 -92 55.5t-55 92.5q0 34 55.5 89.5t91.5 55.5q35 0 91 -55t56 -90zM362 121q0 -36 -55.5 -92t-91.5 -56
q-35 0 -91 55.5t-56 92.5q0 34 55.5 89.5t91.5 55.5q35 0 91 -55t56 -90z" />
    <glyph glyph-name="perthousand" unicode="&#x2030;" horiz-adv-x="2177" 
d="M2111 274q0 -132 -86 -216.5t-215 -84.5t-215 84t-86 217q0 129 86 213t215 84t215 -84t86 -213zM1935 274q0 60 -36 97t-89 37q-52 0 -88 -37t-36 -97q0 -61 35.5 -100t88.5 -39q52 0 88.5 38.5t36.5 100.5zM1374 274q0 -132 -86 -216.5t-215 -84.5t-215 84t-86 217
q0 130 85.5 213.5t215.5 83.5q127 0 214 -84t87 -213zM1198 274q0 60 -36 97t-89 37t-89 -37t-36 -97q0 -61 36 -100t89 -39q52 0 88.5 38.5t36.5 100.5zM1300 1264l-1056 -1307l-107 88l1055 1307zM666 1038q0 -132 -86 -216.5t-215 -84.5t-215.5 84t-86.5 217
q0 130 86.5 213.5t215.5 83.5t215 -83t86 -214zM489 1038q0 60 -35.5 96.5t-88.5 36.5t-89 -36.5t-36 -96.5q0 -61 36 -100t89 -39q52 0 88 38.5t36 100.5z" />
    <glyph glyph-name="guilsinglleft" unicode="&#x2039;" horiz-adv-x="440" 
d="M373 207l-33 -74q-53 69 -126 142t-144 124q-18 11 -28.5 30t-10.5 34q0 14 11 32.5t28 30.5q72 53 145 126t125 141l33 -74q-54 -142 -121 -256q57 -97 121 -256z" />
    <glyph glyph-name="guilsinglright" unicode="&#x203a;" horiz-adv-x="440" 
d="M410 463q0 -15 -10.5 -34t-28.5 -30q-74 -53 -148.5 -126.5t-122.5 -139.5l-32 74q60 159 120 256q-60 97 -120 256l32 74q48 -65 122 -138.5t149 -128.5q17 -12 28 -30.5t11 -32.5z" />
    <glyph glyph-name="fraction" unicode="&#x2044;" horiz-adv-x="1292" 
d="M1227 1264l-1055 -1307l-109 88l1057 1307z" />
    <glyph glyph-name="fraction" unicode="&#x2215;" horiz-adv-x="1292" 
d="M1227 1264l-1055 -1307l-109 88l1057 1307z" />
    <glyph glyph-name="Euro" unicode="&#x20ac;" horiz-adv-x="1017" 
d="M737 602l-28 -133h-289q32 -143 115 -215t190 -72q115 0 188 45l-24 -209q-71 -41 -205 -41q-182 0 -322.5 128t-183.5 364h-160v133h146q0 8 -1 25t-1 26q0 10 1 30.5t1 29.5h-146v133h162q30 155 106.5 266t178 164t219.5 53q159 0 260 -61l-43 -195q-76 51 -186 51
q-105 0 -183 -69.5t-110 -208.5h334l-27 -133h-326q-2 -20 -2 -62q0 -8 1 -24.5t1 -24.5h334z" />
    <glyph glyph-name="trademark" unicode="&#x2122;" horiz-adv-x="872" 
d="M805 928h-88l-17 194l-100 -194h-35l-96 190l-14 -190h-88l30 379h68l123 -238l119 238h67zM340 1225h-107v-297h-88v299h-104v80h299v-82z" />
    <glyph glyph-name="partialdiff" unicode="&#x2202;" horiz-adv-x="1210" 
d="M1151 313q0 -53 -35.5 -83.5t-79.5 -30.5v-199h-966v928h966v-500zM977 483v303h-303zM446 786h-317q0 -66 46 -111.5t112 -45.5t112.5 45.5t46.5 111.5zM977 59v164l-778 367q-40 18 -70 55v-586h848z" />
    <glyph glyph-name="product" unicode="&#x220f;" horiz-adv-x="964" 
d="M901 920q0 -180 -121.5 -298t-298.5 -118q-180 0 -300 118t-120 298t120 297.5t300 117.5q177 0 298.5 -118t121.5 -297zM805 920q0 143 -93 235t-231 92q-141 0 -233 -91.5t-92 -235.5t92 -235t233 -91q138 0 231 92.5t93 233.5zM678 1014q0 -70 -49.5 -112t-116.5 -42
h-53v-188h-107v495h156q67 0 118.5 -42t51.5 -111zM571 1014q0 30 -20 46.5t-53 16.5h-39v-127h39q33 0 53 17.5t20 46.5z" />
    <glyph glyph-name="summation" unicode="&#x2211;" horiz-adv-x="1210" 
d="M1151 313q0 -53 -35.5 -83.5t-79.5 -30.5v-199h-966v928h966v-500zM977 483v303h-303zM446 786h-317q0 -66 46 -111.5t112 -45.5t112.5 45.5t46.5 111.5zM977 59v164l-778 367q-40 18 -70 55v-586h848z" />
    <glyph glyph-name="minus" unicode="&#x2212;" horiz-adv-x="845" 
d="M745 473h-645v176h645v-176z" />
    <glyph glyph-name="radical" unicode="&#x221a;" horiz-adv-x="1196" 
d="M1174 1262h-179l-510 -1274h-147l-182 458h-131l36 207h240l80 -213q32 -92 35 -106h4q63 192 135 375l297 749h322v-196z" />
    <glyph glyph-name="infinity" unicode="&#x221e;" horiz-adv-x="1675" 
d="M1573 0h-244v731h-344v-731h-237v731h-340v-731h-240v731h-150v197h150v119q0 199 109.5 305t293.5 106q168 0 308 -88q105 88 270 88q127 0 203 -31l-47 -196q-71 29 -127 29q-193 0 -193 -230v-102h588v-928zM768 1198q-79 64 -174 64q-186 0 -186 -230v-104h340v119
q0 87 20 151z" />
    <glyph glyph-name="integral" unicode="&#x222b;" horiz-adv-x="1210" 
d="M1151 313q0 -53 -35.5 -83.5t-79.5 -30.5v-199h-966v928h966v-500zM977 483v303h-303zM446 786h-317q0 -66 46 -111.5t112 -45.5t112.5 45.5t46.5 111.5zM977 59v164l-778 367q-40 18 -70 55v-586h848z" />
    <glyph glyph-name="approxequal" unicode="&#x2248;" horiz-adv-x="923" 
d="M854 719q-93 -103 -242 -103q-66 0 -159 37q-5 2 -25 11t-27 11.5t-23.5 9t-26.5 9t-24.5 4.5t-27.5 2q-104 0 -193 -92l-36 183q94 104 243 104q70 0 158 -37q5 -2 21 -9.5t22 -10t20 -8.5t22.5 -8t21 -5.5t24.5 -4.5t25 -1q107 0 192 92zM854 340q-90 -100 -242 -100
q-69 0 -159 36q-5 2 -29.5 13t-33 14.5t-27.5 10t-33.5 8.5t-30.5 2q-104 0 -193 -93l-36 183q92 102 243 102q70 0 158 -37q5 -2 21 -9.5t22 -10t20 -8.5t22.5 -8t21 -5.5t24.5 -4.5t25 -1q107 0 192 92z" />
    <glyph glyph-name="notequal" unicode="&#x2260;" horiz-adv-x="1286" 
d="M1352 1427l-47 -196q-71 29 -127 29q-193 0 -193 -230v-102h258l-43 -197h-215v-731h-237v731h-340v-731h-240v731h-150v197h150v119q0 199 109.5 305t293.5 106q168 0 308 -88q105 88 270 88q127 0 203 -31zM768 1198q-79 64 -174 64q-186 0 -186 -230v-104h340v119
q0 87 20 151z" />
    <glyph glyph-name="lessequal" unicode="&#x2264;" horiz-adv-x="927" 
d="M854 176l-780 256v270l780 263v-203l-608 -195l608 -188v-203zM854 -49h-780v170h780v-170z" />
    <glyph glyph-name="greaterequal" unicode="&#x2265;" horiz-adv-x="927" 
d="M854 432l-780 -256v203l608 188l-608 195v203l780 -263v-270zM854 -49h-780v170h780v-170z" />
    <glyph glyph-name="lozenge" unicode="&#x25ca;" horiz-adv-x="1144" 
d="M1020 567l-457 -454l-454 454l454 455zM815 567l-252 250l-250 -250l250 -252z" />
    <glyph glyph-name="apple" unicode="&#xf8ff;" horiz-adv-x="1210" 
d="M1151 313q0 -53 -35.5 -83.5t-79.5 -30.5v-199h-966v928h966v-500zM977 483v303h-303zM446 786h-317q0 -66 46 -111.5t112 -45.5t112.5 45.5t46.5 111.5zM977 59v164l-778 367q-40 18 -70 55v-586h848z" />
    </font>
</defs>
</svg>
