<svg width="188" height="80" viewBox="0 0 188 80" fill="none" xmlns="http://www.w3.org/2000/svg">
<g clip-path="url(#clip0_139_1025)">
<path d="M59.7594 30.1526C59.7279 25.4716 55.8795 21.6986 51.1638 21.7299L8.48525 22.0274C3.76947 22.0744 -0.0315318 25.8943 1.18121e-05 30.5753L0.268133 68.4149C0.299676 73.0959 4.148 76.8689 8.86377 76.8376L51.5423 76.5401C56.2581 76.5088 60.0591 72.6888 60.0275 68.0078L59.7594 30.1526ZM50.9587 73.1585L9.41578 73.4403C6.27719 73.456 3.70639 70.9511 3.69062 67.8356L3.43827 31.1076C3.42249 27.9922 5.94598 25.4403 9.08457 25.4246L50.6275 25.1428C53.7661 25.1272 56.3369 27.6321 56.3527 30.7475L56.605 67.4755C56.6208 70.591 54.0973 73.1428 50.9587 73.1585Z" fill="white"/>
<path d="M20.7399 36.7124L20.803 44.6185L6.00906 44.7281L5.99329 43.0216L20.7399 36.7124Z" fill="white"/>
<path d="M20.0933 35.0215L20.0617 30.4344L28.6731 30.3718L28.9255 66.0352L20.3141 66.0979L20.2825 61.5734L23.1215 61.5577L23.0742 53.7926C23.0584 50.7554 17.4278 50.7241 17.4594 54.3249L17.5382 66.1135L9.00569 66.1761L8.97415 61.6517L11.8131 61.636L11.75 52.4462C12.302 46.9198 19.1627 44.1957 23.0268 48.4071L22.9322 34.9902L20.0933 35.0215Z" fill="white"/>
<path d="M38.9879 36.6028L39.0353 44.5088L53.8292 44.4306L53.8135 42.7241L38.9879 36.6028Z" fill="white"/>
<path d="M39.6188 34.8964L39.5873 30.3093L30.9759 30.3563L31.1967 66.0197L39.8081 65.9727L39.7765 61.4483L36.9376 61.4639L36.8903 53.6988C36.8745 50.6616 42.4893 50.552 42.5208 54.1528L42.5839 65.9414L51.1165 65.8945L51.0849 61.37L48.246 61.3856L48.1987 52.2115C47.5836 46.6851 40.6755 44.0706 36.8587 48.3289L36.7799 34.9121L39.6188 34.8964Z" fill="white"/>
<path d="M85.8933 28.5715L82.6443 28.5872L82.597 21.5578L97.4067 21.4482L97.454 28.4933L94.205 28.5089L94.347 48.7046L97.596 48.6733L97.6433 55.7183L82.8336 55.8122L82.7863 48.7829L86.0352 48.7516L85.9879 42.5363L75.405 42.6146L75.4524 48.8298L78.7014 48.8142L78.7487 55.8435L63.9389 55.9375L63.8916 48.9081L67.1406 48.8925L66.9987 28.6968L63.7497 28.7124L63.7024 21.6831L78.5121 21.5891L78.5594 28.6185L75.3104 28.6342L75.3577 34.3798L85.9248 34.3015L85.8933 28.5715Z" fill="white"/>
<path d="M122.09 43.0059C122.137 50.3171 116.475 56.2505 109.346 56.2975C102.264 56.3445 96.4604 50.5049 96.4131 43.1938C96.3658 35.9766 102.075 30.0431 109.157 29.9961C116.238 29.9492 122.042 35.7887 122.09 43.0059ZM103.589 43.1938C103.605 46.4971 106.16 49.1586 109.299 49.1272C112.437 49.1116 114.945 46.4188 114.929 43.1155C114.913 39.8122 112.358 37.1507 109.267 37.182C106.065 37.1977 103.558 39.8748 103.589 43.1938Z" fill="white"/>
<path d="M129.912 33.4405C131.742 30.9513 133.777 29.8241 136.489 29.8084C139.691 29.7928 142.151 31.2801 143.792 34.3642C145.527 31.3114 148.145 29.7302 151.536 29.7145C154.296 29.6988 156.961 30.92 158.601 32.9239C159.926 34.5677 160.478 36.4464 160.494 39.5306L160.557 48.4542L163.128 48.4386L163.175 55.2018L153.46 55.2644L153.365 41.4249C153.349 38.3407 152.166 36.8848 149.675 36.9004C146.962 36.9161 145.479 38.6695 145.511 41.8945L145.558 48.5638L148.129 48.5482L148.176 55.3114L138.413 55.374L138.319 42.1763C138.303 39.781 138.208 39.1392 137.609 38.3564C136.978 37.4484 135.969 36.9943 134.754 36.9943C132.136 37.01 130.654 38.9513 130.685 42.3642L130.733 48.6578L133.303 48.6421L133.351 55.4053L121.017 55.4836L120.97 48.7204L123.541 48.7047L123.462 37.3857L120.891 37.4014L120.844 30.6382L129.881 30.5756L129.912 33.4405Z" fill="white"/>
<path d="M187.038 47.6245C185.066 52.6029 180.493 55.8123 175.178 55.8437C167.686 55.8906 161.882 50.192 161.819 42.7399C161.771 35.3818 167.449 29.5892 174.752 29.5423C182.101 29.4953 187.858 35.1626 187.921 42.4268C187.921 43.4914 187.89 44.1802 187.621 45.464L168.963 45.5893C170.146 48.1098 172.386 49.5188 175.13 49.5031C176.991 49.4875 178.427 48.8769 179.452 47.6871L187.038 47.6245ZM174.815 35.9767C172.165 35.9924 169.799 37.6206 168.885 40.1098L181.171 40.0315C179.988 37.464 177.654 35.9611 174.815 35.9767Z" fill="white"/>
<path d="M110.429 62.8839L108.663 62.896L108.678 65.0721L110.444 65.06L110.429 62.8839Z" fill="white"/>
<path d="M84.9785 74.6145L86.398 74.5988L86.4138 76.2583L83.3541 76.274L83.3383 74.9746C82.6128 76.0078 81.5718 76.5558 80.2943 76.5715C78.1178 76.5871 76.5722 74.9746 76.5564 72.6419L76.5249 68.1801L75.1054 68.1957L75.0896 66.5362L78.2755 66.5206L78.3071 72.047C78.3228 73.8474 79.2534 74.9433 80.7202 74.9276C82.2343 74.912 83.1806 73.7848 83.1648 72.0157L83.1332 68.1487L81.7138 68.1644L81.698 66.5049L84.8839 66.4893L84.9785 74.6145Z" fill="white"/>
<path d="M89.8205 74.5833H91.24L91.2557 76.2428L86.6346 76.2741V74.6146L88.054 74.5989L88.0067 68.1332H86.5873L86.5715 66.4737L89.7732 66.458L89.8205 74.5833Z" fill="white"/>
<path d="M89.7362 63.025L87.9698 63.0371L87.9849 65.2132L89.7514 65.2011L89.7362 63.025Z" fill="white"/>
<path d="M94.694 74.5519H96.1292V76.2114L91.5238 76.2427L91.5081 74.5832L92.9275 74.5675L92.8644 64.6576L91.445 64.6732L91.4292 62.9981L94.6151 62.9824L94.694 74.5519Z" fill="white"/>
<path d="M110.513 74.4424H111.933L111.948 76.1019L107.327 76.1332L107.311 74.4737L108.731 74.458L108.699 67.9923H107.264V66.3328L110.45 66.3171L110.513 74.4424Z" fill="white"/>
<path d="M115.308 67.6164C116.049 66.5362 116.932 66.0665 118.241 66.0665C119.44 66.0509 120.544 66.5362 121.285 67.3973C121.869 68.0704 122.105 68.8219 122.105 70.0744L122.137 74.3796L123.556 74.364L123.572 76.0235L118.951 76.0548L118.935 74.3953L120.355 74.3796L120.323 70.6536C120.307 68.8376 119.393 67.82 117.8 67.82C116.191 67.8356 115.308 68.8845 115.324 70.7945L115.355 74.4109L116.775 74.3953L116.79 76.0548L112.169 76.0861L112.153 74.4266L113.573 74.4109L113.526 67.9452L112.106 67.9609L112.09 66.3014L115.276 66.2857L115.308 67.6164Z" fill="white"/>
<path d="M146.662 69.1507L145.022 69.1663C144.296 68.1331 143.334 67.5851 142.199 67.6008C140.385 67.6164 138.965 69.135 138.981 71.045C138.997 72.9237 140.448 74.4109 142.293 74.4109C143.539 74.3953 144.533 73.7847 145.069 72.6888L147.041 72.6732C146.284 74.8023 144.454 76.1487 142.278 76.1644C139.47 76.18 137.167 73.8943 137.152 71.0293C137.136 68.1957 139.344 65.8787 142.104 65.863C143.271 65.8473 144.202 66.2387 145.116 67.0841V66.0978L146.646 66.0822L146.662 69.1507Z" fill="white"/>
<path d="M159.784 67.3034C160.526 66.2232 161.425 65.7535 162.718 65.7535C163.916 65.7379 165.02 66.2232 165.762 67.0843C166.345 67.7575 166.582 68.5089 166.582 69.7614L166.613 74.0667L168.033 74.051L168.049 75.7105L163.428 75.7418L163.412 74.0823L164.831 74.0667L164.8 70.3406C164.784 68.5246 163.869 67.507 162.276 67.507C160.667 67.5226 159.784 68.5715 159.8 70.4815L159.832 74.098L161.251 74.0823L161.267 75.7418L156.646 75.7731L156.63 74.1136L158.049 74.098L158.002 67.6322L156.583 67.6479L156.567 65.9884L159.753 65.9727L159.784 67.3034Z" fill="white"/>
<path d="M170.209 74.0353L172.197 74.0196L172.212 75.6791L168.459 75.7104L168.396 67.5852H166.724L166.708 65.9257L168.38 65.91L168.364 62.4815L170.131 62.4658L170.162 65.91L172.023 65.8944V67.5539L170.162 67.5695L170.209 74.0353Z" fill="white"/>
<path d="M175.493 67.6165C176.124 66.3797 176.96 65.8631 178.505 65.7222L178.521 67.5539C176.66 67.6948 175.635 68.7907 175.635 70.6224L175.651 73.9883L177.07 73.9727L177.086 75.6321L172.465 75.6635L172.449 74.004L173.868 73.9883L173.821 67.5226L172.402 67.5382L172.386 65.8787L175.446 65.8631L175.493 67.6165Z" fill="white"/>
<path d="M67.2668 68.0393C68.1185 66.9434 69.191 66.4111 70.6262 66.4111C73.402 66.3954 75.6732 68.6498 75.7047 71.4522C75.7205 74.2858 73.544 76.5559 70.8155 76.5716C69.396 76.5872 68.2604 76.0706 67.3141 75.0217L67.3299 76.415L64.144 76.4307L64.1282 74.7712L65.5477 74.7555L65.4846 64.8455L64.0651 64.8612L64.0493 63.2017L67.2353 63.186L67.2668 68.0393ZM67.2037 71.4835C67.2195 73.3935 68.7178 74.9121 70.6104 74.8964C72.4557 74.8808 73.9383 73.3465 73.9225 71.4522C73.9067 69.5422 72.4084 68.0236 70.5473 68.0393C68.6863 68.0549 67.1879 69.6048 67.2037 71.4835Z" fill="white"/>
<path d="M105.624 74.4737L107.043 74.4581L107.059 76.1176L103.857 76.1332L103.842 74.6929C102.943 75.8045 101.823 76.3524 100.403 76.3681C97.6118 76.3837 95.3248 74.1137 95.3091 71.28C95.2933 68.4933 97.5171 66.1763 100.277 66.1606C101.665 66.145 102.832 66.6616 103.794 67.6949L103.779 64.5638L102.359 64.5794V62.9356L105.561 62.9199L105.624 74.4737ZM97.1701 71.327C97.1859 73.19 98.7 74.7242 100.545 74.7086C102.406 74.6929 103.889 73.1587 103.873 71.233C103.857 69.37 102.328 67.8671 100.498 67.8671C98.6527 67.8671 97.1701 69.417 97.1701 71.327Z" fill="white"/>
<path d="M125.512 76.9473C126.048 77.9179 126.995 78.4659 128.146 78.4659C130.039 78.4502 131.474 76.9942 131.411 75.1469L131.395 74.505C130.464 75.6322 129.36 76.1802 127.925 76.1958C125.134 76.2115 122.878 73.9571 122.847 71.1234C122.831 68.2897 125.07 66.0197 127.941 66.004C129.408 65.9884 130.449 66.4737 131.363 67.5696L131.348 66.1606L134.534 66.1449L134.549 67.8044L133.13 67.8201L133.177 74.8494C133.193 76.5872 132.799 77.6674 131.821 78.5911C130.859 79.5148 129.629 80.0001 128.162 80.0001C125.828 80.0158 124.061 78.8886 123.462 76.9629L125.512 76.9473ZM124.645 71.0921C124.66 73.0021 126.19 74.5207 128.051 74.505C129.912 74.4893 131.411 72.9551 131.411 71.0451C131.395 69.1665 129.865 67.6322 128.004 67.6479C126.143 67.6635 124.645 69.2134 124.645 71.0921Z" fill="white"/>
<path d="M156.803 72.9707C155.936 74.912 154.233 76.0705 152.23 76.0862C149.375 76.1018 147.119 73.8474 147.104 70.9824C147.088 68.1175 149.312 65.7848 152.088 65.7691C154.958 65.7535 157.135 67.9922 157.166 70.9668C157.166 71.1077 157.15 71.3582 157.135 71.6713L148.854 71.7339C149.217 73.456 150.495 74.5363 152.198 74.5206C153.397 74.5049 154.296 74.0196 154.974 72.9864L156.803 72.9707ZM152.103 67.3816C150.495 67.3973 149.17 68.4932 148.839 70.1057L155.542 70.0588C155.116 68.4306 153.759 67.366 152.103 67.3816Z" fill="white"/>
<path d="M187.653 72.7515C186.786 74.6927 185.082 75.8513 183.079 75.8669C180.24 75.8826 177.969 73.6282 177.953 70.7632C177.938 67.8982 180.161 65.5655 182.937 65.5499C185.808 65.5342 187.984 67.773 188.016 70.7475C188.016 70.8884 188 71.1389 187.984 71.452L179.704 71.5147C180.067 73.2368 181.344 74.317 183.048 74.3014C184.246 74.2857 185.145 73.8004 185.824 72.7671L187.653 72.7515ZM182.937 67.1624C181.329 67.1781 180.004 68.274 179.673 69.8865L186.376 69.8395C185.965 68.2113 184.593 67.1468 182.937 67.1624Z" fill="white"/>
<path d="M67.2195 14.6692C63.3081 14.7005 59.9014 11.6007 59.8698 7.37367C59.8383 3.2406 63.1977 0.0781726 67.0775 0.0625171C69.0175 0.0468615 70.4212 0.735707 71.6514 1.92553L71.6356 0.391284L73.402 0.375629L73.4336 4.35215L71.4148 4.3678C70.4212 2.88052 68.844 2.16036 67.1406 2.17602C64.2544 2.19168 61.999 4.43042 62.0148 7.37367C62.0306 10.3326 64.3648 12.6026 67.2195 12.5713C68.9859 12.5557 70.5946 11.679 71.541 10.1917L73.8121 10.176C72.6134 13.0566 69.9322 14.6535 67.2195 14.6692Z" fill="white"/>
<path d="M82.9755 14.2154L82.9597 12.4619C82.1081 13.6361 81.0514 14.4502 79.2061 14.4502C76.2883 14.4659 73.9067 12.0706 73.8909 9.17428C73.8752 6.29365 76.1936 3.72614 79.2061 3.69482C80.9094 3.67917 82.0134 4.41498 82.9124 5.68308L82.8967 3.89835L86.3191 3.88269L86.3349 5.63612H84.8524L84.8997 12.4619L86.398 12.4463L86.4138 14.1997L82.9755 14.2154ZM79.348 5.57349C77.345 5.58915 75.7993 7.21733 75.8151 9.12731C75.8309 11.0373 77.3923 12.6028 79.3795 12.5872C81.3352 12.5715 82.9597 11.006 82.944 9.01772C82.9282 7.10774 81.351 5.55784 79.348 5.57349Z" fill="white"/>
<path d="M94.489 14.356C92.5806 14.3717 91.4608 13.5733 90.5618 12.3521L90.5933 16.1564L92.1232 16.1408L92.139 17.8785L87.1866 17.9099L87.1708 16.1721L88.6692 16.1564L88.5903 5.60458L87.092 5.62023L87.0762 3.86681L90.4987 3.85115L90.5145 5.77679C91.3819 4.35213 92.5963 3.61632 94.2839 3.60066C97.249 3.58501 99.5675 6.01162 99.5833 8.95487C99.6148 11.8355 97.391 14.3247 94.489 14.356ZM94.1104 5.46368C92.1547 5.47933 90.5302 6.9353 90.546 8.95487C90.5618 11.0214 92.2336 12.493 94.1578 12.4774C96.145 12.4617 97.6591 10.8805 97.6433 8.89225C97.6433 6.95095 96.145 5.46368 94.1104 5.46368Z" fill="white"/>
<path d="M99.9302 14.1056L99.9144 12.3522L101.444 12.3365L101.413 5.5107L99.8829 5.52636L99.8671 3.77293L103.305 3.75728L103.368 12.3365L104.883 12.3209L104.898 14.0743L99.9302 14.1056ZM101.381 2.47352L101.365 0.17215L103.274 0.156494L103.29 2.45786L101.381 2.47352Z" fill="white"/>
<path d="M106.901 14.0587L106.838 5.47945L105.04 5.49511L105.025 3.74168L106.823 3.72603L106.791 0.1409L108.699 0.125244L108.731 3.71037L110.734 3.69472L110.75 5.44814L108.747 5.4638L108.794 12.2896L110.939 12.274L110.955 14.0274L106.901 14.0587Z" fill="white"/>
<path d="M119.645 13.9649L119.629 12.2115C118.778 13.3856 117.721 14.1997 115.876 14.1997C112.958 14.231 110.576 11.8201 110.56 8.92379C110.545 6.04316 112.863 3.47565 115.876 3.44434C117.579 3.42868 118.683 4.16449 119.582 5.4326L119.566 3.64786L122.989 3.6322L123.004 5.38563L121.506 5.40128L121.553 12.2271L123.052 12.2115L123.067 13.9649H119.645ZM116.017 5.32301C114.014 5.33866 112.469 6.96684 112.485 8.87682C112.5 10.7868 114.062 12.3524 116.049 12.3367C118.005 12.321 119.629 10.7555 119.613 8.76723C119.598 6.85725 118.005 5.30735 116.017 5.32301Z" fill="white"/>
<path d="M123.825 13.9335L123.809 12.18L125.417 12.1644L125.339 1.76908L123.809 1.78474V0.0313112L127.247 0L127.326 12.1487L128.856 12.1331L128.871 13.8865L123.825 13.9335Z" fill="white"/>
</g>
<defs>
<clipPath id="clip0_139_1025">
<rect width="188" height="80" fill="white"/>
</clipPath>
</defs>
</svg>
