<svg width="20" height="20" viewBox="0 0 20 20" fill="none" xmlns="http://www.w3.org/2000/svg">
<path d="M9.99999 0C6.00604 0 2.75674 3.2493 2.75674 7.2432C2.75674 12.1998 9.23874 19.4763 9.51471 19.7836C9.77393 20.0723 10.2265 20.0718 10.4853 19.7836C10.7612 19.4763 17.2432 12.1998 17.2432 7.2432C17.2432 3.2493 13.9939 0 9.99999 0ZM9.99999 10.8875C7.99053 10.8875 6.35577 9.25266 6.35577 7.2432C6.35577 5.23375 7.99057 3.59898 9.99999 3.59898C12.0094 3.59898 13.6442 5.23379 13.6442 7.24324C13.6442 9.25269 12.0094 10.8875 9.99999 10.8875Z" fill="white"/>
</svg>
