<svg width="30" height="30" viewBox="0 0 30 30" fill="none" xmlns="http://www.w3.org/2000/svg">
<g clip-path="url(#clip0_24_255)">
<path d="M29.7077 0.122596C29.4913 -0.0285751 29.2083 -0.0405282 28.9799 0.0899969L0.343677 16.4536C0.109984 16.5867 -0.0232253 16.8451 0.00342944 17.1128C0.0300842 17.3805 0.21117 17.6075 0.466212 17.6921L9.01772 20.5424L12.3141 29.5526C12.4133 29.8236 12.6709 30.0001 12.9539 30.0001C12.9799 30.0001 13.0065 29.9987 13.0325 29.9954C13.2167 29.9742 13.3717 29.8752 13.4813 29.7377L18.3389 23.6497L25.0116 25.8739C25.0821 25.8979 25.1548 25.9092 25.2273 25.9092C25.3498 25.9092 25.4717 25.8759 25.5789 25.8113C25.75 25.7088 25.8672 25.5363 25.8998 25.3393L29.9907 0.793886C30.034 0.534051 29.9241 0.273064 29.7077 0.122596ZM13.3654 21.0498C13.2955 21.1451 13.2509 21.2562 13.237 21.3735L12.6211 26.4218L10.3373 20.1796L23.672 7.15184L13.3654 21.0498Z" fill="white"/>
</g>
<defs>
<clipPath id="clip0_24_255">
<rect width="30" height="30" fill="white"/>
</clipPath>
</defs>
</svg>
