<svg width="24" height="24" viewBox="0 0 24 24" fill="none" xmlns="http://www.w3.org/2000/svg">
<path d="M15.5512 12.9961L13.5412 15.0129C12.7261 15.8309 11.2919 15.8485 10.4591 15.0129L8.44899 12.9961L1.22949 20.239C1.49823 20.3633 1.79452 20.4375 2.10952 20.4375H21.8908C22.2058 20.4375 22.502 20.3634 22.7706 20.2391L15.5512 12.9961Z" fill="white"/>
<path d="M21.8907 3.5625H2.10943C1.79443 3.5625 1.49813 3.63666 1.22949 3.76092L8.94404 11.5011C8.94455 11.5016 8.94516 11.5017 8.94568 11.5022C8.9462 11.5027 8.94629 11.5034 8.94629 11.5034L11.4547 14.0201C11.7211 14.2866 12.2791 14.2866 12.5455 14.0201L15.0534 11.5038C15.0534 11.5038 15.054 11.5027 15.0545 11.5022C15.0545 11.5022 15.0556 11.5016 15.0562 11.5011L22.7705 3.76088C22.5019 3.63656 22.2057 3.5625 21.8907 3.5625Z" fill="white"/>
<path d="M0.224344 4.74426C0.0853125 5.02542 0 5.33751 0 5.67183V18.3281C0 18.6624 0.0852187 18.9745 0.224297 19.2556L7.45631 12.0002L0.224344 4.74426Z" fill="white"/>
<path d="M23.7759 4.74426L16.5439 12.0003L23.7759 19.2558C23.9149 18.9747 24.0002 18.6626 24.0002 18.3282V5.67192C24.0002 5.33751 23.9149 5.02542 23.7759 4.74426Z" fill="white"/>
</svg>
