<svg width="182" height="24" viewBox="0 0 182 24" fill="none" xmlns="http://www.w3.org/2000/svg">
<g clip-path="url(#clip0_249_1012)">
<path d="M159.684 19.4812L159.226 18.5735C160.904 17.7634 161.295 16.9826 161.295 15.0013V5.2998H162.447V14.9915C162.447 17.3925 161.588 18.6906 159.675 19.4812H159.684Z" fill="#F2F2F2"/>
<path d="M168.303 6.57837H168.283L166.741 11.3803H169.776L168.303 6.57837ZM171.26 16.0359L170.05 12.249H166.458L165.297 15.8407H164.037L167.756 5.29004H168.947L172.412 15.6943L171.26 16.0261V16.0359Z" fill="#F2F2F2"/>
<path d="M178.141 16.0358C175.613 16.0358 173.651 14.3375 173.651 10.8141C173.651 7.04675 175.837 5.10449 178.59 5.10449C179.732 5.10449 180.425 5.26065 181.284 5.63154L180.825 6.68562C180.161 6.38306 179.497 6.15858 178.551 6.15858C176.608 6.15858 174.832 7.70067 174.832 10.414C174.832 13.4591 175.935 15.0012 178.687 15.0012C179.507 15.0012 180.317 14.6694 180.932 14.4058L181.313 15.3526C180.415 15.8113 179.419 16.0358 178.121 16.0358H178.141Z" fill="#F2F2F2"/>
<path d="M147.904 24H146.928V15.3233L151.554 11.9561L146.928 8.59862V0H147.904V8.10085L153.213 11.9561L147.904 15.8211V24Z" fill="#F2F2F2"/>
<path d="M1.47377 15.6942H0V8.69622C0 8.69622 0.976007 8.5791 2.01057 8.5791C4.18707 8.5791 5.5242 9.71127 5.5242 11.7316C5.5242 14.3083 3.98211 15.7039 1.47377 15.7039V15.6942ZM1.84465 9.40871C1.35665 9.40871 0.976007 9.42823 0.976007 9.42823V14.8158H1.65921C3.32818 14.8158 4.49939 13.8203 4.49939 11.8682C4.49939 10.209 3.37698 9.40871 1.84465 9.40871Z" fill="#F2F2F2"/>
<path d="M8.70599 15.694V8.64722H12.2099V9.47682H9.682V11.6436H11.9659V12.4634H9.682V14.8644H12.327V15.694H8.70599Z" fill="#F2F2F2"/>
<path d="M16.9337 15.821C16.2115 15.821 15.5673 15.6649 15.011 15.4306L15.3136 14.5717C15.7723 14.7865 16.3091 14.9621 16.8557 14.9621C17.7145 14.9621 18.2611 14.6303 18.2611 13.8593C18.2611 13.2834 17.8414 13.0004 17.2753 12.7369L16.1725 12.2098C15.4307 11.8584 14.9329 11.3997 14.9329 10.4042C14.9329 9.19395 15.987 8.51074 17.207 8.51074C17.8609 8.51074 18.2806 8.6181 18.8955 8.83282L18.5637 9.66243C18.144 9.48675 17.7829 9.32083 17.2656 9.32083C16.5433 9.32083 15.8796 9.61363 15.8796 10.3652C15.8796 10.8824 16.192 11.1069 16.6409 11.3216L17.7731 11.8877C18.6515 12.3172 19.1883 12.8052 19.1883 13.7031C19.1883 14.9329 18.3294 15.8113 16.9142 15.8113L16.9337 15.821Z" fill="#F2F2F2"/>
<path d="M22.3018 15.694V8.64722H23.2875V15.694H22.3018Z" fill="#F2F2F2"/>
<path d="M31.6616 9.7698C31.1932 9.5746 30.7149 9.39891 30.0805 9.39891C28.6751 9.39891 27.4843 10.3359 27.4843 12.0634C27.4843 13.9764 28.2261 14.9329 29.9927 14.9329C30.4612 14.9329 30.9784 14.806 30.9784 14.806V12.2391H31.9545V15.4599C31.9545 15.4599 31.0858 15.821 29.5535 15.821C27.7771 15.821 26.4595 14.5815 26.4595 12.2977C26.4595 9.83812 28.109 8.52051 30.1098 8.52051C30.8711 8.52051 31.4176 8.63763 32.0033 8.89139L31.6616 9.7698Z" fill="#F2F2F2"/>
<path d="M39.499 15.7916L36.1611 10.1503H36.1513L36.2099 15.6842H35.2924V8.63745H36.3075L39.5478 14.0836H39.5576L39.499 8.63745H40.4165V15.6159L39.4892 15.7916H39.499Z" fill="#F2F2F2"/>
<path d="M53.7194 15.8894L52.2066 14.6791C51.7186 15.3721 50.9768 15.821 49.8739 15.821C48.7027 15.821 47.9024 15.1671 47.9024 14.074C47.9024 13.1761 48.3709 12.6783 49.0736 12.0829C48.5466 11.5656 48.2342 11.0484 48.2342 10.3261C48.2342 9.16467 49.0151 8.51074 50.0203 8.51074C50.8792 8.51074 51.4941 9.07683 51.4941 9.96499C51.4941 10.9215 51.0647 11.3704 50.2643 12.0146L52.0114 13.4298C52.1871 12.9223 52.2261 12.5319 52.2652 11.7804H54.1879V12.5221H52.9386C52.9191 13.0004 52.7824 13.4786 52.6263 13.9178L54.2367 15.2159L53.7096 15.8796L53.7194 15.8894ZM49.7471 12.6685C49.7471 12.6685 49.6299 12.5709 49.6104 12.5612C49.181 12.893 48.7808 13.3322 48.7808 13.9081C48.7808 14.601 49.2688 15.0793 50.0203 15.0793C50.7719 15.0793 51.2696 14.7084 51.621 14.2106L49.7471 12.6685ZM49.9423 9.24275C49.4055 9.24275 49.0541 9.59411 49.0541 10.2773C49.0541 10.7556 49.2103 11.1167 49.7471 11.6242C50.3717 11.1362 50.7035 10.7848 50.7035 10.0821C50.7035 9.62339 50.4303 9.25251 49.9423 9.25251V9.24275Z" fill="#F2F2F2"/>
<path d="M63.4893 9.47682V15.694H62.5035V9.47682H60.532V8.64722H65.4511V9.47682H63.4795H63.4893Z" fill="#F2F2F2"/>
<path d="M68.1545 15.694V8.64722H71.6584V9.47682H69.1305V11.6436H71.4144V12.4634H69.1305V14.8644H71.7755V15.694H68.1545Z" fill="#F2F2F2"/>
<path d="M77.368 15.821C75.6502 15.821 74.3229 14.6596 74.3229 12.3172C74.3229 9.82835 75.7966 8.51074 77.6901 8.51074C78.4709 8.51074 78.9589 8.62786 79.5543 8.88162L79.1834 9.74051C78.7344 9.54531 78.3147 9.38915 77.6803 9.38915C76.4506 9.38915 75.3282 10.3359 75.3282 12.0732C75.3282 14.0057 76.0406 14.9524 77.7487 14.9524C78.3147 14.9524 78.8223 14.7279 79.2517 14.5425L79.5835 15.3233C78.9296 15.6649 78.2659 15.8113 77.368 15.8113V15.821Z" fill="#F2F2F2"/>
<path d="M86.6108 15.694V12.4634H83.4388V15.694H82.453V8.64722H83.4388V11.6436H86.6108V8.64722H87.5966V15.694H86.6108Z" fill="#F2F2F2"/>
<path d="M95.3754 15.7916L92.0375 10.1503H92.0277L92.0863 15.6842H91.1688V8.63745H92.1839L95.4242 14.0836H95.434L95.3754 8.63745H96.2929V15.6159L95.3656 15.7916H95.3754Z" fill="#F2F2F2"/>
<path d="M102.705 15.821C100.304 15.821 99.4844 14.0447 99.4844 12.1708C99.4844 10.2968 100.343 8.52051 102.705 8.52051C105.067 8.52051 105.887 10.2871 105.887 12.1708C105.887 14.0545 105.057 15.821 102.705 15.821ZM102.705 9.35011C101.231 9.35011 100.538 10.492 100.538 12.1708C100.538 13.8495 101.202 14.9914 102.705 14.9914C104.208 14.9914 104.862 13.8495 104.862 12.1708C104.862 10.492 104.198 9.35011 102.705 9.35011Z" fill="#F2F2F2"/>
<path d="M109.059 15.694V8.64722H110.045V14.8644H112.739V15.694H109.059Z" fill="#F2F2F2"/>
<path d="M117.853 15.821C115.452 15.821 114.632 14.0447 114.632 12.1708C114.632 10.2968 115.491 8.52051 117.853 8.52051C120.215 8.52051 121.035 10.2871 121.035 12.1708C121.035 14.0545 120.205 15.821 117.853 15.821ZM117.853 9.35011C116.379 9.35011 115.686 10.492 115.686 12.1708C115.686 13.8495 116.35 14.9914 117.853 14.9914C119.356 14.9914 120.01 13.8495 120.01 12.1708C120.01 10.492 119.346 9.35011 117.853 9.35011Z" fill="#F2F2F2"/>
<path d="M129.018 9.7698C128.55 9.5746 128.072 9.39891 127.437 9.39891C126.032 9.39891 124.841 10.3359 124.841 12.0634C124.841 13.9764 125.583 14.9329 127.349 14.9329C127.818 14.9329 128.335 14.806 128.335 14.806V12.2391H129.311V15.4599C129.311 15.4599 128.442 15.821 126.91 15.821C125.134 15.821 123.816 14.5815 123.816 12.2977C123.816 9.83812 125.466 8.52051 127.466 8.52051C128.228 8.52051 128.774 8.63763 129.36 8.89139L129.018 9.7698Z" fill="#F2F2F2"/>
<path d="M134.826 12.7173V15.6941H133.84V12.7758L131.732 8.83277L132.61 8.42285L134.338 11.7803H134.347L136.006 8.64733H137.041L134.816 12.7173H134.826Z" fill="#F2F2F2"/>
</g>
<defs>
<clipPath id="clip0_249_1012">
<rect width="181.322" height="24" fill="white"/>
</clipPath>
</defs>
</svg>
