<svg width="28" height="28" viewBox="0 0 28 28" fill="none" xmlns="http://www.w3.org/2000/svg">
<g clip-path="url(#clip0_139_949)">
<path d="M27.1057 25.5036L20.4416 18.5726C22.1551 16.5358 23.0939 13.973 23.0939 11.305C23.0939 5.07152 18.0223 0 11.7889 0C5.5554 0 0.483887 5.07152 0.483887 11.305C0.483887 17.5385 5.5554 22.61 11.7889 22.61C14.129 22.61 16.359 21.9042 18.2656 20.5643L24.9803 27.5478C25.261 27.8393 25.6385 28 26.043 28C26.4259 28 26.7891 27.854 27.0649 27.5886C27.6508 27.0248 27.6694 26.0899 27.1057 25.5036ZM11.7889 2.94913C16.3964 2.94913 20.1447 6.69747 20.1447 11.305C20.1447 15.9125 16.3964 19.6609 11.7889 19.6609C7.18136 19.6609 3.43301 15.9125 3.43301 11.305C3.43301 6.69747 7.18136 2.94913 11.7889 2.94913Z" fill="white"/>
</g>
<defs>
<clipPath id="clip0_139_949">
<rect width="28" height="28" fill="white"/>
</clipPath>
</defs>
</svg>
